<svg width="744" height="303" viewBox="0 0 744 303" fill="none" xmlns="http://www.w3.org/2000/svg">
<path d="M223.501 186.876V241.064H198.155V297H139.597V241.064H0.194137V230.139L95.8971 6.39499H157.514L80.1651 186.876H141.345L151.396 117.393H198.155V186.876H223.501ZM743.719 186.876V241.064H718.373V297H659.815V241.064H520.412V230.139L616.115 6.39499H677.732L600.383 186.876H661.563L671.614 117.393H718.373V186.876H743.719Z" fill="#EF7EA8"/>
<path d="M374.546 302.244C350.657 302.244 329.826 296.126 312.055 283.89C294.284 271.654 280.591 254.174 270.977 231.45C261.363 208.726 256.556 182.069 256.556 151.479C256.556 104.866 267.044 68.1577 288.02 41.355C309.287 14.261 338.129 0.713986 374.546 0.713986C410.963 0.713986 439.659 14.261 460.635 41.355C481.611 68.1577 492.099 104.866 492.099 151.479C492.099 197.801 481.465 234.509 460.198 261.603C439.222 288.697 410.671 302.244 374.546 302.244ZM333.468 220.525C343.082 236.257 356.775 244.123 374.546 244.123C392.317 244.123 405.864 236.257 415.187 220.525C424.51 204.502 429.171 181.632 429.171 151.916C429.171 121.909 424.364 98.8933 414.75 82.87C405.427 66.8467 392.026 58.835 374.546 58.835C356.775 58.835 343.082 66.8467 333.468 82.87C324.145 98.602 319.484 121.472 319.484 151.479C319.484 181.486 324.145 204.502 333.468 220.525Z" fill="#44A5AC"/>
</svg>
