<svg width="7" height="11" viewBox="0 0 7 11" fill="none" xmlns="http://www.w3.org/2000/svg">
<path fill-rule="evenodd" clip-rule="evenodd" d="M0.841631 0.831572C0.482477 1.19287 0.482477 1.77638 0.841631 2.13768L4.12079 5.46315L0.841631 8.74231C0.482477 9.10361 0.482477 9.68712 0.841631 10.0484C1.01556 10.2238 1.25233 10.3224 1.49932 10.3224C1.74631 10.3224 1.98307 10.2238 2.157 10.0484L6.08458 6.12084C6.25994 5.9469 6.35858 5.71014 6.35858 5.46315C6.35858 5.21616 6.25994 4.9794 6.08458 4.80547L2.157 0.831572C1.98307 0.656209 1.74631 0.55757 1.49932 0.55757C1.25233 0.55757 1.01556 0.656209 0.841631 0.831572V0.831572Z" fill="#4A5865"/>
</svg>
