<svg width="5" height="10" viewBox="0 0 5 10" fill="none" xmlns="http://www.w3.org/2000/svg">
<path fill-rule="evenodd" clip-rule="evenodd" d="M0.232634 1.01991C-0.0775451 1.33194 -0.077545 1.83588 0.232634 2.14791L3.06463 5.01991L0.232634 7.85191C-0.0775448 8.16394 -0.0775447 8.66788 0.232634 8.97991C0.382847 9.13136 0.587324 9.21655 0.800634 9.21655C1.01394 9.21655 1.21842 9.13136 1.36863 8.97991L4.76063 5.58791C4.91208 5.4377 4.99727 5.23322 4.99727 5.01991C4.99727 4.8066 4.91208 4.60213 4.76063 4.45191L1.36863 1.01991C1.21842 0.868464 1.01394 0.783276 0.800634 0.783276C0.587324 0.783276 0.382847 0.868464 0.232634 1.01991Z" fill="#B1BFCD"/>
</svg>
