<svg width="5" height="10" viewBox="0 0 5 10" fill="none" xmlns="http://www.w3.org/2000/svg">
<path fill-rule="evenodd" clip-rule="evenodd" d="M0.232634 1.02004C-0.0775451 1.33207 -0.077545 1.83601 0.232634 2.14804L3.06463 5.02004L0.232634 7.85204C-0.0775448 8.16407 -0.0775447 8.66801 0.232634 8.98004C0.382847 9.13149 0.587324 9.21667 0.800634 9.21667C1.01394 9.21667 1.21842 9.13149 1.36863 8.98004L4.76063 5.58804C4.91208 5.43782 4.99727 5.23335 4.99727 5.02004C4.99727 4.80673 4.91208 4.60225 4.76063 4.45204L1.36863 1.02004C1.21842 0.868586 1.01394 0.783398 0.800634 0.783398C0.587324 0.783398 0.382847 0.868587 0.232634 1.02004Z" fill="#FF5190"/>
</svg>
