<svg width="19" height="14" viewBox="0 0 19 14" fill="none" xmlns="http://www.w3.org/2000/svg">
<path fill-rule="evenodd" clip-rule="evenodd" d="M2.41841 7.48001L8.14426 12.483C8.41875 12.7228 8.44685 13.1398 8.20701 13.4143C7.96717 13.6888 7.55023 13.7168 7.27574 13.477L0.23574 7.32579C0.233933 7.32421 0.232137 7.32262 0.230351 7.32103C0.0893323 7.19999 0 7.02043 0 6.82001C0 6.57453 0.134021 6.36035 0.332886 6.24665L7.27504 0.163612C7.54919 -0.0766115 7.96617 -0.0491085 8.2064 0.225042C8.44662 0.499193 8.41912 0.916177 8.14497 1.1564L2.43469 6.16001L18.0365 6.16001C18.401 6.16001 18.6965 6.4555 18.6965 6.82001C18.6965 7.18452 18.401 7.48001 18.0365 7.48001L2.41841 7.48001Z" fill="#4A5865"/>
</svg>
