<svg width="7" height="12" viewBox="0 0 7 12" fill="none" xmlns="http://www.w3.org/2000/svg">
<path fill-rule="evenodd" clip-rule="evenodd" d="M6.67413 0.336721C7.10862 0.78072 7.10862 1.49779 6.67413 1.94179L2.70717 6.02846L6.67413 10.0582C7.10862 10.5022 7.10862 11.2193 6.67413 11.6633C6.46372 11.8788 6.1773 12 5.8785 12C5.5797 12 5.29328 11.8788 5.08287 11.6633L0.331475 6.83668C0.119329 6.62294 -2.2908e-07 6.33198 -2.15813e-07 6.02846C-2.02545e-07 5.72493 0.119329 5.43398 0.331475 5.22023L5.08287 0.336721C5.29328 0.121218 5.5797 -6.20831e-08 5.8785 -4.90223e-08C6.1773 -3.59615e-08 6.46372 0.121218 6.67413 0.336721Z" fill="#161D25"/>
</svg>
