<svg width="22" height="22" viewBox="0 0 22 22" fill="none" xmlns="http://www.w3.org/2000/svg">
<path fill-rule="evenodd" clip-rule="evenodd" d="M3.82443 5.0263L3.64203 3.52963C3.57632 2.89515 3.03543 2.41266 2.38992 2.41266H1.71551C1.29822 2.41266 0.959961 2.07848 0.959961 1.66629C0.959961 1.2541 1.29822 0.919922 1.71551 0.919922H2.38992C3.81047 0.919922 5.0007 1.98164 5.14528 3.37771L5.28294 4.70695H20.6162C20.9332 4.70695 21.1714 4.99285 21.1104 5.30016L19.7708 12.049C19.4466 13.6828 17.9971 14.8613 16.3119 14.8613H8.28333C8.51488 15.8706 9.42794 16.6023 10.493 16.6023H16.8165C16.8537 16.6023 16.8907 16.605 16.8722 16.6083C16.9276 16.6043 16.9832 16.6023 17.0391 16.6023C18.2907 16.6023 19.3053 17.6047 19.3053 18.8411C19.3053 20.0776 18.2907 21.0799 17.0391 21.0799C15.7875 21.0799 14.7729 20.0776 14.7729 18.8411C14.7729 18.5835 14.8171 18.3319 14.9019 18.095H12.1267C12.2114 18.3319 12.2556 18.5835 12.2556 18.8411C12.2556 20.0776 11.241 21.0799 9.98944 21.0799C8.73783 21.0799 7.72324 20.0776 7.72324 18.8411C7.72324 18.2958 7.92191 17.7819 8.27103 17.3814C7.4122 16.7635 6.84565 15.8104 6.7358 14.7467L6.7242 14.6344C5.49457 14.1719 4.58707 13.0477 4.46619 11.6823L4.16169 8.24294C4.15655 8.22166 4.15277 8.19981 4.15045 8.17746L3.82443 5.0263ZM9.98944 19.8361C10.5456 19.8361 10.9965 19.3906 10.9965 18.8411C10.9965 18.2916 10.5456 17.8462 9.98944 17.8462C9.43323 17.8462 8.98234 18.2916 8.98234 18.8411C8.98234 19.3906 9.43323 19.8361 9.98944 19.8361ZM17.0391 19.8361C17.5953 19.8361 18.0462 19.3906 18.0462 18.8411C18.0462 18.2916 17.5953 17.8462 17.0391 17.8462C16.4829 17.8462 16.032 18.2916 16.032 18.8411C16.032 19.3906 16.4829 19.8361 17.0391 19.8361Z" fill="#B1BFCD"/>
</svg>
