<svg width="30" height="34" viewBox="0 0 30 34" fill="none" xmlns="http://www.w3.org/2000/svg">
<path d="M28.3835 0.150192C28.2171 0.0669027 28.0359 0.0172134 27.8503 0.00396257C27.6647 -0.00928828 27.4782 0.0141589 27.3017 0.0729648C27.1251 0.131771 26.9619 0.224783 26.8213 0.346689C26.6807 0.468594 26.5655 0.617005 26.4823 0.783442L24.1151 5.51794C23.8813 5.98981 23.5199 6.38665 23.0719 6.66338C22.6239 6.9401 22.1072 7.0856 21.5806 7.08336H18.5419C18.0985 7.08336 17.6749 6.87228 17.4085 6.51669L16.1336 4.81669C15.5995 4.10269 14.401 4.10269 13.8669 4.81669L12.5905 6.51811C12.4585 6.6936 12.2876 6.83602 12.0911 6.93411C11.8947 7.03221 11.6781 7.0833 11.4586 7.08336H8.4198C7.89322 7.0856 7.37657 6.9401 6.92855 6.66338C6.48053 6.38665 6.11912 5.98981 5.88538 5.51794L3.51813 0.783442C3.35 0.447357 3.05524 0.19183 2.6987 0.0730725C2.34216 -0.045685 1.95305 -0.0179442 1.61697 0.150192C1.28088 0.318328 1.02536 0.613087 0.906598 0.969625C0.787841 1.32616 0.815581 1.71527 0.983718 2.05136L2.25305 4.59003L2.25022 4.60419V9.70986C2.25022 11.6833 2.63838 13.6057 3.40338 15.4219C4.43613 17.8727 4.61322 20.6352 3.9063 23.1965L2.77863 27.2822C2.42818 28.5574 2.25046 29.8739 2.25022 31.1964V32.5834C2.25022 32.9591 2.39947 33.3194 2.66515 33.5851C2.93083 33.8508 3.29116 34 3.66688 34C4.04261 34 4.40294 33.8508 4.66862 33.5851C4.9343 33.3194 5.08355 32.9591 5.08355 32.5834V31.1964C5.08355 30.1269 5.22805 29.0629 5.51138 28.0359L6.63905 23.9502C7.51455 20.7769 7.29355 17.3584 6.01713 14.3225C5.39947 12.8632 5.08197 11.2945 5.08355 9.70986V8.82303C6.03272 9.51578 7.1873 9.91669 8.4198 9.91669H11.4586C12.1179 9.91538 12.768 9.76118 13.3577 9.4662C13.9474 9.17123 14.4606 8.74352 14.8571 8.21669L15.0002 8.02828L15.1419 8.21669C15.5385 8.74371 16.052 9.17154 16.642 9.46652C17.2319 9.7615 17.8823 9.9156 18.5419 9.91669H21.5806C22.8131 9.91669 23.9677 9.51578 24.9169 8.82303V9.70986C24.9183 11.2948 24.6013 12.8638 23.9847 14.3239C22.7067 17.3733 22.4877 20.7631 23.3628 23.9516L24.4905 28.0373C24.7738 29.0658 24.9183 30.1297 24.9183 31.1979V32.5834C24.9183 32.9591 25.0676 33.3194 25.3332 33.5851C25.5989 33.8508 25.9592 34 26.335 34C26.7107 34 27.071 33.8508 27.3367 33.5851C27.6024 33.3194 27.7516 32.9591 27.7516 32.5834V31.1964C27.7516 29.8734 27.5734 28.5563 27.2218 27.2808L26.0941 23.1951C25.388 20.6202 25.565 17.8829 26.5971 15.4204C27.3621 13.6057 27.7502 11.6833 27.7502 9.70986V4.60419L27.7474 4.59003L29.0167 2.05136C29.1 1.88495 29.1497 1.70377 29.1629 1.51816C29.1762 1.33254 29.1528 1.14614 29.0939 0.969589C29.0351 0.79304 28.9421 0.629806 28.8202 0.489211C28.6983 0.348617 28.5499 0.233417 28.3835 0.150192Z" fill="#B1BFCD"/>
<path d="M20.6557 21.4299C20.6779 21.2453 20.6634 21.0581 20.6132 20.879C20.563 20.7 20.478 20.5325 20.3631 20.3863C20.2482 20.2401 20.1056 20.1179 19.9435 20.0268C19.7814 19.9357 19.6029 19.8774 19.4183 19.8553C19.2336 19.8332 19.0464 19.8476 18.8674 19.8978C18.6883 19.948 18.5209 20.033 18.3747 20.1479C18.2285 20.2628 18.1063 20.4054 18.0152 20.5675C17.9241 20.7296 17.8658 20.9081 17.8437 21.0927C17.7905 21.4602 17.6248 21.8022 17.3693 22.0716C17.1139 22.341 16.7812 22.5247 16.4171 22.5973V18.4167C16.4171 18.0409 16.2678 17.6806 16.0021 17.4149C15.7365 17.1493 15.3761 17 15.0004 17C14.6247 17 14.2644 17.1493 13.9987 17.4149C13.733 17.6806 13.5837 18.0409 13.5837 18.4167V22.5987C13.2219 22.5265 12.891 22.3446 12.6363 22.0777C12.3815 21.8107 12.2152 21.4718 12.16 21.1069C12.1404 20.9209 12.0841 20.7406 11.9944 20.5764C11.9047 20.4122 11.7834 20.2674 11.6375 20.1504C11.4916 20.0333 11.3239 19.9463 11.1442 19.8944C10.9644 19.8425 10.7762 19.8267 10.5903 19.848C10.4045 19.8692 10.2247 19.927 10.0613 20.0181C9.89787 20.1092 9.75413 20.2318 9.63836 20.3787C9.52258 20.5257 9.43706 20.6941 9.38672 20.8743C9.33638 21.0545 9.32223 21.2428 9.34508 21.4285C9.48096 22.4856 9.97642 23.4637 10.7482 24.1986C11.5201 24.9336 12.5213 25.3806 13.5837 25.4646V31.0972C13.2219 31.0251 12.891 30.8432 12.6363 30.5762C12.3815 30.3093 12.2152 29.9703 12.16 29.6055C12.1388 29.4207 12.0814 29.2418 11.9911 29.0792C11.9007 28.9165 11.7793 28.7733 11.6336 28.6576C11.4879 28.5419 11.3208 28.456 11.1419 28.4049C10.9631 28.3537 10.7759 28.3383 10.591 28.3595C10.4062 28.3807 10.2274 28.4382 10.0647 28.5285C9.90207 28.6188 9.75881 28.7403 9.64311 28.886C9.52742 29.0317 9.44155 29.1987 9.39041 29.3776C9.33927 29.5565 9.32387 29.7437 9.34508 29.9285C9.48676 31.052 10.0332 32.0853 10.8821 32.8348C11.7309 33.5843 12.8239 33.9986 13.9563 34H16.0459C17.1781 33.9986 18.2709 33.5845 19.1197 32.8353C19.9686 32.0861 20.5152 31.0532 20.6572 29.9299C20.7019 29.5568 20.5965 29.1812 20.3643 28.8858C20.1321 28.5904 19.7921 28.3993 19.419 28.3546C19.0459 28.3099 18.6703 28.4152 18.3749 28.6474C18.0795 28.8796 17.8884 29.2197 17.8437 29.5927C17.7905 29.9602 17.6248 30.3022 17.3693 30.5716C17.1139 30.841 16.7812 31.0247 16.4171 31.0972V25.4646C17.4795 25.3812 18.4808 24.9345 19.2527 24.1998C20.0246 23.465 20.5201 22.4869 20.6557 21.4299Z" fill="#B1BFCD"/>
</svg>
