<svg width="34" height="34" viewBox="0 0 34 34" fill="none" xmlns="http://www.w3.org/2000/svg">
<g clip-path="url(#clip0_770_7422)">
<path d="M3.5415 4.25C4.71511 4.25 5.6665 3.2986 5.6665 2.125C5.6665 0.951395 4.71511 0 3.5415 0C2.3679 0 1.4165 0.951395 1.4165 2.125C1.4165 3.2986 2.3679 4.25 3.5415 4.25Z" fill="#B1BFCD"/>
<path d="M9.32575 14.1667C7.30842 14.1667 5.6665 12.5106 5.6665 10.4735C5.66704 9.90815 5.79719 9.35048 6.04696 8.84334C6.29672 8.3362 6.65945 7.89308 7.10725 7.54804C7.01313 7.21574 6.96546 6.872 6.96559 6.52662C6.96559 4.48946 8.6075 2.83337 10.6248 2.83337C12.4608 2.83337 13.9852 4.20471 14.2458 5.98546C15.0675 6.53937 15.5832 7.47579 15.5832 8.50004C15.5832 10.0853 14.3733 11.39 12.8348 11.5246C12.6128 12.2844 12.1513 12.9521 11.5189 13.4282C10.8866 13.9043 10.1173 14.1634 9.32575 14.1667Z" fill="#B1BFCD"/>
<path d="M19.1248 5.66663C18.3882 5.66663 17.6798 5.72329 16.9715 5.83663C17.4532 6.62996 17.7082 7.55079 17.7082 8.49996C17.7082 10.6816 16.3198 12.5941 14.3648 13.3308C13.8607 14.2259 13.1284 14.9714 12.2425 15.4915C11.3567 16.0116 10.3488 16.2877 9.3215 16.2916C8.174 16.2916 7.1115 15.9516 6.20484 15.3708C5.85067 16.5608 5.6665 17.8216 5.6665 19.125V30.1041C5.6665 32.2575 7.409 34 9.56234 34H16.7307C12.8065 32.9091 9.9165 29.1125 9.9165 24.5933V19.89C9.9165 18.02 11.3473 16.5041 13.1182 16.5041H14.3223C16.8298 16.5041 19.224 15.2433 20.7257 13.1041L21.9298 14.8041C22.6807 15.8666 23.8707 16.5041 25.1315 16.5041C26.9023 16.5041 28.3332 18.02 28.3332 19.89V24.5933C28.3332 29.0841 25.4573 32.8808 21.5473 34H28.6873C30.8407 34 32.5832 32.2575 32.5832 30.1041V19.125C32.5832 11.7016 26.5482 5.66663 19.1248 5.66663Z" fill="#B1BFCD"/>
<path d="M14.875 24.0834C16.0486 24.0834 17 23.132 17 21.9584C17 20.7848 16.0486 19.8334 14.875 19.8334C13.7014 19.8334 12.75 20.7848 12.75 21.9584C12.75 23.132 13.7014 24.0834 14.875 24.0834Z" fill="#B1BFCD"/>
<path d="M23.375 24.0834C24.5486 24.0834 25.5 23.132 25.5 21.9584C25.5 20.7848 24.5486 19.8334 23.375 19.8334C22.2014 19.8334 21.25 20.7848 21.25 21.9584C21.25 23.132 22.2014 24.0834 23.375 24.0834Z" fill="#B1BFCD"/>
</g>
</svg>
