<svg width="32" height="34" viewBox="0 0 32 34" fill="none" xmlns="http://www.w3.org/2000/svg">
<path d="M1.83319 34C1.45746 34 1.09713 33.8507 0.831452 33.5851C0.565775 33.3194 0.416519 32.9591 0.416519 32.5833V12.2768C0.413369 10.7762 0.88831 9.31359 1.77247 8.10109C2.65662 6.88859 3.90402 5.98925 5.33377 5.5335L8.36827 4.55883C8.93968 4.37553 9.438 4.01529 9.79121 3.53016C10.1444 3.04504 10.3342 2.46017 10.3332 1.86008V1.41667C10.3332 1.04094 10.4824 0.680609 10.7481 0.414932C11.0138 0.149256 11.3741 0 11.7499 0C12.1256 0 12.4859 0.149256 12.7516 0.414932C13.0173 0.680609 13.1665 1.04094 13.1665 1.41667V1.86008C13.1691 3.0604 12.7895 4.23037 12.0827 5.20053C11.3759 6.17068 10.3786 6.89066 9.23527 7.25617L6.19935 8.23083C5.34166 8.50443 4.59341 9.0441 4.06308 9.77159C3.53275 10.4991 3.24791 11.3766 3.24985 12.2768V32.5833C3.24985 32.9591 3.1006 33.3194 2.83492 33.5851C2.56924 33.8507 2.20891 34 1.83319 34ZM30.1665 34C29.7908 34 29.4305 33.8507 29.1648 33.5851C28.8991 33.3194 28.7499 32.9591 28.7499 32.5833V12.2768C28.7518 11.3766 28.467 10.4991 27.9366 9.77159C27.4063 9.0441 26.658 8.50443 25.8004 8.23083L22.7659 7.25617C21.6223 6.89091 20.6247 6.17104 19.9176 5.20086C19.2106 4.23068 18.8307 3.06058 18.8332 1.86008V1.41667C18.8332 1.04094 18.9824 0.680609 19.2481 0.414932C19.5138 0.149256 19.8741 0 20.2499 0C20.6256 0 20.9859 0.149256 21.2516 0.414932C21.5173 0.680609 21.6665 1.04094 21.6665 1.41667V1.86008C21.6665 3.09542 22.457 4.17917 23.6343 4.55742L26.6674 5.53208C28.0967 5.98874 29.3436 6.88855 30.2274 8.10118C31.1112 9.31381 31.5861 10.7763 31.5832 12.2768V32.5833C31.5832 32.9591 31.4339 33.3194 31.1683 33.5851C30.9026 33.8507 30.5422 34 30.1665 34Z" fill="#B1BFCD"/>
<path d="M7.50137 34C7.30034 34.0004 7.10155 33.9579 6.91821 33.8755C6.73488 33.793 6.57121 33.6724 6.43812 33.5218C6.30502 33.3711 6.20555 33.1938 6.14632 33.0017C6.08709 32.8096 6.06947 32.6071 6.09462 32.4077C6.23098 31.3198 6.45555 30.2448 6.76612 29.1933C7.72804 25.9264 7.7507 22.1354 6.82987 18.7921C6.78048 18.6128 6.76687 18.4256 6.78983 18.2411C6.8128 18.0566 6.87187 17.8784 6.9637 17.7167C7.05552 17.5551 7.17828 17.4131 7.32499 17.2988C7.47169 17.1846 7.63945 17.1004 7.8187 17.051C7.99795 17.0016 8.18517 16.988 8.36968 17.011C8.55419 17.0339 8.73236 17.093 8.89404 17.1848C9.05571 17.2766 9.19772 17.3994 9.31195 17.5461C9.42618 17.6928 9.51039 17.8606 9.55979 18.0398C10.618 21.8762 10.5911 26.2338 9.48187 29.9937C9.21619 30.8981 9.02338 31.8224 8.90529 32.7576C8.86283 33.1002 8.69674 33.4155 8.43823 33.6442C8.17972 33.873 7.84657 33.9995 7.50137 34ZM24.4985 34C24.1536 33.9996 23.8206 33.8732 23.5621 33.6448C23.3036 33.4163 23.1374 33.1013 23.0946 32.759C22.9767 31.8238 22.7839 30.8995 22.518 29.9951C21.4102 26.2353 21.3819 21.8776 22.4401 18.0413C22.4895 17.862 22.5737 17.6942 22.688 17.5475C22.8022 17.4008 22.9442 17.2781 23.1059 17.1862C23.2675 17.0944 23.4457 17.0353 23.6302 17.0124C23.8147 16.9894 24.002 17.003 24.1812 17.0524C24.3605 17.1018 24.5282 17.186 24.6749 17.3003C24.8216 17.4145 24.9444 17.5565 25.0362 17.7182C25.128 17.8798 25.1871 18.058 25.2101 18.2425C25.233 18.427 25.2194 18.6143 25.17 18.7935C24.2492 22.1354 24.2719 25.9278 25.2338 29.1947C25.5455 30.2501 25.7707 31.331 25.9053 32.4091C25.93 32.6084 25.912 32.8107 25.8526 33.0025C25.7932 33.1943 25.6937 33.3713 25.5607 33.5218C25.4276 33.6722 25.2641 33.7926 25.081 33.8751C24.8979 33.9575 24.6994 34.0001 24.4985 34ZM10.3319 14.1667C9.98645 14.1659 9.6532 14.039 9.39478 13.8098C9.13637 13.5806 8.9706 13.2649 8.92866 12.922C8.88671 12.5792 8.97148 12.2328 9.16702 11.948C9.36256 11.6633 9.65539 11.4598 9.99045 11.3758L10.7625 11.1832C11.0448 11.1124 11.2953 10.9493 11.4742 10.7198C11.6531 10.4903 11.7502 10.2076 11.75 9.91667C11.75 9.54094 11.8992 9.18061 12.1649 8.91493C12.4306 8.64926 12.7909 8.5 13.1666 8.5C13.5423 8.5 13.9027 8.64926 14.1684 8.91493C14.434 9.18061 14.5833 9.54094 14.5833 9.91667C14.5833 11.8193 13.2941 13.4697 11.4482 13.9315L10.6761 14.1242C10.5636 14.1528 10.448 14.1671 10.3319 14.1667ZM21.668 14.1667C21.552 14.1671 21.4363 14.1528 21.3238 14.1242L20.5517 13.9315C19.6558 13.7087 18.8602 13.1923 18.292 12.4646C17.7238 11.7369 17.4156 10.8399 17.4166 9.91667C17.4166 9.54094 17.5659 9.18061 17.8316 8.91493C18.0972 8.64926 18.4576 8.5 18.8333 8.5C19.209 8.5 19.5693 8.64926 19.835 8.91493C20.1007 9.18061 20.25 9.54094 20.25 9.91667C20.25 10.5159 20.6565 11.0373 21.2374 11.1832L22.0095 11.3758C22.3445 11.4598 22.6373 11.6633 22.8329 11.948C23.0284 12.2328 23.1132 12.5792 23.0713 12.922C23.0293 13.2649 22.8635 13.5806 22.6051 13.8098C22.3467 14.039 22.0135 14.1659 21.668 14.1667ZM16 31.1667C15.6242 31.1667 15.2639 31.0174 14.9982 30.7517C14.7325 30.4861 14.5833 30.1257 14.5833 29.75V17C14.5833 16.6243 14.7325 16.2639 14.9982 15.9983C15.2639 15.7326 15.6242 15.5833 16 15.5833C16.3757 15.5833 16.736 15.7326 17.0017 15.9983C17.2674 16.2639 17.4166 16.6243 17.4166 17V29.75C17.4166 30.1257 17.2674 30.4861 17.0017 30.7517C16.736 31.0174 16.3757 31.1667 16 31.1667Z" fill="#B1BFCD"/>
</svg>
