<svg width="32" height="34" viewBox="0 0 32 34" fill="none" xmlns="http://www.w3.org/2000/svg">
<path d="M22.9897 34C22.0255 34.0022 21.0908 33.6678 20.3468 33.0547C19.6027 32.4415 19.096 31.5879 18.9139 30.6411L17.4052 22.678C17.2791 22.015 16.6883 21.5333 15.9998 21.5333C15.3113 21.5333 14.7206 22.0136 14.5959 22.6766L13.0872 30.6411C12.9048 31.588 12.3978 32.4416 11.6535 33.0548C10.9092 33.668 9.97432 34.0022 9.01 34C7.98922 34.0044 7.00294 33.6308 6.24123 32.9512C5.47952 32.2716 4.99629 31.3342 4.88467 30.3195L4.29392 24.8667C4.08529 22.9422 3.67892 21.0442 3.08125 19.2029L1.93092 15.6542C0.927394 12.5659 0.416332 9.33889 0.416504 6.09167C0.416504 2.73275 3.1705 0 6.55492 0C8.86409 0 11.0883 0.561 13.4697 1.71558C15.1725 2.5415 16.8286 2.5415 18.53 1.71558C20.9114 0.561 23.1356 0 25.3286 0C28.8292 0 31.5832 2.73275 31.5832 6.09167C31.5832 9.3415 31.0732 12.5587 30.0688 15.6542L28.917 19.2029C28.32 21.0444 27.9136 22.9423 27.7043 24.8667L27.1136 30.3209C27.002 31.3352 26.5189 32.2723 25.7574 32.9516C24.996 33.6309 24.0101 34.0044 22.9897 34ZM15.9998 18.7C16.9904 18.698 17.9506 19.0415 18.7151 19.6715C19.4795 20.3014 20.0002 21.1783 20.1875 22.151L21.6963 30.1141C21.7556 30.4127 21.9173 30.6812 22.1534 30.8733C22.3895 31.0655 22.6853 31.1692 22.9897 31.1667C23.3113 31.1699 23.6228 31.0541 23.8642 30.8414C24.1056 30.6288 24.2599 30.3344 24.2973 30.0149L24.888 24.5622C25.1161 22.4499 25.5652 20.3532 26.2225 18.3302L27.3743 14.7815C28.2866 11.968 28.7498 9.044 28.7498 6.09167C28.7498 4.29533 27.2666 2.83333 25.4448 2.83333C23.5733 2.83333 21.7543 3.30225 19.7668 4.26558C17.2663 5.47683 14.7333 5.47683 12.2343 4.26558C10.2468 3.30225 8.42634 2.83333 6.67109 2.83333C4.73309 2.83333 3.24984 4.29533 3.24984 6.09167C3.24984 9.044 3.71309 11.968 4.62542 14.7801L5.77717 18.3288C6.4345 20.3518 6.88359 22.4499 7.11167 24.5622L7.70242 30.0149C7.73982 30.3344 7.89405 30.6288 8.13544 30.8414C8.37684 31.0541 8.68834 31.1699 9.01 31.1667C9.31427 31.1687 9.60975 31.0647 9.84575 30.8727C10.0817 30.6806 10.2436 30.4124 10.3034 30.1141L11.8122 22.151C11.9997 21.1784 12.5205 20.3017 13.2849 19.6718C14.0493 19.0419 15.0094 18.6982 15.9998 18.7Z" fill="#B1BFCD"/>
<path d="M13.9951 14.2786C13.7432 14.1527 13.4515 14.1319 13.1843 14.2209C12.917 14.3099 12.6961 14.5014 12.5699 14.7532C12.3408 15.2168 11.9862 15.6067 11.5464 15.8787C11.1066 16.1507 10.5993 16.2938 10.0823 16.2917H9.94059C10.5058 13.7049 11.4493 11.1648 13.002 8.71396C13.1529 8.47594 13.203 8.18774 13.1413 7.91277C13.0797 7.63779 12.9114 7.39856 12.6733 7.24771C12.4353 7.09686 12.1471 7.04674 11.8721 7.10837C11.5972 7.17001 11.3579 7.33836 11.2071 7.57638C10.3441 8.93934 9.61894 10.3849 9.04242 11.8915C8.51167 11.2304 8.21788 10.4103 8.20801 9.56254C8.20801 9.28075 8.09607 9.0105 7.89681 8.81124C7.69755 8.61199 7.4273 8.50004 7.14551 8.50004C6.86372 8.50004 6.59346 8.61199 6.39421 8.81124C6.19495 9.0105 6.08301 9.28075 6.08301 9.56254C6.08562 10.4472 6.28547 11.3202 6.66802 12.1179C7.05057 12.9156 7.60619 13.6179 8.29442 14.1738C6.71909 19.7569 7.00809 25.5043 7.28151 30.7516L7.37642 32.633C7.38917 32.9058 7.50652 33.1633 7.70411 33.3519C7.9017 33.5405 8.16434 33.6458 8.43751 33.6459L8.48851 33.6445C8.7699 33.6312 9.03453 33.5068 9.22421 33.2985C9.41388 33.0903 9.51309 32.8152 9.50001 32.5338L9.40367 30.6425C9.19259 26.5895 8.98292 22.4613 9.55667 18.4167H10.0808C10.9928 18.4199 11.8875 18.1674 12.6632 17.6879C13.439 17.2083 14.0648 16.521 14.4697 15.7038C14.5322 15.5791 14.5696 15.4433 14.5796 15.3041C14.5896 15.1649 14.572 15.0252 14.528 14.8928C14.4839 14.7604 14.4141 14.638 14.3227 14.5326C14.2313 14.4273 14.1199 14.3409 13.9951 14.2786ZM25.9163 9.56254C25.9163 9.28075 25.8044 9.0105 25.6051 8.81124C25.4059 8.61199 25.1356 8.50004 24.8538 8.50004C24.572 8.50004 24.3018 8.61199 24.1025 8.81124C23.9033 9.0105 23.7913 9.28075 23.7913 9.56254C23.7913 10.3927 23.4598 11.1733 22.9045 11.7612C22.337 10.3021 21.6301 8.90116 20.7937 7.57779C20.6428 7.33977 20.4036 7.17143 20.1286 7.10979C19.8536 7.04815 19.5654 7.09827 19.3274 7.24913C19.0894 7.39998 18.9211 7.63921 18.8594 7.91418C18.7978 8.18916 18.8479 8.47736 18.9988 8.71538C20.5401 11.1492 21.4808 13.6737 22.0474 16.2421C21.5098 16.1883 20.9906 16.0169 20.5267 15.74C20.0628 15.4631 19.6654 15.0875 19.3628 14.6399C19.2862 14.5221 19.1869 14.4207 19.0708 14.3416C18.9547 14.2624 18.8241 14.2071 18.6865 14.1788C18.5488 14.1505 18.4069 14.1497 18.269 14.1766C18.1311 14.2035 17.9999 14.2575 17.883 14.3354C17.7661 14.4134 17.6658 14.5137 17.5879 14.6307C17.5101 14.7477 17.4562 14.8789 17.4294 15.0168C17.4026 15.1548 17.4034 15.2967 17.4318 15.4343C17.4602 15.5719 17.5156 15.7025 17.5948 15.8185C18.1262 16.6176 18.8469 17.2729 19.6926 17.7261C20.5384 18.1794 21.4831 18.4166 22.4427 18.4167C23.0178 22.4613 22.8068 26.5895 22.5957 30.6425L22.5008 32.5338C22.4724 33.1203 22.9258 33.6175 23.5123 33.6445L23.5633 33.6459C23.8364 33.6458 24.0991 33.5405 24.2967 33.3519C24.4942 33.1633 24.6116 32.9058 24.6243 32.633L24.7193 30.7516C24.9969 25.425 25.2902 19.5855 23.6355 13.9245C24.3376 13.4336 24.9114 12.7811 25.3084 12.0219C25.7054 11.2628 25.9139 10.4192 25.9163 9.56254Z" fill="#B1BFCD"/>
</svg>
