<svg width="25" height="34" viewBox="0 0 25 34" fill="none" xmlns="http://www.w3.org/2000/svg">
<path d="M18.5023 16.718C18.2842 16.412 17.9535 16.2052 17.5829 16.143C17.2123 16.0808 16.8321 16.1684 16.5261 16.3865C16.2201 16.6046 16.0132 16.9354 15.951 17.306C15.8889 17.6766 15.9765 18.0568 16.1946 18.3628L16.8307 19.2539C18.1708 21.131 17.8549 23.8453 16.1238 25.3045C15.6322 25.7278 15.0408 26.0187 14.4055 26.1499C13.7701 26.281 13.1118 26.248 12.4928 26.0539L7.10525 24.3496C4.98167 23.681 3.49984 21.5588 3.49984 19.1901C3.49984 17.6715 4.10475 16.2151 5.15875 15.1965L18.3338 2.45929C18.6039 2.19798 18.7592 1.84005 18.7654 1.46425C18.7717 1.08845 18.6284 0.725562 18.367 0.455417C18.1057 0.185272 17.7478 0.0299988 17.372 0.0237554C16.9962 0.017512 16.6333 0.16081 16.3632 0.422126L3.18817 13.158C1.58592 14.7092 0.666504 16.9065 0.666504 19.1901C0.666504 22.8366 2.9105 25.9972 6.24959 27.0526L11.6372 28.7569C11.7562 28.7951 11.8794 28.8107 11.9998 28.8419V32.5833C11.9998 32.959 12.1491 33.3194 12.4148 33.585C12.6804 33.8507 13.0408 34 13.4165 34C13.7922 34 14.1526 33.8507 14.4182 33.585C14.6839 33.3194 14.8332 32.959 14.8332 32.5833V28.9524C15.9831 28.7383 17.0573 28.228 17.9498 27.472C20.8299 25.041 21.3513 20.7088 19.137 17.6091L18.5023 16.718Z" fill="#B1BFCD"/>
<path d="M8.66639 20.2483C8.3149 20.3808 8.03042 20.6474 7.87553 20.9896C7.72064 21.3318 7.70803 21.7215 7.84047 22.073C7.97292 22.4245 8.23956 22.709 8.58175 22.8638C8.92395 23.0187 9.31365 23.0313 9.66514 22.8989C11.1286 22.3478 11.7916 22.8734 12.2888 23.5236C12.5161 23.8225 12.8529 24.0189 13.2249 24.0695C13.597 24.1201 13.974 24.0208 14.2728 23.7935C14.5717 23.5662 14.7681 23.2295 14.8187 22.8574C14.8693 22.4853 14.77 22.1084 14.5427 21.8095C13.1034 19.9182 11.0166 19.3643 8.66639 20.2483ZM24.5642 3.54865C24.378 3.22245 24.07 2.98337 23.7078 2.8838C23.3456 2.78422 22.9587 2.83226 22.6319 3.0174C22.0114 3.37157 21.3753 3.76965 20.7364 4.20598C20.426 4.41789 20.2126 4.74441 20.143 5.1137C20.0734 5.48299 20.1533 5.8648 20.3652 6.17515C20.5771 6.4855 20.9036 6.69895 21.2729 6.76856C21.6422 6.83817 22.024 6.75822 22.3344 6.54632C22.8855 6.16772 23.4522 5.8123 24.033 5.48098C24.1949 5.38916 24.3371 5.26629 24.4515 5.11942C24.5659 4.97254 24.6502 4.80454 24.6995 4.62504C24.7489 4.44554 24.7623 4.25807 24.7391 4.07337C24.7159 3.88866 24.6565 3.71035 24.5642 3.54865ZM16.842 7.30707C16.2271 7.86807 15.6307 8.45032 15.0612 9.04957C14.8234 9.32535 14.7009 9.68203 14.7189 10.0457C14.7369 10.4094 14.8941 10.7522 15.158 11.0032C15.4218 11.2541 15.7721 11.3939 16.1363 11.3937C16.5004 11.3934 16.8505 11.2531 17.114 11.0017C17.6381 10.4506 18.1864 9.91515 18.7502 9.39948C19.0277 9.14643 19.1933 8.79352 19.2105 8.41839C19.2278 8.04325 19.0954 7.67662 18.8423 7.39915C18.5893 7.12168 18.2363 6.95609 17.8612 6.93883C17.4861 6.92156 17.1194 7.05402 16.842 7.30707ZM11.9984 16.9999C12.2619 17.0003 12.5203 16.9272 12.7445 16.7888C12.9687 16.6504 13.1499 16.4522 13.2677 16.2165C13.5397 15.6711 13.8712 15.1044 14.2509 14.5321C14.3576 14.3772 14.4325 14.2026 14.471 14.0185C14.5096 13.8343 14.5111 13.6444 14.4754 13.4597C14.4398 13.275 14.3677 13.0992 14.2634 12.9427C14.1591 12.7861 14.0247 12.6519 13.868 12.5479C13.7112 12.4438 13.5354 12.372 13.3506 12.3367C13.1658 12.3014 12.9759 12.3032 12.7918 12.342C12.6078 12.3809 12.4333 12.456 12.2786 12.563C12.1239 12.67 11.992 12.8067 11.8907 12.9652C11.4473 13.6325 11.0577 14.3012 10.7333 14.95C10.6255 15.1658 10.5745 15.4056 10.5853 15.6466C10.5961 15.8876 10.6683 16.1219 10.795 16.3272C10.9217 16.5326 11.0987 16.7021 11.3093 16.8198C11.5199 16.9375 11.7571 16.9995 11.9984 16.9999Z" fill="#B1BFCD"/>
</svg>
