<svg width="34" height="20" viewBox="0 0 34 20" fill="none" xmlns="http://www.w3.org/2000/svg">
<path d="M33.5593 8.80825C33.2607 8.4561 26.1237 0.196045 17.0002 0.196045C7.87635 0.196045 0.739737 8.4561 0.440407 8.8086C0.156138 9.14063 -6.32919e-05 9.56335 1.92383e-08 10.0005C6.33304e-05 10.4376 0.156387 10.8602 0.440752 11.1922C0.739737 11.5443 7.87635 19.804 17.0002 19.804C26.1237 19.804 33.2607 11.5436 33.5597 11.1915C33.8439 10.8595 34.0001 10.4369 34 9.99981C34 9.56277 33.8437 9.14015 33.5593 8.80825ZM19.7871 5.15795C20.4006 4.82306 21.2561 5.20732 21.6977 6.01589C22.1392 6.8248 21.9997 7.75214 21.3862 8.08703C20.7731 8.42226 19.9172 8.03766 19.4753 7.22909C19.0341 6.42017 19.1732 5.49284 19.7871 5.15795ZM17.0002 16.8114C10.6269 16.8114 5.26352 11.9169 3.40712 10C4.66072 8.70537 7.51488 6.05421 11.1983 4.46883C10.4539 5.59812 10.0576 6.92122 10.0587 8.27381C10.0587 12.1074 13.1662 15.215 16.9999 15.215C20.8335 15.215 23.9414 12.1074 23.9414 8.27381C23.9414 6.86796 23.5206 5.56189 22.8021 4.46883C26.4856 6.05455 29.3394 8.70537 30.593 10C28.7366 11.9179 23.3731 16.8114 17.0002 16.8114Z" fill="#B1BFCD"/>
</svg>
