<svg width="34" height="32" viewBox="0 0 34 32" fill="none" xmlns="http://www.w3.org/2000/svg">
<path d="M31.4682 14.7813L17.4355 0.750234C16.6638 -0.0213997 15.4065 -0.0213997 14.6349 0.750234C13.8632 1.52187 13.8632 2.77922 14.6349 3.55086L22.0542 10.9702C22.1268 11.0427 22.1843 11.1289 22.2235 11.2238C22.2626 11.3187 22.2826 11.4204 22.2822 11.5231C22.2822 11.723 22.2057 11.9229 22.0542 12.076C21.7496 12.3806 21.2544 12.3806 20.9498 12.076L11.1877 2.31378C10.4394 1.56558 9.13677 1.56558 8.38703 2.31378C7.61539 3.08542 7.61539 4.34277 8.38703 5.11441L18.1493 14.8767C18.2219 14.9492 18.2794 15.0354 18.3186 15.1303C18.3577 15.2252 18.3777 15.3269 18.3773 15.4296C18.3773 15.6295 18.3008 15.8294 18.1493 15.9825C17.8447 16.2871 17.3495 16.2871 17.0449 15.9825L5.33022 4.2678C4.55858 3.49617 3.30123 3.49617 2.52959 4.2678C1.75796 5.03943 1.75796 6.29679 2.52959 7.06842L14.2443 18.7831C14.3169 18.8557 14.3745 18.9419 14.4136 19.0368C14.4528 19.1317 14.4727 19.2334 14.4724 19.3361C14.4724 19.536 14.3959 19.7359 14.2443 19.889C13.9397 20.1936 13.4446 20.1936 13.14 19.889L3.37781 10.1267C2.99203 9.73623 2.48434 9.5425 1.97827 9.5425C1.47066 9.5425 0.964579 9.73616 0.578726 10.122C-0.192909 10.8936 -0.192909 12.151 0.578726 12.9226L13.4649 25.8088C13.5676 25.9114 13.6397 26.0406 13.6731 26.1819C13.7064 26.3231 13.6998 26.4709 13.6539 26.6086C13.6081 26.7461 13.525 26.8681 13.4139 26.9611C13.3027 27.0541 13.1679 27.1142 13.0244 27.1349L5.18349 28.2549C3.80269 28.4517 2.76089 29.6528 2.76089 31.0477C2.76089 31.4788 3.11079 31.8287 3.54189 31.8287H23.7365C25.614 31.8287 27.379 31.0977 28.7067 29.77L31.4683 27.0085C33.1005 25.3763 34.0002 23.2035 34.0002 20.8949C34.0002 18.5863 33.1004 16.4136 31.4682 14.7813Z" fill="#B1BFCD"/>
</svg>
