<svg width="30" height="34" viewBox="0 0 30 34" fill="none" xmlns="http://www.w3.org/2000/svg">
<path d="M20.3056 5.4145L17.2357 4.13242C16.1547 3.76975 15.3727 2.62792 15.3727 1.41667C15.3727 1.04094 15.2235 0.680609 14.9578 0.414932C14.6921 0.149256 14.3318 0 13.9561 0C13.5804 0 13.22 0.149256 12.9543 0.414932C12.6887 0.680609 12.5394 1.04094 12.5394 1.41667C12.5394 3.84908 14.102 6.07042 16.2383 6.78158L19.2105 8.02683C21.3263 8.91377 23.132 10.4076 24.3997 12.3197C25.6674 14.2318 26.3403 16.4766 26.3335 18.7708C26.3335 19.3517 26.2797 19.9226 26.1975 20.485C25.8077 20.4015 25.454 20.1979 25.186 19.9027L24.9848 19.7016C23.4407 18.0469 20.7249 18.0455 19.1807 19.7016C18.4724 20.4595 17.1932 20.4595 16.4848 19.7016C15.2778 18.4067 13.2945 18.1702 11.7857 18.904C13.1089 16.0182 13.4319 13.2132 13.4546 11.305C13.4985 11.3121 13.541 11.3333 13.5835 11.3333C13.9116 11.3342 14.2298 11.2211 14.4839 11.0135C14.7379 10.8058 14.912 10.5164 14.9763 10.1946C15.0407 9.87291 14.9914 9.5388 14.8369 9.24937C14.6823 8.95994 14.4321 8.73313 14.1289 8.60767L12.4927 7.92767C11.976 7.71315 11.5346 7.35014 11.2244 6.88459C10.9142 6.41905 10.7492 5.87192 10.7502 5.3125V1.41667C10.7502 1.04094 10.6009 0.680609 10.3352 0.414932C10.0696 0.149256 9.70922 0 9.3335 0C8.95777 0 8.59744 0.149256 8.33176 0.414932C8.06609 0.680609 7.91683 1.04094 7.91683 1.41667V5.3125C7.91683 7.30008 8.94533 9.1035 10.5972 10.1249C10.7459 12.359 10.5957 18.4577 5.26341 22.8097C2.4485 25.109 0.833496 28.5926 0.833496 32.368V32.5833C0.833496 32.9591 0.982752 33.3194 1.24843 33.5851C1.5141 33.8507 1.87444 34 2.25016 34H7.06116C7.70433 34 8.28516 33.5594 8.43958 32.9063L8.91983 30.8522C8.96317 30.6216 9.06672 30.4066 9.21998 30.2289C9.37324 30.0513 9.57076 29.9173 9.7925 29.8407C10.0102 29.7612 10.2451 29.7411 10.4732 29.7824C10.7012 29.8238 10.9142 29.925 11.0902 30.0758L11.3437 30.2869C12.8681 31.5687 14.7604 32.3328 16.7474 32.4688C18.7344 32.6048 20.7132 32.1056 22.398 31.0434C24.4772 29.7427 26.1901 27.9329 27.3746 25.7853C28.5591 23.6377 29.1759 21.2234 29.1668 18.7708C29.1748 15.9181 28.3373 13.127 26.7602 10.7498C25.1831 8.37269 22.937 6.51611 20.3056 5.4145Z" fill="#B1BFCD"/>
</svg>
