<svg width="32" height="34" viewBox="0 0 32 34" fill="none" xmlns="http://www.w3.org/2000/svg">
<path d="M7.50016 9.91671C8.28257 9.91671 8.91683 9.28244 8.91683 8.50004C8.91683 7.71764 8.28257 7.08337 7.50016 7.08337C6.71776 7.08337 6.0835 7.71764 6.0835 8.50004C6.0835 9.28244 6.71776 9.91671 7.50016 9.91671Z" fill="#B1BFCD"/>
<path d="M24.5002 9.91671C25.2826 9.91671 25.9168 9.28244 25.9168 8.50004C25.9168 7.71764 25.2826 7.08337 24.5002 7.08337C23.7178 7.08337 23.0835 7.71764 23.0835 8.50004C23.0835 9.28244 23.7178 9.91671 24.5002 9.91671Z" fill="#B1BFCD"/>
<path d="M12.0959 8.96755C11.9154 8.92211 11.7278 8.91267 11.5437 8.93978C11.3596 8.96688 11.1826 9.02999 11.0229 9.1255C10.8632 9.22101 10.7239 9.34705 10.6129 9.49642C10.5019 9.64579 10.4214 9.81557 10.3761 9.99605C9.94539 11.7088 8.18306 13.1651 5.98156 12.6438C4.73206 12.3463 3.68231 11.298 3.37064 10.0343C3.04339 8.7083 3.40606 7.36246 4.34247 6.43455C5.85406 4.93571 6.36972 2.82913 5.68689 0.936463C5.62565 0.759009 5.52976 0.595496 5.40478 0.455425C5.27979 0.315354 5.12822 0.201519 4.95887 0.120536C4.78951 0.0395534 4.60575 -0.00696292 4.41825 -0.0163094C4.23076 -0.0256558 4.04329 0.00235404 3.86671 0.0660924C3.69014 0.129831 3.528 0.228027 3.38971 0.354973C3.25142 0.48192 3.13974 0.635086 3.06115 0.805569C2.98257 0.976053 2.93865 1.16045 2.93196 1.34806C2.92526 1.53566 2.95591 1.72273 3.02214 1.89838C3.32672 2.74271 3.06747 3.70888 2.34781 4.42288C0.69739 6.05913 0.0513904 8.4108 0.62089 10.7129C1.18897 13.015 3.03631 14.8552 5.32706 15.3992L5.37947 15.4091C7.33022 20.1351 7.39397 25.5 5.49139 30.2558L4.76889 32.055C4.62893 32.4038 4.63329 32.794 4.78101 33.1396C4.92872 33.4853 5.2077 33.7581 5.55656 33.898C5.90542 34.038 6.29558 34.0336 6.64123 33.8859C6.98688 33.7382 7.25968 33.4592 7.39964 33.1104L8.12214 31.3098C10.1454 26.2091 10.2481 20.5473 8.41114 15.3765C9.55127 15.1019 10.594 14.5191 11.4252 13.6919C12.2565 12.8646 12.8443 11.8248 13.1244 10.686C13.2157 10.3217 13.1587 9.93609 12.9658 9.61386C12.773 9.29164 12.4601 9.05917 12.0959 8.96755ZM19.9046 8.96755C20.0849 8.92193 20.2725 8.91237 20.4566 8.9394C20.6407 8.96644 20.8176 9.02954 20.9773 9.12509C21.1369 9.22064 21.2761 9.34675 21.3869 9.49621C21.4977 9.64567 21.5779 9.81553 21.623 9.99605C22.0536 11.7088 23.816 13.1651 26.0189 12.6438C27.2684 12.3463 28.3181 11.298 28.6298 10.0343C28.9571 8.7083 28.5944 7.36246 27.658 6.43455C26.1464 4.93571 25.6307 2.82913 26.3136 0.936463C26.3748 0.759009 26.4707 0.595496 26.5957 0.455425C26.7207 0.315354 26.8722 0.201519 27.0416 0.120536C27.2109 0.0395534 27.3947 -0.00696292 27.5822 -0.0163094C27.7697 -0.0256558 27.9572 0.00235404 28.1337 0.0660924C28.3103 0.129831 28.4724 0.228027 28.6107 0.354973C28.749 0.48192 28.8607 0.635086 28.9393 0.805569C29.0179 0.976053 29.0618 1.16045 29.0685 1.34806C29.0752 1.53566 29.0445 1.72273 28.9783 1.89838C28.6737 2.74271 28.933 3.70888 29.6526 4.42288C31.3031 6.05913 31.9491 8.4108 31.3796 10.7129C30.8115 13.015 28.9641 14.8552 26.6734 15.3992L26.621 15.4091C24.6674 20.1351 24.6051 25.5 26.5076 30.2572L27.2301 32.0564C27.3075 32.2304 27.349 32.4182 27.3521 32.6086C27.3552 32.799 27.3199 32.9881 27.2483 33.1646C27.1767 33.3411 27.0702 33.5013 26.9353 33.6356C26.8004 33.77 26.6397 33.8758 26.463 33.9467C26.2862 34.0176 26.097 34.0521 25.9066 34.0482C25.7162 34.0443 25.5286 34.0021 25.3549 33.924C25.1812 33.8459 25.025 33.7337 24.8957 33.5939C24.7664 33.4541 24.6665 33.2896 24.6022 33.1104L23.8797 31.3098C21.8565 26.2091 21.7538 20.5473 23.5907 15.3765C22.4504 15.1018 21.4076 14.5188 20.5763 13.6913C19.7451 12.8638 19.1574 11.8236 18.8775 10.6845C18.7861 10.3207 18.843 9.9354 19.0356 9.61344C19.2282 9.29147 19.5407 9.05916 19.9046 8.96755Z" fill="#B1BFCD"/>
</svg>
