<svg width="24" height="34" viewBox="0 0 24 34" fill="none" xmlns="http://www.w3.org/2000/svg">
<path d="M10.583 34V24.7917C10.583 24.4159 10.7323 24.0556 10.9979 23.7899C11.2636 23.5243 11.624 23.375 11.9997 23.375C12.3754 23.375 12.7357 23.5243 13.0014 23.7899C13.2671 24.0556 13.4163 24.4159 13.4163 24.7917V34H10.583Z" fill="#B1BFCD"/>
<path d="M21.8172 17.5242L21.0381 15.9092C15.8389 17.3825 8.16057 17.3825 2.96141 15.9092L2.18224 17.5242C2.09724 17.6942 2.02641 17.8783 1.94141 18.0483C4.80307 19.9467 8.76974 23.035 11.2347 25.5425C11.4472 25.7408 11.7164 25.8542 11.9997 25.8542C12.2831 25.8542 12.5522 25.7408 12.7647 25.5425C15.2297 23.035 19.1964 19.9467 22.0581 18.0483C21.9731 17.8783 21.9022 17.6942 21.8172 17.5242Z" fill="#B1BFCD"/>
<path d="M4.15569 34C3.8731 34.0002 3.59692 33.9158 3.36264 33.7578C3.12837 33.5998 2.94671 33.3753 2.84102 33.1132L1.99952 31.0307C0.268357 26.7439 0.22019 21.7997 1.86636 17.4633L2.49819 15.7987C4.18261 11.3631 3.71369 6.01379 1.30394 2.16895C1.10443 1.85053 1.03959 1.46589 1.12367 1.09965C1.20776 0.733419 1.43389 0.415588 1.75231 0.216078C2.07074 0.0165693 2.45538 -0.0482744 2.82161 0.0358123C3.18785 0.119899 3.50568 0.346028 3.70519 0.664454C6.61361 5.30404 7.16611 11.4892 5.14877 16.806L4.51694 18.4705C3.14136 22.093 3.18244 26.3925 4.62886 29.971L5.47036 32.0535C5.55709 32.2686 5.5897 32.5017 5.56531 32.7323C5.54092 32.963 5.46029 33.1841 5.33048 33.3763C5.20068 33.5685 5.02568 33.7259 4.82084 33.8346C4.61601 33.9434 4.38761 34.0002 4.15569 34ZM19.8439 34C19.6119 34 19.3835 33.9431 19.1787 33.8341C18.9738 33.7252 18.7989 33.5676 18.6692 33.3753C18.5396 33.183 18.4591 32.9617 18.4349 32.731C18.4108 32.5003 18.4436 32.2672 18.5306 32.0521L19.3721 29.9696C20.8185 26.3911 20.8596 22.0915 19.484 18.4691L18.8522 16.8045C16.8334 11.4892 17.3859 5.30262 20.2958 0.663037C20.4999 0.354942 20.8163 0.1388 21.1775 0.0607232C21.5387 -0.0173532 21.9162 0.0488179 22.2293 0.245119C22.5424 0.44142 22.7664 0.75231 22.8535 1.11146C22.9407 1.47061 22.884 1.84959 22.6956 2.16754C20.2859 6.01237 19.8169 11.3617 21.5014 15.7987L22.1332 17.4633C23.7794 21.7997 23.7312 26.7439 22 31.0307L21.1585 33.1132C21.0525 33.3751 20.8708 33.5993 20.6366 33.7573C20.4024 33.9153 20.1264 33.9998 19.8439 34Z" fill="#B1BFCD"/>
</svg>
