<svg width="34" height="34" viewBox="0 0 34 34" fill="none" xmlns="http://www.w3.org/2000/svg">
<path d="M16.8941 0C9.80506 0 4.03781 5.80267 4.03781 12.9384C4.03781 13.6411 3.84089 14.3268 3.46689 14.9232L0.323307 19.9481C0.123532 20.2645 0.012218 20.6287 0.00094963 21.0028C-0.0103187 21.3768 0.0788703 21.7471 0.259235 22.075C0.439599 22.4029 0.704547 22.6764 1.0265 22.8672C1.34846 23.058 1.71566 23.159 2.08989 23.1597H4.03781V26.486C4.03705 27.3987 4.3983 28.2744 5.04233 28.9211C5.68635 29.5677 6.56056 29.9326 7.47322 29.9356C7.85572 29.9356 8.21697 29.8761 8.47906 29.7783L10.767 29.0771V32.5833C10.767 32.9591 10.9162 33.3194 11.1819 33.5851C11.4476 33.8507 11.8079 34 12.1836 34H24.2961C24.6719 34 25.0322 33.8507 25.2979 33.5851C25.5636 33.3194 25.7128 32.9591 25.7128 32.5833V25.7734C25.7128 23.8298 26.3021 21.9583 27.4156 20.3617C28.9391 18.1849 29.7544 15.5912 29.7503 12.9342C29.7503 5.80267 23.9831 0 16.8941 0ZM13.0266 26.0242C12.8482 25.8933 12.6417 25.8057 12.4237 25.7683C12.2056 25.7309 11.9818 25.7448 11.77 25.8088L7.65031 27.0682C7.62764 27.0739 7.49447 27.0937 7.47322 27.1008C7.39301 27.1007 7.31363 27.0845 7.23973 27.0533C7.16583 27.0221 7.09889 26.9765 7.04283 26.9191C6.98677 26.8617 6.94272 26.7937 6.91324 26.7191C6.88376 26.6445 6.86945 26.5648 6.87114 26.4846V23.5691L12.4061 20.4085C13.8893 19.5571 15.6063 19.6449 16.9961 20.6451C18.3886 21.6467 19.0191 23.2461 18.6847 24.9248L17.4395 31.1667H13.6003V27.1632C13.6004 26.9417 13.5485 26.7233 13.4489 26.5255C13.3492 26.3276 13.2046 26.156 13.0266 26.0242ZM25.0909 18.7397C23.6482 20.8013 22.8756 23.2572 22.8781 25.7734V31.1667H20.3266L21.4628 25.4788C21.7376 24.1448 21.6179 22.7597 21.1183 21.4927C20.6186 20.2257 19.7607 19.1317 18.6493 18.3444C17.5502 17.5428 16.2415 17.0787 14.8829 17.0087C13.5244 16.9388 12.1749 17.2661 10.9993 17.9506L6.29881 20.6337C6.05941 20.44 5.76238 20.3314 5.45447 20.3249H3.43006L5.86956 16.4262C6.52406 15.3793 6.87114 14.1737 6.87114 12.9342C6.87114 7.36525 11.3676 2.83333 16.8941 2.83333C22.4205 2.83333 26.917 7.36525 26.917 12.9342C26.921 15.0113 26.2832 17.0389 25.0909 18.7397Z" fill="#B1BFCD"/>
</svg>
