<svg width="34" height="33" viewBox="0 0 34 33" fill="none" xmlns="http://www.w3.org/2000/svg">
<path d="M11.3335 21.25C12.5071 21.25 13.4585 20.2986 13.4585 19.125C13.4585 17.9514 12.5071 17 11.3335 17C10.1599 17 9.2085 17.9514 9.2085 19.125C9.2085 20.2986 10.1599 21.25 11.3335 21.25Z" fill="#B1BFCD"/>
<path d="M31.5647 15.531C31.7262 14.137 31.875 12.5489 31.875 11.4566C31.875 3.62671 22.7517 0.708374 17 0.708374C13.2685 0.708374 10.5754 2.71012 9.67017 3.48787C6.83683 3.65079 2.125 5.45421 2.125 11.4566C2.125 12.5645 2.27233 14.1455 2.43242 15.5324C1.71534 15.821 1.10076 16.3171 0.667403 16.9571C0.234047 17.5972 0.00165489 18.3521 0 19.125C0.00294551 20.1039 0.374909 21.0456 1.04165 21.7622C1.70838 22.4788 2.62085 22.9177 3.59692 22.9911C5.5165 28.5629 10.7936 32.5834 17 32.5834C23.2064 32.5834 28.4835 28.5643 30.4031 22.9911C31.3791 22.9177 32.2916 22.4788 32.9584 21.7622C33.6251 21.0456 33.9971 20.1039 34 19.125C33.9984 18.3515 33.7657 17.5961 33.3318 16.9557C32.8979 16.3153 32.2826 15.8192 31.5647 15.531ZM28.5812 21.7133L28.5784 21.7204V21.7246C27.1249 26.7609 22.4896 30.4584 17 30.4584C11.0146 30.4584 6.04775 26.0625 5.11275 20.3278L6.52658 15.3822C7.78883 14.9813 10.6165 13.8465 11.8547 11.451C13.7601 13.2515 18.0299 15.4615 27.5315 15.5791L28.8887 20.3207C28.8139 20.7906 28.7112 21.2556 28.5812 21.7133Z" fill="#B1BFCD"/>
<path d="M22.6665 21.25C23.8401 21.25 24.7915 20.2986 24.7915 19.125C24.7915 17.9514 23.8401 17 22.6665 17C21.4929 17 20.5415 17.9514 20.5415 19.125C20.5415 20.2986 21.4929 21.25 22.6665 21.25Z" fill="#B1BFCD"/>
<path d="M19.8038 24.3808C19.0478 25.1006 18.044 25.502 17.0002 25.502C15.9564 25.502 14.9526 25.1006 14.1966 24.3808C13.9935 24.1851 13.721 24.078 13.439 24.0832C13.157 24.0884 12.8886 24.2054 12.6928 24.4084C12.4971 24.6115 12.39 24.884 12.3952 25.1661C12.4004 25.4481 12.5174 25.7165 12.7205 25.9122C13.9005 27.0512 15.4504 27.6193 17.0002 27.6193C18.55 27.6193 20.0999 27.0512 21.28 25.9122C21.4742 25.7145 21.5836 25.4488 21.5849 25.1717C21.5862 24.8946 21.4793 24.6278 21.287 24.4283C21.0946 24.2288 20.832 24.1122 20.555 24.1033C20.278 24.0944 20.0085 24.194 19.8038 24.3808Z" fill="#B1BFCD"/>
</svg>
