<svg width="60" height="19" viewBox="0 0 60 19" fill="none" xmlns="http://www.w3.org/2000/svg">
<path fill-rule="evenodd" clip-rule="evenodd" d="M34.4531 0.27478V17.8184H44.1894H49.2598L51.6694 15.0921L54.1004 17.8184H59.3508L54.3514 12.2276L59.2823 6.68183H54.2366L51.8737 9.38722L49.4181 6.68183H44.1894H38.5772V4.18521H44.1894V0.27478H34.4531ZM44.1894 6.68183L49.1449 12.2509L44.1894 17.8184V13.8981H38.5772V10.4446H44.1894V6.68183Z" fill="#FF5A00"/>
<path fill-rule="evenodd" clip-rule="evenodd" d="M30.3434 0.275635V7.4546H30.2978C29.3885 6.40952 28.252 6.0453 26.9341 6.0453C24.2337 6.0453 22.1993 7.88239 21.4852 10.3093C20.6706 7.63466 18.5702 5.99526 15.4563 5.99526C12.9269 5.99526 10.9303 7.13017 9.88723 8.97997V6.68146H4.65979V4.18565H10.3651V0.275635H0V17.8184H4.65979V10.4446H9.30439C9.16133 11.0117 9.08981 11.5944 9.09152 12.1792C9.09152 15.837 11.8867 18.4074 15.4555 18.4074C18.4554 18.4074 20.434 16.9977 21.4795 14.4314H17.4858C16.946 15.2037 16.5359 15.4317 15.4559 15.4317C14.2041 15.4317 13.1238 14.3391 13.1238 13.0454H21.2555C21.6083 15.9514 23.8723 18.457 26.9797 18.457C28.3201 18.457 29.5472 17.7979 30.2974 16.6843H30.3425V17.8209H34.4511V0.275635H30.3434ZM13.2534 10.4971C13.513 9.38233 14.3772 8.6539 15.4559 8.6539C16.6437 8.6539 17.464 9.35978 17.6794 10.4971H13.2534ZM25.3952 12.2649C25.3952 13.7382 26.3361 15.1487 27.85 15.1487C29.5079 15.1487 30.224 13.7571 30.224 12.2649C30.224 10.6907 29.5477 9.17685 27.85 9.17685C26.2139 9.17685 25.3952 10.6899 25.3952 12.2649Z" fill="#29007C"/>
</svg>
