<svg width="69" height="11" viewBox="0 0 69 11" fill="none" xmlns="http://www.w3.org/2000/svg">
<path d="M12.0946 0.619507L9.91211 3.58501H21.8071C22.4086 3.58501 22.4011 3.81151 22.1071 4.21201C21.8086 4.61701 21.3091 5.31751 21.0046 5.73001C20.8501 5.93851 20.5711 6.31801 21.4951 6.31801H26.3596L27.8011 4.35901C28.6951 3.14551 27.8791 0.621007 24.6826 0.621007L12.0946 0.619507V0.619507Z" fill="#D80613"/>
<path fill-rule="evenodd" clip-rule="evenodd" d="M43.7425 6.31651H28.405L32.599 0.619507H38.8675L36.4645 3.88651H39.262L41.668 0.619507H47.9365L43.7425 6.31651ZM13.414 4.32301L9.02953 10.281H19.7215C23.2495 10.281 25.2175 7.88101 25.822 7.05001H18.535C17.611 7.05001 17.89 6.67051 18.0445 6.46201L19.1545 4.95001C19.4485 4.55101 19.456 4.32301 18.8545 4.32301H13.414ZM31.759 10.281L34.1365 7.04851H27.865L25.4875 10.281H31.759ZM40.8265 10.281L43.204 7.04851H36.9355L34.558 10.281H40.8265ZM0.0820312 8.32351H9.31903L8.81503 9.00901H0.0820312V8.32351ZM10.258 7.04851H0.0820312V7.73401H9.75253L10.258 7.04851ZM0.0820312 9.59851H8.38153L7.87903 10.281H0.0820312V9.59851ZM59.1925 9.00901H68.3965V8.32351H59.698L59.1925 9.00901ZM68.3965 10.281H58.258L58.759 9.59851H68.3965V10.281ZM68.3965 7.04851H60.6355L60.1315 7.73551H68.3965V7.04851ZM56.6185 0.619507L52.4245 6.31651H45.781L49.978 0.619507H56.6185ZM44.563 7.97551C44.7865 7.67551 45.244 7.04851 45.244 7.04851H59.4865L57.109 10.2795H47.041C44.4715 10.2795 43.777 9.04051 44.563 7.97551Z" fill="#D80613"/>
</svg>
