<svg width="60" height="16" viewBox="0 0 60 16" fill="none" xmlns="http://www.w3.org/2000/svg">
<path fill-rule="evenodd" clip-rule="evenodd" d="M8.47161 5.31158C8.61364 4.7431 8.68483 4.24547 8.75568 3.67734C8.82652 3.10853 8.82652 2.61124 8.68483 2.1848C8.25839 0.621407 7.05025 0.123779 5.41568 0.123779C2.85737 0.123779 0.867542 2.11361 0.370253 4.67192C-0.269408 7.51429 0.583474 9.22005 3.49703 9.22005C5.48686 9.22005 7.33432 8.50954 7.97398 6.37768H5.70008C5.27364 7.15937 4.77602 7.51463 3.85229 7.51463C2.5733 7.51463 2.64449 6.44886 2.85737 5.31158H8.47161ZM23.8211 0.337339H21.1916C21.1208 0.905813 21.0496 1.47429 20.9075 2.04276L18.7757 12.2048H21.334L22.3289 7.72785C22.6842 8.7231 23.537 9.22005 24.674 9.22005C27.1611 9.22005 28.7957 6.87531 29.293 4.67192C29.7906 2.32683 28.9377 0.123779 26.237 0.123779C25.3842 0.123779 24.3184 0.621406 23.6787 1.33191L23.8211 0.337339ZM22.9686 4.67225C23.1818 3.46412 24.0347 1.82954 25.3845 1.82954C27.0191 1.82954 26.9479 3.32208 26.6635 4.67225C26.3794 5.95124 25.8109 7.51463 24.1764 7.51463C22.8262 7.51463 22.6842 5.8092 22.9686 4.67225ZM30.5873 1.49885C30.6374 1.15097 30.6979 0.730755 30.7855 0.337339H33.1306L32.8465 1.90073C33.6994 0.55022 34.8364 0.195305 36.1153 0.266152L35.6889 2.54005H34.5519C34.1258 2.54005 33.4862 2.82446 33.1306 3.17971C32.775 3.60581 32.6333 4.10344 32.4909 4.67191L31.5672 8.93598H29.0797L30.5014 2.04276C30.5287 1.90609 30.556 1.71683 30.5873 1.49926L30.5873 1.49907L30.5873 1.49895L30.5873 1.49885ZM43.5767 4.49726L43.5767 4.49719L43.5767 4.49711L43.5767 4.49704L43.5767 4.49698L43.5768 4.49693L43.5768 4.49689C43.6303 4.22956 43.6839 3.96232 43.7194 3.67734C43.7194 3.10853 43.7194 2.61124 43.577 2.1848C43.2214 0.621407 41.9425 0.123779 40.3791 0.123779C37.7499 0.123779 35.8313 2.11361 35.2625 4.67192C34.6936 7.51429 35.4757 9.22005 38.4604 9.22005C40.4499 9.22005 42.2269 8.50954 42.9374 6.37768H40.5923C40.1658 7.15937 39.6686 7.51463 38.816 7.51463C37.4655 7.51463 37.537 6.44886 37.8208 5.31158H43.4347C43.4703 5.02843 43.5235 4.76286 43.5767 4.4974L43.5767 4.49736L43.5767 4.49732L43.5767 4.49726ZM40.0235 1.82954C38.816 1.82954 38.3896 2.68208 38.1764 3.60615H41.0896C41.3025 2.68242 41.2316 1.82954 40.0235 1.82954ZM51.678 2.61158C51.9628 0.763779 50.6119 0.124118 48.7648 0.124118C47.2726 0.124118 44.9275 0.905813 44.5719 2.68242C44.1519 4.64231 45.5248 5.01645 47.0598 5.43474L47.1303 5.45395C47.6275 5.5248 48.7648 5.8092 48.6225 6.52005C48.4801 7.15971 47.9119 7.51497 47.2011 7.51497C46.4906 7.51497 45.9221 7.08886 46.0642 6.4492H43.6482C43.2926 8.43937 44.8557 9.22039 46.8462 9.22039C48.4092 9.22039 50.8967 8.22581 51.3231 6.37802C51.7541 4.4384 50.0414 3.96287 48.6903 3.58772C47.8137 3.34433 47.0893 3.14319 47.2011 2.61191C47.3435 2.0431 47.6991 1.82988 48.4092 1.82988C48.9781 1.82988 49.4753 2.0431 49.4045 2.68276L51.678 2.61158ZM56.7947 0.124118C58.6425 0.124118 59.9926 0.763779 59.7086 2.61158L57.4343 2.68276C57.5058 2.0431 57.0079 1.82988 56.4397 1.82988C55.7289 1.82988 55.374 2.0431 55.2316 2.61191C55.1198 3.14318 55.8442 3.34432 56.7207 3.5877C58.0718 3.96286 59.7843 4.43838 59.353 6.37802C58.9272 8.22581 56.4397 9.22039 54.876 9.22039C52.8862 9.22039 51.3231 8.43937 51.6781 6.4492H54.0947C53.9526 7.08886 54.5214 7.51497 55.2316 7.51497C55.9418 7.51497 56.5106 7.15971 56.653 6.52005C56.7947 5.8092 55.6581 5.5248 55.1608 5.45395L55.091 5.43494C53.5551 5.01657 52.1824 4.64263 52.6025 2.68242C52.9574 0.905813 55.3025 0.124118 56.7947 0.124118ZM5.06042 1.82954C3.92347 1.82954 3.42585 2.68208 3.21263 3.60615H6.19737C6.41025 2.68242 6.33941 1.82954 5.06042 1.82954Z" fill="#0C0E0F"/>
<path d="M9.3961 10.997L6.83779 15.0475H5.91406L11.4571 5.73805L8.40118 0.337036H13.4469L14.513 2.61127L15.508 0.337036H20.553L17.8527 4.6011L21.0507 10.4991H16.2181L14.9388 8.08314L11.2436 15.0475H10.3907C10.3907 15.0475 11.2436 13.3421 11.812 12.276L11.5988 12.2045L9.75135 15.0475H8.96966L10.7463 11.7072L10.4622 11.5648L8.25915 15.0472H7.5483L9.60932 11.1384L9.3961 10.997Z" fill="#CD5241"/>
</svg>
