<svg width="50" height="27" viewBox="0 0 50 27" fill="none" xmlns="http://www.w3.org/2000/svg">
<path fill-rule="evenodd" clip-rule="evenodd" d="M31.5946 0.938127C33.2543 2.26864 34.6403 4.07867 35.6671 6.0685C35.6887 6.11048 35.71 6.1526 35.7314 6.19486L34.7378 6.19715C33.6744 4.23583 32.2059 2.56105 30.5053 1.32222V6.20689L29.6217 6.2089V1.32222C27.9149 2.56563 26.442 4.24801 25.3777 6.21864L24.3825 6.22093C24.4082 6.16993 24.434 6.11907 24.46 6.0685C25.4765 4.09844 27.0227 2.26048 28.6632 0.933686C29.1378 0.878528 29.6208 0.849731 30.1103 0.849731C30.6126 0.849731 31.1079 0.879961 31.5946 0.938127ZM28.497 25.4691C27.5586 24.7053 26.6659 23.7848 25.9079 22.7814C26.1884 22.6642 26.4691 22.5473 26.75 22.431C27.5926 23.5109 28.5655 24.4509 29.6217 25.2166V21.2639C29.9159 21.1469 30.2106 21.0304 30.5053 20.9148V25.2166C32.1192 24.0464 33.5391 22.4696 34.5957 20.6079C34.6621 20.4911 34.7268 20.3732 34.7901 20.2543H32.2138C33.0045 19.9533 33.7977 19.6582 34.5937 19.3705H35.2245C35.2646 19.2817 35.3037 19.1924 35.3423 19.1026C35.7089 18.9727 36.0762 18.8443 36.4441 18.7178C36.3625 18.938 36.2762 19.1556 36.1857 19.3705H40.7662C40.7913 19.3672 40.8142 19.3682 40.8358 19.3712C40.6699 19.6626 40.4926 19.9467 40.3042 20.2229L35.7808 20.2543C35.6482 20.5221 35.5083 20.785 35.3621 21.0427C34.393 22.7504 33.0145 24.3099 31.5778 25.487C31.0966 25.5439 30.6069 25.5735 30.1103 25.5735C29.5635 25.5735 29.0251 25.5378 28.497 25.4691ZM19.377 19.3705H23.9414C23.2537 17.74 22.8206 15.9525 22.7231 14.0658L23.605 14.0621C23.7037 15.8732 24.1302 17.5876 24.804 19.1474C24.6095 19.2844 24.4155 19.4225 24.2225 19.5618C23.9066 19.7894 23.5926 20.0202 23.2805 20.2543H19.9376C19.7387 19.9682 19.5516 19.6734 19.377 19.3705ZM29.6217 16.0396V14.0371L30.5053 14.0335V15.5225C30.2099 15.6931 29.9152 15.8653 29.6217 16.0396Z" fill="#F08519"/>
<path fill-rule="evenodd" clip-rule="evenodd" d="M9.98238 6.56721L40.2536 6.49758C44.1989 6.48841 45.1781 9.4142 42.8248 12.1619C47.2189 11.9557 48.9517 12.5964 49.9787 15.1509C41.2264 15.8238 28.3092 21.2636 16.9917 26.3123C21.0448 21.853 26.8761 17.6502 34.4852 13.7039L0 13.8469L0.74255 13.3053L37.0784 12.9881L37.9404 13.6665C37.3491 13.6851 36.7577 13.7036 36.1665 13.7222C30.6543 16.7142 25.3789 19.8387 21.2648 23.6129C30.7288 19.4982 38.8711 15.8338 48.3159 14.4747C48.0991 12.7777 44.9128 12.7418 41.3022 12.9434C43.4606 10.2318 44.0602 7.47896 40.1652 7.41721L9.4851 6.92982L9.98238 6.56721ZM2.51547 12.0126L3.04384 11.6271L34.7794 11.1787L35.9692 12.1151L2.51547 12.0126ZM4.78596 10.3566L5.39341 9.91377L32.8678 9.67408L33.9781 10.5479L4.78596 10.3566ZM7.04183 8.71162L7.58897 8.31262L30.6408 7.92136L32.0977 9.06807L7.04183 8.71162Z" fill="#E67016"/>
<path fill-rule="evenodd" clip-rule="evenodd" d="M46.1489 13.2634C46.3936 13.2826 46.5858 13.495 46.5779 13.7376C46.5702 13.9803 46.3653 14.1615 46.1206 14.1423C45.8759 14.1232 45.6838 13.9108 45.6916 13.6681C45.6994 13.4255 45.9042 13.2442 46.1489 13.2634Z" fill="#E76128"/>
<path fill-rule="evenodd" clip-rule="evenodd" d="M23.5323 23.6847C25.4378 24.881 27.6922 25.5735 30.109 25.5735C35.6263 25.5735 40.2997 21.9675 41.8974 16.9868C42.2351 16.9232 42.6091 16.8523 42.8492 16.7755C41.2918 22.3407 36.1779 26.4231 30.109 26.4231C27.3607 26.4231 24.8085 25.5858 22.6934 24.153C22.9759 24.0108 23.261 23.8534 23.5323 23.6847Z" fill="#E67016"/>
<path fill-rule="evenodd" clip-rule="evenodd" d="M23.5323 23.6847C25.4378 24.881 27.6922 25.5735 30.109 25.5735C35.6263 25.5735 40.2997 21.9675 41.8974 16.9868C42.2351 16.9232 42.6091 16.8523 42.8492 16.7755C41.2918 22.3407 36.1779 26.4231 30.109 26.4231C27.3607 26.4231 24.8085 25.5858 22.6934 24.153C22.9759 24.0108 23.261 23.8534 23.5323 23.6847Z" stroke="#E67016" stroke-width="0.5"/>
<path fill-rule="evenodd" clip-rule="evenodd" d="M17.7609 14.0636C17.9652 17.0622 19.2403 19.7669 21.2075 21.7998C21.0109 22.0153 20.8036 22.2169 20.6029 22.3977C18.4838 20.2107 17.1142 17.2953 16.9082 14.0636H17.7609Z" fill="#E67016"/>
<path fill-rule="evenodd" clip-rule="evenodd" d="M30.1105 0C34.8523 0 39.0108 2.49269 41.3457 6.23711C40.9837 6.18281 40.6237 6.15616 40.2571 6.1318C38.0192 2.9384 34.3093 0.849713 30.1105 0.849713C25.8755 0.849713 22.1379 2.9745 19.9065 6.21461L18.9082 6.18424C21.2493 2.4692 25.391 0 30.1105 0Z" fill="#E67016"/>
</svg>
