<svg width="60" height="19" viewBox="0 0 60 19" fill="none" xmlns="http://www.w3.org/2000/svg">
<path fill-rule="evenodd" clip-rule="evenodd" d="M57.4817 0.0712891H43.5154L39.7422 17.9148L53.6546 17.9298L54.5978 13.5238H47.5357L49.4661 4.39497H56.4295L57.4817 0.0712891Z" fill="#292D78"/>
<path fill-rule="evenodd" clip-rule="evenodd" d="M0.00976562 18.0606C8.74599 14.9804 26.3269 6.2405 59.9907 5.98889L58.7271 11.9299C45.5289 11.116 25.4751 11.8699 0.00976562 18.0606Z" fill="#D8232A"/>
<path fill-rule="evenodd" clip-rule="evenodd" d="M14.8873 0.0407715H21.5119L18.7516 12.625C18.065 15.7561 15.3715 17.9282 12.1661 17.9367L6.21289 17.9522L7.28393 12.5952H10.4058C11.5169 12.5952 12.4508 11.8344 12.6754 10.7464L14.8873 0.0407715ZM19.11 17.9211L23.0182 0.100111H29.7484L33.8309 8.32445L35.6416 0.0859602H42.1445L38.2436 17.9226H31.8452L27.8154 9.48766L25.8842 17.9075L19.11 17.9211Z" fill="#292D78"/>
</svg>
