<svg width="11" height="11" viewBox="0 0 11 11" fill="none" xmlns="http://www.w3.org/2000/svg">
<path d="M3.71593 9.76389C3.67347 9.8066 3.62298 9.84049 3.56736 9.86362C3.51175 9.88675 3.45212 9.89865 3.39189 9.89865C3.33166 9.89865 3.27203 9.88675 3.21642 9.86362C3.16081 9.84049 3.11032 9.8066 3.06785 9.76389L0.480099 7.17568C0.351213 7.04675 0.278809 6.87192 0.278809 6.68962C0.278809 6.50732 0.351213 6.33248 0.480099 6.20355L0.804141 5.87951C0.933066 5.75063 1.1079 5.67822 1.2902 5.67822C1.4725 5.67822 1.64734 5.75063 1.77627 5.87951L3.39189 7.49514L7.75751 3.12951C7.88644 3.00063 8.06128 2.92822 8.24358 2.92822C8.42588 2.92822 8.60071 3.00063 8.72964 3.12951L9.05368 3.45356C9.18257 3.58248 9.25497 3.75732 9.25497 3.93962C9.25497 4.12192 9.18257 4.29675 9.05368 4.42568L3.71593 9.76389Z" fill="white"/>
</svg>
