<svg width="22" height="22" viewBox="0 0 22 22" fill="none" xmlns="http://www.w3.org/2000/svg">
<path fill-rule="evenodd" clip-rule="evenodd" d="M1.83398 6.87504C1.83398 7.47372 2.2166 7.98304 2.75065 8.1718H20.1673C20.7014 7.98304 21.084 7.47372 21.084 6.87504V3.20837C21.084 2.44898 20.4684 1.83337 19.709 1.83337H3.20898C2.44959 1.83337 1.83398 2.44898 1.83398 3.20837V6.87504ZM20.1673 9.08847H2.75065V17.875C2.75065 19.647 4.18707 21.0834 5.95898 21.0834H16.959C18.7309 21.0834 20.1673 19.647 20.1673 17.875V9.08847ZM8.70898 11H14.209C14.4621 11 14.6673 11.2052 14.6673 11.4584C14.6673 11.7115 14.4621 11.9167 14.209 11.9167H8.70898C8.45585 11.9167 8.25065 11.7115 8.25065 11.4584C8.25065 11.2052 8.45585 11 8.70898 11Z" fill="white"/>
</svg>
