<svg width="17" height="16" viewBox="0 0 17 16" fill="none" xmlns="http://www.w3.org/2000/svg">
<g clip-path="url(#clip0_263_15687)">
<path d="M10.4924 8.66406L9.15236 10.0086C8.60895 10.5539 7.65283 10.5657 7.09767 10.0086L5.75758 8.66406L0.94458 13.4927C1.12374 13.5755 1.32127 13.625 1.53127 13.625H14.7188C14.9288 13.625 15.1262 13.5756 15.3053 13.4927L10.4924 8.66406Z" fill="#4A5865"/>
<path d="M14.7188 2.375H1.53125C1.32125 2.375 1.12372 2.42444 0.944625 2.50728L6.08766 7.66738C6.088 7.66772 6.08841 7.66778 6.08875 7.66813C6.08896 7.66835 6.0891 7.66863 6.08916 7.66894L7.76144 9.34675C7.93906 9.52438 8.311 9.52438 8.48862 9.34675L10.1606 7.66922C10.1606 7.66922 10.161 7.66847 10.1613 7.66813C10.1613 7.66813 10.1621 7.66772 10.1624 7.66738L15.3053 2.50725C15.1262 2.42438 14.9288 2.375 14.7188 2.375ZM0.274562 3.16287C0.181875 3.35031 0.125 3.55838 0.125 3.78125V12.2188C0.125 12.4416 0.181812 12.6497 0.274531 12.8371L5.09587 8.00016L0.274562 3.16287ZM15.9754 3.16281L11.1542 8.00016L15.9754 12.8372C16.0681 12.6498 16.125 12.4417 16.125 12.2188V3.78125C16.125 3.55831 16.0681 3.35025 15.9754 3.16281Z" fill="#4A5865"/>
</g>
<defs>
<clipPath id="clip0_263_15687">
<rect width="16" height="16" fill="white" transform="translate(0.125)"/>
</clipPath>
</defs>
</svg>
