<svg width="16" height="16" viewBox="0 0 16 16" fill="none" xmlns="http://www.w3.org/2000/svg">
<path fill-rule="evenodd" clip-rule="evenodd" d="M10.2033 12.2163V14.3245C10.2033 14.4631 10.1796 14.5961 10.1361 14.7198H11.1222C12.2098 14.7198 13.0914 13.8349 13.0914 12.7433V6.6968L14.0135 7.50669C14.1772 7.65045 14.426 7.6338 14.5693 7.4695C14.7125 7.3052 14.6959 7.05547 14.5322 6.91171L8.23094 1.37759C8.08246 1.24718 7.86075 1.24718 7.71226 1.37759L1.41099 6.91171C1.2473 7.05547 1.23071 7.3052 1.37394 7.4695C1.51717 7.6338 1.76597 7.65045 1.92966 7.50669L2.85181 6.6968V12.7433C2.85181 13.8349 3.73343 14.7198 4.82096 14.7198H5.80713C5.76359 14.5961 5.7399 14.4631 5.7399 14.3245V12.2163C5.7399 11.1247 6.73404 10.2398 7.82157 10.2398H8.12163C9.20916 10.2398 10.2033 11.1247 10.2033 12.2163ZM6.37807 12.224C6.37807 11.4818 6.97757 10.88 7.71709 10.88H8.2272C8.96672 10.88 9.56622 11.4818 9.56622 12.224V14.272C9.56622 14.5194 9.36638 14.72 9.11988 14.72H6.82441C6.5779 14.72 6.37807 14.5194 6.37807 14.272V12.224Z" fill="#4A5865"/>
</svg>
