<svg width="16" height="16" viewBox="0 0 16 16" fill="none" xmlns="http://www.w3.org/2000/svg">
<path fill-rule="evenodd" clip-rule="evenodd" d="M6.00939 7.41005L8.23393 9.76037C8.47511 10.0152 8.91191 10.0516 9.39852 9.81146C10.6369 9.29738 11.049 9.17206 11.2842 9.42058L13.8413 12.1223C14.1436 12.4417 14.0629 12.9736 13.7249 13.3307C11.9698 15.1851 9.117 15.1851 7.36186 13.3307L2.58503 8.28381C0.83868 6.43871 0.83868 3.45368 2.58503 1.60858C2.93018 1.24392 3.46022 1.15419 3.77387 1.48558L6.331 4.1873C6.55264 4.42147 6.43379 4.85763 5.94989 6.15719C5.72493 6.66447 5.76098 7.14759 6.00939 7.41005Z" fill="#4A5865"/>
</svg>
