<svg width="16" height="16" viewBox="0 0 16 16" fill="none" xmlns="http://www.w3.org/2000/svg">
<path fill-rule="evenodd" clip-rule="evenodd" d="M0.400391 8.88002C0.400391 9.60904 0.991375 10.2 1.72039 10.2H2.60039C3.32941 10.2 3.92039 9.60904 3.92039 8.88002V1.84002C3.92039 1.111 3.32941 0.52002 2.60039 0.52002H1.72039C0.991375 0.52002 0.400391 1.111 0.400391 1.84002V8.88002ZM4.80039 8.88002C4.80039 9.39683 4.62219 9.87202 4.32387 10.2475C5.27924 11.6171 5.87558 13.1886 6.11482 14.9677C6.13761 15.1372 6.25654 15.2782 6.41978 15.3291C8.06503 15.8427 9.00041 15.0266 8.98495 13.1655C8.98195 12.8042 8.96543 12.4831 8.93025 11.992C8.85166 10.895 8.8579 10.5957 8.97966 10.3942C9.0967 10.2006 9.47662 10.1345 10.3752 10.3066C10.6587 10.3609 10.9432 10.4225 11.2582 10.4964C11.3 10.5062 11.4198 10.5354 11.5739 10.5729C11.9323 10.6601 12.476 10.7924 12.655 10.8314C13.1435 10.9378 13.4939 10.9828 13.8021 10.9637C14.637 10.9121 15.08 10.3698 15.1565 9.33095C15.2914 7.50142 14.8748 3.82659 14.4592 2.473C14.0346 1.08982 13.294 0.567709 11.5163 0.536175C10.3733 0.5159 8.61545 0.5159 6.23444 0.536226C5.62662 0.550486 5.0758 0.669217 4.58583 0.8912C4.72337 1.17848 4.80039 1.50025 4.80039 1.84002V8.88002Z" fill="#C4CDD5"/>
</svg>
