<svg width="18" height="18" viewBox="0 0 18 18" fill="none" xmlns="http://www.w3.org/2000/svg">
<path fill-rule="evenodd" clip-rule="evenodd" d="M0.599609 8.99998C0.599609 13.6392 4.36042 17.4 8.99961 17.4C13.6388 17.4 17.3996 13.6392 17.3996 8.99998C17.3996 4.36078 13.6388 0.599976 8.99961 0.599976C4.36042 0.599976 0.599609 4.36078 0.599609 8.99998ZM7.41634 5.39998H8.59961V4.19998C8.59961 3.97906 8.7787 3.79998 8.99961 3.79998C9.22052 3.79998 9.39961 3.97906 9.39961 4.19998V5.39998H11.3996C11.6205 5.39998 11.7996 5.57906 11.7996 5.79998C11.7996 6.02089 11.6205 6.19998 11.3996 6.19998H7.41634C7.19542 6.19998 7.01634 6.37906 7.01634 6.59998V8.20074C7.01634 8.42166 7.19542 8.60074 7.41634 8.60074H10.5996C11.2624 8.60074 11.7996 9.138 11.7996 9.80075V11.4015C11.7996 12.0643 11.2624 12.6015 10.5996 12.6015H9.39961V13.8C9.39961 14.0209 9.22052 14.2 8.99961 14.2C8.7787 14.2 8.59961 14.0209 8.59961 13.8V12.6015H6.59961C6.3787 12.6015 6.19961 12.4224 6.19961 12.2015C6.19961 11.9806 6.3787 11.8015 6.59961 11.8015H8.96429C8.97593 11.8005 8.98771 11.8 8.99961 11.8C9.01151 11.8 9.02329 11.8005 9.03493 11.8015H10.5996C10.8205 11.8015 10.9996 11.6224 10.9996 11.4015V9.80075C10.9996 9.57983 10.8205 9.40074 10.5996 9.40074H7.41634C6.7536 9.40074 6.21634 8.86349 6.21634 8.20074V6.59998C6.21634 5.93723 6.7536 5.39998 7.41634 5.39998Z" fill="#637381"/>
</svg>
