<svg width="23" height="13" viewBox="0 0 23 13" fill="none" xmlns="http://www.w3.org/2000/svg">
<path fill-rule="evenodd" clip-rule="evenodd" d="M2.48274 1.69565H21.388C21.6653 1.69565 21.9312 1.60633 22.1273 1.44733C22.3234 1.28834 22.4335 1.07268 22.4335 0.847826C22.4335 0.622969 22.3234 0.407316 22.1273 0.248318C21.9312 0.0893193 21.6653 0 21.388 0H2.48274C2.20547 0 1.93955 0.0893193 1.74349 0.248318C1.54743 0.407316 1.43729 0.622969 1.43729 0.847826C1.43729 1.07268 1.54743 1.28834 1.74349 1.44733C1.93955 1.60633 2.20547 1.69565 2.48274 1.69565ZM21.388 11.3043H2.48274C2.20547 11.3043 1.93955 11.3937 1.74349 11.5527C1.54743 11.7117 1.43729 11.9273 1.43729 12.1522C1.43729 12.377 1.54743 12.5927 1.74349 12.7517C1.93955 12.9107 2.20547 13 2.48274 13H21.388C21.6653 13 21.9312 12.9107 22.1273 12.7517C22.3234 12.5927 22.4335 12.377 22.4335 12.1522C22.4335 11.9273 22.3234 11.7117 22.1273 11.5527C21.9312 11.3937 21.6653 11.3043 21.388 11.3043Z" fill="#4F4F4F"/>
<path d="M2.48274 5.70762H21.388C21.6653 5.70762 21.9312 5.79694 22.1273 5.95594C22.3234 6.11493 22.4335 6.33059 22.4335 6.55544C22.4335 6.7803 22.3234 6.99595 22.1273 7.15495C21.9312 7.31395 21.6653 7.40327 21.388 7.40327H2.48274C2.20547 7.40327 1.93955 7.31395 1.74349 7.15495C1.54743 6.99595 1.43729 6.7803 1.43729 6.55544C1.43729 6.33059 1.54743 6.11493 1.74349 5.95594C1.93955 5.79694 2.20547 5.70762 2.48274 5.70762Z" fill="#4F4F4F"/>
</svg>
