<svg width="18" height="18" viewBox="0 0 18 18" fill="none" xmlns="http://www.w3.org/2000/svg">
<path fill-rule="evenodd" clip-rule="evenodd" d="M15.2316 2.85811C15.0207 2.64723 14.6788 2.64723 14.4679 2.85811L9.42793 7.89811C9.21704 8.109 9.21704 8.45091 9.42793 8.66179C9.63881 8.87267 9.98072 8.87267 10.1916 8.66179L15.2316 3.62179C15.4425 3.41091 15.4425 3.069 15.2316 2.85811ZM14.1298 5.67667C13.8315 5.67667 13.5898 5.91843 13.5898 6.21667V12.2064C13.5898 12.9185 12.9874 13.5 12.2398 13.5H5.93977C5.1921 13.5 4.58977 12.9185 4.58977 12.2064V5.79353C4.58977 5.08138 5.1921 4.49995 5.93977 4.49995H11.8036C12.1018 4.49995 12.3436 4.25818 12.3436 3.95995C12.3436 3.66172 12.1018 3.41995 11.8036 3.41995H5.93977C4.59947 3.41995 3.50977 4.48072 3.50977 5.79353V12.2064C3.50977 13.5192 4.59947 14.58 5.93977 14.58H12.2398C13.5801 14.58 14.6698 13.5192 14.6698 12.2064V6.21667C14.6698 5.91843 14.428 5.67667 14.1298 5.67667Z" fill="#919EAB"/>
</svg>
