<svg width="45" height="28" viewBox="0 0 45 28" fill="none" xmlns="http://www.w3.org/2000/svg">
<path d="M20.6123 6.56953C20.7123 6.70843 20.8028 6.85451 20.898 6.9982C21.6309 6.13259 22.4074 5.30531 23.2245 4.51961C23.0054 4.08616 22.7911 3.65031 22.5863 3.20488C22.3014 2.55862 21.934 1.95244 21.4933 1.40162C21.2711 1.1306 21.0239 0.881245 20.7551 0.656848C20.6044 0.534679 20.4453 0.423441 20.2789 0.323975C20.1122 0.745454 19.9527 1.17412 19.7741 1.58362C19.5621 2.0985 19.2907 2.58943 19.0525 3.08754L18.5072 4.14363C19.2842 4.88295 19.9891 5.69528 20.6123 6.56953Z" fill="url(#paint0_linear_668_115)"/>
<path d="M20.4159 0H20.3821L20.4062 0.01703C20.4089 0.0110544 20.4121 0.00535149 20.4159 0V0Z" fill="white"/>
<path d="M6.27692 10.2521C6.57458 11.0423 6.85081 11.8326 7.13418 12.6157C7.61043 12.8025 8.08669 12.9965 8.56294 13.2024C8.41437 12.1762 8.39038 11.1356 8.4915 10.1036C8.58839 9.01848 8.77558 7.94346 9.0511 6.88981C8.81297 6.74133 8.57485 6.59525 8.33672 6.44917C7.70092 6.05643 7.03417 5.71158 6.38646 5.32842C6.05785 5.14402 5.72923 4.95483 5.41014 4.74888L5.03867 4.52856C5.06445 5.37243 5.16486 6.21232 5.33871 7.03828C5.56887 8.13219 5.88254 9.20664 6.27692 10.2521Z" fill="#B4DDE3"/>
<path d="M7.76055 21.2975C7.91771 21.2233 8.07487 21.1514 8.2368 21.0844C9.47584 20.5531 10.7807 20.193 12.1159 20.0139C12.0278 19.9277 11.9444 19.8439 11.8611 19.7529C11.3651 19.2432 10.9111 18.6938 10.5038 18.1101C10.3109 17.8347 10.1299 17.5497 9.95846 17.2576C9.90131 17.157 9.83701 17.0588 9.78224 16.9558C9.67747 16.7594 9.5846 16.5583 9.49173 16.3547C9.19194 15.703 8.95279 15.0248 8.77735 14.3287C8.35348 14.0605 7.92247 13.8027 7.48432 13.5552C7.18904 13.3876 6.88662 13.2272 6.5842 13.0763C6.32702 12.947 6.06509 12.82 5.80315 12.7003L5.62455 12.6165C3.85765 11.7735 1.92883 11.4071 0 11.1389C0.438153 12.0154 0.9025 12.8847 1.40257 13.7133C2.01693 14.7311 2.6313 15.7153 3.30758 16.6589C3.98363 17.5997 4.72696 18.4897 5.53168 19.3218C6.23166 20.0279 6.97616 20.6878 7.76055 21.2975Z" fill="url(#paint1_linear_668_115)"/>
<path d="M10.4878 14.131C10.5116 14.3705 10.5402 14.5932 10.5736 14.8231C10.614 15.0914 10.6593 15.3596 10.7164 15.6254C10.7736 15.8912 10.8426 16.2001 10.926 16.4851C10.9688 16.636 11.026 16.7821 11.0784 16.9305C11.1734 17.1929 11.2815 17.4502 11.4022 17.7016C11.5166 17.9423 11.6437 18.1765 11.7832 18.4033C11.9659 18.7109 12.1696 19.0054 12.3928 19.2846C12.5577 19.4954 12.7375 19.6939 12.931 19.8785L13.0072 19.9503L13.2453 19.936C13.9843 19.9219 14.723 19.974 15.4528 20.0916C15.4004 19.9288 15.3528 19.7659 15.317 19.6127C15.2638 19.4042 15.2256 19.1921 15.2027 18.9781C15.2027 18.9637 15.2027 18.9493 15.2027 18.9373L15.1885 18.8344C15.1885 18.8224 15.1885 18.8128 15.1885 18.8008C15.1885 18.7889 15.1885 18.7122 15.1765 18.6667C15.1556 18.4783 15.1452 18.2888 15.1456 18.0992C15.1456 18.0633 15.1456 18.0273 15.1456 17.9914V17.5651C15.1456 17.4813 15.1599 17.3975 15.167 17.3113L15.1813 17.1556C15.2047 16.8824 15.2469 16.6112 15.3075 16.3438C15.5505 15.2787 16.0309 14.2829 16.7125 13.4318C17.243 12.7846 17.8445 12.1998 18.5056 11.6884C18.639 11.1469 18.8125 10.6161 19.0247 10.1007C19.1708 9.73447 19.3378 9.37706 19.5247 9.03019C19.5057 8.98708 19.4843 8.94877 19.4652 8.90806C19.2795 8.51052 19.0771 8.11539 18.8532 7.72983C18.4668 7.06686 18.0422 6.42716 17.5816 5.81401L17.4602 5.65117C17.403 5.57693 17.3435 5.50509 17.2863 5.43325C17.1863 5.30393 17.0863 5.17461 16.9815 5.05008C16.6315 4.6286 16.2672 4.22628 15.879 3.82875C15.4909 3.43122 15.0861 3.06243 14.6622 2.69603C14.2383 2.32963 13.8097 1.98957 13.3334 1.6543C13.0953 1.48667 12.8786 1.31185 12.6429 1.149L12.4667 1.02687C12.4071 0.981371 12.3476 0.94066 12.3119 0.909528C12.2381 0.847264 12.1547 0.768236 12.0571 0.689209C12.0571 0.689209 12.0571 0.689209 12.0571 0.703578L12.0309 0.804158L11.9785 1.00771L11.8785 1.41482L11.6832 2.22426C11.5499 2.76068 11.4451 3.3019 11.3141 3.83594C11.0951 4.88245 10.8879 5.91938 10.7355 6.94914L10.7212 7.03535C10.6998 7.17903 10.6807 7.32511 10.6617 7.4688C10.6426 7.61249 10.6188 7.77533 10.5998 7.9286C10.5021 8.69732 10.4283 9.46364 10.3878 10.2252C10.3417 11.2739 10.3528 12.3244 10.4212 13.3719C10.4426 13.6281 10.4616 13.8748 10.4878 14.131Z" fill="url(#paint2_linear_668_115)"/>
<path d="M12.028 0.654785L12.0666 0.688845C12.0695 0.678504 12.0695 0.66756 12.0666 0.657218C12.0606 0.660536 12.0538 0.662069 12.0469 0.661638C12.0401 0.661207 12.0335 0.658831 12.028 0.654785Z" fill="white"/>
<path d="M32.7139 7.82081L32.7377 8.32132L32.7734 9.0158L33.0116 8.90564C33.3807 8.7404 33.7569 8.58714 34.1308 8.42669C34.2403 7.99563 34.357 7.56697 34.4975 7.14309C34.6618 6.66414 34.8166 6.20674 34.9737 5.73018C35.1224 5.254 35.2269 4.76497 35.2857 4.26937C35.3727 3.51104 35.3511 2.74408 35.2214 1.99194C34.9999 2.14521 34.7785 2.30566 34.5618 2.4709C34.1855 2.73911 33.8093 3.00972 33.4473 3.29949C32.9711 3.67786 32.4948 4.07779 32.0448 4.48011C32.3545 5.40132 32.559 6.35498 32.6544 7.3227C32.6734 7.48794 32.6996 7.66515 32.7139 7.82081Z" fill="#5EBFC5"/>
<path d="M43.4784 22.1032C43.1593 21.9092 42.814 21.7607 42.4806 21.5907C42.1498 21.4169 41.8095 21.2618 41.4615 21.1261L40.4185 20.7214C40.0589 20.6184 39.7041 20.5035 39.3493 20.3957C39.1515 20.3272 38.9495 20.272 38.7444 20.2305C38.7301 20.2305 38.7182 20.2568 38.7039 20.2712L38.0134 20.925C37.7586 21.1285 37.5038 21.3321 37.2442 21.5308C36.9888 21.732 36.7199 21.9153 36.4394 22.0792C36.1701 22.2548 35.891 22.4147 35.6035 22.5582C34.4755 23.1534 33.2746 23.597 32.0316 23.8777C31.2313 24.064 30.4175 24.1857 29.598 24.2417C29.4329 24.5133 29.254 24.7763 29.0622 25.0296C28.8808 25.2613 28.6868 25.4827 28.4812 25.6929C29.0289 25.8965 29.5837 26.0785 30.1481 26.2413C31.963 26.7119 33.8143 27.0268 35.6821 27.1825C36.1584 27.2112 36.618 27.24 37.0918 27.2471L37.8062 27.216L38.161 27.1969L38.5111 27.1466L39.2254 27.0316C39.4636 26.9741 39.685 26.9119 39.9136 26.8448C40.1441 26.7827 40.3694 26.7026 40.5875 26.6053C40.8042 26.5119 41.0304 26.4353 41.24 26.3228C42.0951 25.9118 42.8816 25.3697 43.5713 24.7159C43.9105 24.3945 44.2287 24.0513 44.5238 23.6885C44.6928 23.4778 44.8571 23.2527 45 23.0323C44.4857 22.721 43.9856 22.3953 43.4784 22.1032Z" fill="url(#paint3_linear_668_115)"/>
<path d="M20.1832 24.2352C19.9974 24.1849 19.8117 24.1346 19.6259 24.0748C19.0779 23.8967 18.5521 23.6557 18.0591 23.3563C17.7427 23.1653 17.4431 22.9474 17.1637 22.7049C17.078 22.6307 16.9923 22.5541 16.9089 22.4655C16.7444 22.302 16.5901 22.1285 16.4469 21.9458C16.3612 21.838 16.2803 21.7303 16.2088 21.6177C16.0112 21.5842 15.8135 21.5555 15.6159 21.5339L15.3778 21.5124C15.0825 21.486 14.7872 21.4669 14.4919 21.4573C14.2848 21.4573 14.0752 21.4573 13.8657 21.4573C13.6561 21.4573 13.487 21.4573 13.2965 21.4573C11.8552 21.5211 10.4284 21.7755 9.05311 22.214C8.93643 22.2523 8.81499 22.2859 8.70545 22.3266C8.51733 22.3912 8.33159 22.4679 8.14347 22.5373C7.8601 22.6451 7.57673 22.7552 7.29336 22.875C7.00999 22.9947 6.7671 23.0977 6.50516 23.227C5.89101 23.5007 5.29523 23.8143 4.72159 24.1658C5.68456 25.124 6.8353 25.8702 8.10061 26.357C9.50555 26.9078 11.0153 27.0203 12.4393 26.9844C13.8954 26.9697 15.3444 26.7767 16.7541 26.4097C18.1312 26.0372 19.4138 25.3744 20.5165 24.4651L20.6284 24.3741C20.6284 24.3741 20.6284 24.3573 20.6284 24.3478L20.5046 24.3214L20.1832 24.2352Z" fill="url(#paint4_linear_668_115)"/>
<path d="M4.40451 24.3641L4.44737 24.3377L4.40689 24.3042L4.40451 24.3641Z" fill="white"/>
<path d="M4.4183 23.9134L4.45164 23.8895L4.42069 23.856L4.4183 23.9134Z" fill="white"/>
<path d="M21.4278 7.8779C21.1897 8.27303 20.973 8.67296 20.7754 9.07528C20.6206 9.39858 20.4801 9.72905 20.3467 10.0619C20.2896 10.2104 20.2301 10.3565 20.1753 10.505L20.5277 10.3014C20.7254 10.1865 20.9254 10.0763 21.1278 9.96853C21.2445 9.90627 21.3659 9.84161 21.4802 9.78174C21.7041 9.66679 21.9303 9.54226 22.1565 9.44647L22.7232 9.19023L22.8304 9.14233C23.109 9.0202 23.3829 8.90286 23.6686 8.79988C23.8591 8.72804 24.0544 8.65859 24.2663 8.59633L24.4735 8.53167L24.6354 8.62506L24.8069 8.72325C25.6571 9.19066 26.4808 9.70554 27.2738 10.2655C27.7074 10.5679 28.1067 10.9172 28.4645 11.3072L28.7931 11.6664C29.1121 11.3249 29.4612 11.0131 29.8361 10.7349H29.8528C30.0909 10.5457 30.3457 10.3613 30.5981 10.1841C30.8505 10.0068 31.1196 9.87513 31.3791 9.72187C31.4165 8.96203 31.4062 8.20058 31.3482 7.44205C31.3172 7.13312 31.3053 6.8218 31.2696 6.51288L31.1267 5.59329C31.1101 5.50468 31.0863 5.41847 31.0696 5.32986C31.0124 5.04249 30.9458 4.75991 30.8696 4.47732C30.8076 4.23785 30.7481 4.02471 30.6743 3.802C30.66 3.7541 30.6433 3.70621 30.6291 3.66071C30.5457 3.42123 30.4338 3.18176 30.3433 2.94228C30.2861 2.7962 30.2052 2.66927 30.1385 2.53038C30.0718 2.3932 29.9979 2.2597 29.9171 2.13045C29.64 1.6534 29.285 1.22674 28.8669 0.868408C28.4006 1.03587 27.9523 1.25008 27.5286 1.50781C27.2905 1.64431 27.0524 1.81195 26.8143 1.96521C26.5761 2.11848 26.3571 2.30048 26.1308 2.4753C25.6823 2.82778 25.2523 3.20347 24.8426 3.60084C24.6854 3.74692 24.5378 3.90019 24.3878 4.05345C24.2377 4.20672 24.0877 4.36717 23.9401 4.5324C23.8472 4.63777 23.7496 4.74075 23.6567 4.84372C23.5638 4.9467 23.54 4.98502 23.4805 5.05207C22.7963 5.8468 22.1693 6.68949 21.6041 7.57376C21.5469 7.65997 21.4874 7.77492 21.4278 7.8779Z" fill="url(#paint5_linear_668_115)"/>
<path d="M31.1951 11.9989C31.1523 12.0396 31.1118 12.0851 31.0665 12.1234C30.7065 12.4615 30.3639 12.818 30.0402 13.1915C30.3254 13.5825 30.5832 13.993 30.8117 14.42C30.9308 14.6595 31.0499 14.8822 31.1427 15.1384C31.2166 15.318 31.2832 15.5024 31.3451 15.6892C31.5143 16.2196 31.6237 16.7675 31.6714 17.3224C31.7023 17.701 31.7023 18.0814 31.6714 18.46C31.6714 18.5055 31.6595 18.5534 31.6571 18.5989C31.6404 18.7569 31.6214 18.915 31.5952 19.0778C31.569 19.2407 31.5404 19.3915 31.5071 19.5568C31.3429 20.2793 31.086 20.9772 30.7427 21.633C30.6093 21.8725 30.4712 22.0832 30.3307 22.3036C30.2498 22.4185 30.2045 22.5119 30.0926 22.6436L30.0045 22.7562L30.7189 22.5167C30.9927 22.4281 31.2594 22.3251 31.5285 22.2317C31.7976 22.1383 32.0548 22.021 32.3167 21.9084C32.5786 21.7959 32.8334 21.6833 33.0811 21.5516C33.3287 21.4199 33.5859 21.3121 33.8264 21.1684L34.5408 20.7326C34.7789 20.5961 34.9885 20.4069 35.2171 20.2536C35.4451 20.1015 35.6616 19.9326 35.8648 19.7483L35.9386 19.6837C36.1196 19.5256 36.3029 19.3676 36.4863 19.2047L36.6601 19.0275L37.0792 18.5965L37.3054 18.3737C37.434 18.2516 37.5579 18.1343 37.6745 17.9954C37.8555 17.7798 38.0413 17.5667 38.2294 17.356C38.4203 17.1496 38.6 16.933 38.7675 16.707L39.2914 16.0628C39.9541 15.1485 40.5282 14.1726 41.0059 13.1484C41.4801 12.1138 41.8626 11.0392 42.1489 9.93697L42.3514 9.1012C42.4085 8.82101 42.468 8.53843 42.5157 8.25585C42.58 7.8631 42.63 7.4536 42.6562 7.05846C40.57 7.0505 38.5037 7.46675 36.5815 8.28219C36.1553 8.46898 35.7433 8.68211 35.3361 8.90962C35.0647 9.06049 34.7956 9.21854 34.5313 9.38857C34.267 9.5586 34.0193 9.72144 33.7693 9.89626C33.7216 9.92979 33.6716 9.96092 33.624 9.99684L32.9239 10.5021L32.7572 10.6386L32.281 11.0314C32.1929 11.1032 32.1024 11.1727 32.0119 11.2421C31.8844 11.3386 31.7619 11.4417 31.6452 11.551C31.5618 11.6349 31.4785 11.7139 31.3951 11.7905L31.1951 11.9989Z" fill="url(#paint6_linear_668_115)"/>
<path d="M20.8452 23.8337L20.9095 23.7188C20.9285 23.6853 20.9428 23.6517 20.9619 23.6206L20.9785 23.5943C20.9785 23.5775 20.9952 23.5583 21.0047 23.544L21.0643 23.4602C21.0881 23.4218 21.1143 23.3859 21.1405 23.3476C21.1667 23.3093 21.2357 23.2063 21.2881 23.1393C21.3405 23.0722 21.3905 23.0123 21.4429 22.9477C21.4953 22.883 21.5072 22.8663 21.5429 22.8255C21.94 22.3792 22.3894 21.9827 22.8812 21.6449C23.3618 21.3037 23.8756 21.0125 24.4147 20.7756C24.4838 20.7469 24.5528 20.7229 24.6219 20.699C24.8076 20.6295 24.9957 20.5649 25.1886 20.5098L25.2458 20.4906C25.441 20.4356 25.6363 20.3925 25.8339 20.347L26.1006 20.2871L26.3388 20.2296L26.4435 20.311C26.7126 20.5218 26.9579 20.7325 27.2056 20.9409L27.3294 21.0462L27.8914 21.506L28.1295 21.6928C28.1581 21.6186 28.1866 21.5491 28.2176 21.4821C28.2485 21.415 28.2866 21.2905 28.32 21.1971L28.4724 20.79L28.5414 20.6056C28.6343 20.335 28.7105 20.0668 28.7796 19.801C28.7962 19.7339 28.8129 19.6692 28.8272 19.6046C28.8415 19.5399 28.8605 19.4681 28.8724 19.3986C29.1077 18.2944 29.0377 17.1465 28.67 16.0795C28.5806 15.821 28.4772 15.5676 28.3605 15.3203C28.2103 14.9926 28.0434 14.6728 27.8604 14.3624C27.7604 14.1948 27.6556 14.0296 27.5461 13.8643C27.4675 13.7446 27.3818 13.6248 27.296 13.5027C27.1246 13.2632 26.9484 13.0238 26.765 12.7699C26.5156 12.4406 26.2426 12.1301 25.9482 11.8407C25.372 11.2516 24.7576 10.6434 24.1432 10.0566C23.9051 10.0806 23.6432 10.1165 23.3908 10.1644C23.1383 10.2123 22.9145 10.2626 22.6597 10.3272C22.6002 10.344 22.5383 10.356 22.4787 10.3751C22.3573 10.4087 22.2406 10.4518 22.1144 10.4925C21.8763 10.5763 21.6215 10.6673 21.381 10.7727C21.2595 10.8254 21.1428 10.8804 21.0166 10.9403C20.781 11.0554 20.5513 11.1825 20.3285 11.3211C20.1546 11.4288 19.9856 11.5414 19.8236 11.6635C19.6617 11.7857 19.5593 11.8551 19.4379 11.9605C19.2804 12.0969 19.1302 12.2416 18.9878 12.3939C18.8195 12.5748 18.6605 12.7642 18.5115 12.9615C18.3992 13.1205 18.2951 13.2851 18.1996 13.4548C18.0654 13.6694 17.9452 13.8926 17.84 14.123C17.5251 14.9183 17.3564 15.7647 17.3423 16.6207C17.3423 16.8314 17.3423 17.0374 17.3423 17.2481C17.3423 17.4589 17.3543 17.6672 17.3709 17.8804C17.3926 18.2982 17.4355 18.7146 17.4995 19.128C17.5209 19.2621 17.5471 19.3962 17.5733 19.528C17.6301 19.8301 17.7024 20.129 17.79 20.4236C17.8234 20.5314 17.8591 20.6391 17.8972 20.7445C17.971 20.9588 18.0561 21.169 18.152 21.3743C18.1686 21.4078 18.1782 21.4414 18.1948 21.4725V21.4845C18.2862 21.6715 18.3896 21.8523 18.5044 22.0257C18.552 22.1023 18.6092 22.1718 18.6616 22.246C18.714 22.3203 18.8068 22.4568 18.8997 22.5573C19.1926 22.9113 19.5333 23.2224 19.9117 23.4817C20.1878 23.6695 20.4812 23.8299 20.788 23.9607V23.9415C20.8047 23.9032 20.8261 23.8697 20.8452 23.8337Z" fill="url(#paint7_linear_668_115)"/>
<path d="M28.8198 23.6857C28.896 23.6186 28.9674 23.5492 29.0389 23.4821C28.9692 23.334 28.8897 23.1908 28.8007 23.0535C28.7603 22.9912 28.7198 22.9289 28.6769 22.8691C28.634 22.8092 28.6198 22.8068 28.5936 22.7733C28.5674 22.7397 28.4983 22.6583 28.4483 22.6032C28.3236 22.4615 28.1908 22.3271 28.0506 22.2009L27.9387 22.0955L27.9101 22.074C27.8077 21.9902 27.703 21.9111 27.5934 21.8345C27.4179 21.7079 27.235 21.592 27.0457 21.4873C26.9886 21.4561 26.9291 21.4322 26.8719 21.4035C26.6835 21.3082 26.4904 21.2227 26.2933 21.1472C26.0909 21.2694 25.8908 21.3867 25.686 21.5088C25.586 21.5735 25.4836 21.6262 25.3836 21.686C25.2455 21.7675 25.1098 21.8537 24.9717 21.9255L24.8931 21.9686C24.7669 22.0381 24.6383 22.1027 24.5097 22.1674C24.1811 22.3374 23.8501 22.5027 23.5262 22.6847C23.05 22.9385 22.5737 23.2043 22.1118 23.4893L22.0594 23.5228L21.9355 23.6019L21.7903 23.6929L21.7593 23.712L21.5998 23.8198L21.4736 23.906L21.4379 23.9491L21.2831 24.0617L21.2307 24.1L21.2021 24.1191H21.1878L21.0997 24.1838L21.0164 24.2508L20.9402 24.3131L20.8735 24.3658L20.8568 24.3802L20.8306 24.4041H20.8163C20.8997 24.4831 20.9664 24.5262 21.0402 24.5981C21.114 24.6699 21.2069 24.7561 21.2926 24.8376C21.4569 24.9884 21.6331 25.1249 21.807 25.2566C22.1338 25.5105 22.4895 25.7244 22.8666 25.8936C23.2272 26.0387 23.6064 26.1314 23.993 26.169C24.1825 26.1798 24.3725 26.1798 24.5621 26.169L24.8454 26.1451L25.0836 26.0996C25.5488 25.9795 25.9952 25.795 26.4099 25.5512C26.5171 25.4913 26.6243 25.4243 26.7314 25.3572C26.8386 25.2902 26.9695 25.204 27.0767 25.1177L27.1862 25.0411C27.5029 24.8016 27.8101 24.5502 28.1173 24.2844L28.1959 24.2173L28.5888 23.8749C28.6721 23.8222 28.7436 23.7527 28.8198 23.6857Z" fill="url(#paint8_linear_668_115)"/>
<defs>
<linearGradient id="paint0_linear_668_115" x1="18.5072" y1="3.65989" x2="23.2245" y2="3.65989" gradientUnits="userSpaceOnUse">
<stop stop-color="#ED6C9B"/>
<stop offset="1" stop-color="#EF7EA8"/>
</linearGradient>
<linearGradient id="paint1_linear_668_115" x1="0" y1="16.2182" x2="12.1135" y2="16.2182" gradientUnits="userSpaceOnUse">
<stop stop-color="#EF7FAA"/>
<stop offset="0.14" stop-color="#EE79A6"/>
<stop offset="0.61" stop-color="#ED6A9B"/>
<stop offset="1" stop-color="#EC6597"/>
</linearGradient>
<linearGradient id="paint2_linear_668_115" x1="14.9432" y1="20.0797" x2="14.9432" y2="0.689209" gradientUnits="userSpaceOnUse">
<stop stop-color="#EF7FAA"/>
<stop offset="0.06" stop-color="#F084AD"/>
<stop offset="0.41" stop-color="#F39CBE"/>
<stop offset="0.73" stop-color="#F4ABC8"/>
<stop offset="1" stop-color="#F5B0CB"/>
</linearGradient>
<linearGradient id="paint3_linear_668_115" x1="28.4716" y1="23.7436" x2="44.9786" y2="23.7436" gradientUnits="userSpaceOnUse">
<stop stop-color="#2D8D95"/>
<stop offset="0.35" stop-color="#44A5AC"/>
<stop offset="0.74" stop-color="#57B8BE"/>
<stop offset="1" stop-color="#5EBFC5"/>
</linearGradient>
<linearGradient id="paint4_linear_668_115" x1="4.72159" y1="24.2232" x2="20.6404" y2="24.2232" gradientUnits="userSpaceOnUse">
<stop stop-color="#5EBFC5"/>
<stop offset="0.26" stop-color="#57B8BE"/>
<stop offset="0.65" stop-color="#44A5AC"/>
<stop offset="1" stop-color="#2D8D95"/>
</linearGradient>
<linearGradient id="paint5_linear_668_115" x1="25.7927" y1="11.6736" x2="25.7927" y2="0.866013" gradientUnits="userSpaceOnUse">
<stop stop-color="#EF7EA8"/>
<stop offset="0.04" stop-color="#F083AC"/>
<stop offset="0.2" stop-color="#F297BA"/>
<stop offset="0.38" stop-color="#F4A5C4"/>
<stop offset="0.61" stop-color="#F5AEC9"/>
<stop offset="1" stop-color="#F5B0CB"/>
</linearGradient>
<linearGradient id="paint6_linear_668_115" x1="29.995" y1="14.9085" x2="42.6585" y2="14.9085" gradientUnits="userSpaceOnUse">
<stop stop-color="#ED6C9B"/>
<stop offset="1" stop-color="#EF7EA8"/>
</linearGradient>
<linearGradient id="paint7_linear_668_115" x1="23.1717" y1="23.9607" x2="23.1717" y2="10.0566" gradientUnits="userSpaceOnUse">
<stop stop-color="#EF7EA8"/>
<stop offset="0.24" stop-color="#F299BB"/>
<stop offset="0.52" stop-color="#F5B1CC"/>
<stop offset="0.78" stop-color="#F6C0D6"/>
<stop offset="1" stop-color="#F7C5DA"/>
</linearGradient>
<linearGradient id="paint8_linear_668_115" x1="20.7878" y1="23.6641" x2="29.0389" y2="23.6641" gradientUnits="userSpaceOnUse">
<stop stop-color="#F29DBF"/>
<stop offset="0.34" stop-color="#F5B1CD"/>
<stop offset="0.7" stop-color="#F6C0D7"/>
<stop offset="1" stop-color="#F7C5DA"/>
</linearGradient>
</defs>
</svg>
