<svg width="22" height="22" viewBox="0 0 22 22" fill="none" xmlns="http://www.w3.org/2000/svg">
<path fill-rule="evenodd" clip-rule="evenodd" d="M13.0507 15.84C13.3919 15.4968 13.3919 14.9425 13.0507 14.5992L9.93554 11.44L13.0507 8.32483C13.3919 7.9816 13.3919 7.42727 13.0507 7.08403C12.8855 6.91744 12.6606 6.82373 12.4259 6.82373C12.1913 6.82373 11.9664 6.91744 11.8011 7.08403L8.06994 10.8152C7.90335 10.9805 7.80964 11.2054 7.80964 11.44C7.80964 11.6747 7.90335 11.8996 8.06994 12.0648L11.8011 15.84C11.9664 16.0066 12.1913 16.1003 12.4259 16.1003C12.6606 16.1003 12.8855 16.0066 13.0507 15.84Z" fill="#5EBFC5"/>
</svg>
