<svg width="34" height="35" viewBox="0 0 34 35" fill="none" xmlns="http://www.w3.org/2000/svg">
<path fill-rule="evenodd" clip-rule="evenodd" d="M7.4807 3.29846H26.5207C29.1496 3.29846 31.2807 5.42959 31.2807 8.05846V17.5785C31.2807 20.2073 29.1496 22.3385 26.5207 22.3385H7.4807C4.85183 22.3385 2.7207 20.2073 2.7207 17.5785V8.05846C2.7207 5.42959 4.85183 3.29846 7.4807 3.29846ZM31.2807 21.6585V20.9785C31.2807 20.9785 30.2532 23.4679 26.5207 23.6985H7.4807C3.66838 23.417 2.7207 20.9785 2.7207 20.9785V21.6585C2.7207 24.2873 4.85183 26.4185 7.4807 26.4185H26.5207C29.1496 26.4185 31.2807 24.2873 31.2807 21.6585ZM31.2807 25.7385V25.0585C31.2807 25.0585 30.2532 27.5479 26.5207 27.7785H7.4807C3.66838 27.497 2.7207 25.0585 2.7207 25.0585V25.7385C2.7207 28.3673 4.85183 30.4985 7.4807 30.4985H26.5207C29.1496 30.4985 31.2807 28.3673 31.2807 25.7385ZM19.7207 8.73846H17.6807V8.05846C17.6807 7.68291 17.3763 7.37846 17.0007 7.37846C16.6251 7.37846 16.3207 7.68291 16.3207 8.05846V8.73846H15.6597C14.533 8.73846 13.6197 9.6518 13.6197 10.7785V11.4595C13.6197 12.5862 14.533 13.4995 15.6597 13.4995H18.3607C18.7363 13.4995 19.0407 13.8039 19.0407 14.1795V14.8585C19.0407 15.234 18.7363 15.5385 18.3607 15.5385H14.9774C14.9494 15.1982 14.6696 14.926 14.3203 14.9154C13.945 14.904 13.6314 15.199 13.62 15.5744L13.601 16.1978C13.5894 16.5813 13.8971 16.8985 14.2807 16.8985H16.3207V17.5666C16.3207 17.9421 16.6251 18.2466 17.0007 18.2466C17.3763 18.2466 17.6807 17.9421 17.6807 17.5666V16.8985H18.3607C19.4874 16.8985 20.4007 15.9851 20.4007 14.8585V14.1795C20.4007 13.0528 19.4874 12.1395 18.3607 12.1395H15.6597C15.2841 12.1395 14.9797 11.835 14.9797 11.4595V10.7785C14.9797 10.4029 15.2841 10.0985 15.6597 10.0985H19.0609C19.1347 10.3942 19.4021 10.6133 19.7207 10.6133C20.0963 10.6133 20.4007 10.3088 20.4007 9.93328V9.41846C20.4007 9.04291 20.0963 8.73846 19.7207 8.73846Z" fill="#454F5B"/>
</svg>
