<svg width="34" height="35" viewBox="0 0 34 35" fill="none" xmlns="http://www.w3.org/2000/svg">
<path fill-rule="evenodd" clip-rule="evenodd" d="M31.2807 21.5179C30.7289 20.836 30.0336 20.2751 29.2407 19.881V17.2049C29.2407 10.2572 23.9484 5.00606 17.0007 5.00606C10.053 5.00606 4.7607 10.2572 4.7607 17.2049V19.881C3.9678 20.2751 3.27248 20.836 2.7207 21.5179V17.2049C2.7207 9.13049 8.9263 2.96606 17.0007 2.96606C25.0751 2.96606 31.2807 9.13049 31.2807 17.2049V21.5179ZM6.86085 20.6449C6.82137 20.8522 6.8007 21.0661 6.8007 21.2849V29.4449C6.8007 29.6637 6.82137 29.8776 6.86085 30.0849C4.52484 29.7811 2.7207 27.7837 2.7207 25.3649C2.7207 22.9461 4.52484 20.9487 6.86085 20.6449ZM27.2007 29.4449C27.2007 29.6637 27.18 29.8776 27.1406 30.0849C29.4766 29.7811 31.2807 27.7837 31.2807 25.3649C31.2807 22.9461 29.4766 20.9487 27.1406 20.6449C27.18 20.8522 27.2007 21.0661 27.2007 21.2849V29.4449ZM10.2007 19.2449H11.5607C12.6874 19.2449 13.6007 20.1582 13.6007 21.2849V29.4449C13.6007 30.5716 12.6874 31.4849 11.5607 31.4849H10.2007C9.07404 31.4849 8.1607 30.5716 8.1607 29.4449V21.2849C8.1607 20.1582 9.07404 19.2449 10.2007 19.2449ZM23.8007 19.2449H22.4407C21.314 19.2449 20.4007 20.1582 20.4007 21.2849V29.4449C20.4007 30.5716 21.314 31.4849 22.4407 31.4849H23.8007C24.9274 31.4849 25.8407 30.5716 25.8407 29.4449V21.2849C25.8407 20.1582 24.9274 19.2449 23.8007 19.2449Z" fill="#454F5B"/>
</svg>
