<svg width="34" height="35" viewBox="0 0 34 35" fill="none" xmlns="http://www.w3.org/2000/svg">
<path fill-rule="evenodd" clip-rule="evenodd" d="M2.7207 18.6322H17.6807V9.79221C17.6807 8.47131 18.4339 7.32634 19.5343 6.76341C19.2024 6.52955 18.7976 6.39221 18.3607 6.39221H4.7607C3.63404 6.39221 2.7207 7.30555 2.7207 8.43221V18.6322ZM31.2807 22.0322C31.2807 21.5097 31.0842 21.033 30.7611 20.6721C31.0842 20.3112 31.2807 19.8345 31.2807 19.312V17.2722H26.5207C25.394 17.2722 24.4807 16.3589 24.4807 15.2322V12.5122C24.4807 11.3856 25.394 10.4722 26.5207 10.4722H30.1543L30.1197 10.3311C29.9214 9.52447 29.254 8.91859 28.432 8.79913L21.3741 7.77342C21.2769 7.7593 21.1789 7.75221 21.0807 7.75221C19.954 7.75221 19.0407 8.66555 19.0407 9.79221V19.312C19.0407 19.5505 19.0816 19.7795 19.1569 19.9922H4.7607C3.63404 19.9922 2.7207 20.9056 2.7207 22.0322V23.3922C2.7207 24.5189 3.63404 25.4322 4.7607 25.4322H5.48891C5.81886 23.1255 7.8027 21.3522 10.2007 21.3522C12.5987 21.3522 14.5825 23.1255 14.9125 25.4322H20.4489C20.7789 23.1255 22.7627 21.3522 25.1607 21.3522C27.5257 21.3522 29.4878 23.0769 29.8579 25.3372C30.6829 25.0756 31.2807 24.3037 31.2807 23.3922V22.0322ZM31.2218 14.8157L30.4886 11.8322H26.5207C26.1452 11.8322 25.8407 12.1367 25.8407 12.5122V15.2322C25.8407 15.6078 26.1452 15.9122 26.5207 15.9122H31.2807V15.3025C31.2807 15.1385 31.2609 14.975 31.2218 14.8157ZM13.6007 26.1122C13.6007 27.99 12.0785 29.5122 10.2007 29.5122C8.32294 29.5122 6.8007 27.99 6.8007 26.1122C6.8007 24.2344 8.32294 22.7122 10.2007 22.7122C12.0785 22.7122 13.6007 24.2344 13.6007 26.1122ZM28.5607 26.1122C28.5607 27.99 27.0385 29.5122 25.1607 29.5122C23.2829 29.5122 21.7607 27.99 21.7607 26.1122C21.7607 24.2344 23.2829 22.7122 25.1607 22.7122C27.0385 22.7122 28.5607 24.2344 28.5607 26.1122Z" fill="#454F5B"/>
</svg>
