<svg width="16" height="16" viewBox="0 0 16 16" fill="none" xmlns="http://www.w3.org/2000/svg">
<path fill-rule="evenodd" clip-rule="evenodd" d="M6.23396 1.15229C5.99472 2.93144 5.39838 4.50298 4.44302 5.87254C4.74133 6.24801 4.91953 6.7232 4.91953 7.24001V14.28C4.91953 14.6198 4.84251 14.9416 4.70498 15.2288C5.19494 15.4508 5.74576 15.5695 6.35358 15.5838C8.73459 15.6041 10.4925 15.6041 11.6354 15.5839C13.4131 15.5523 14.1537 15.0302 14.5784 13.647C14.9939 12.2934 15.4105 8.61861 15.2757 6.78908C15.1991 5.75021 14.7561 5.20797 13.9213 5.15632C13.6131 5.13725 13.2626 5.18227 12.7742 5.28867C12.5951 5.32767 12.0513 5.46 11.693 5.5472C11.5389 5.58468 11.4192 5.61383 11.3774 5.62364C11.0623 5.69757 10.7779 5.75913 10.4943 5.81343C9.59576 5.98553 9.21584 5.91942 9.0988 5.72579C8.97704 5.52435 8.9708 5.225 9.04939 4.12804C9.08457 3.63693 9.10109 3.31583 9.10409 2.95457C9.11955 1.09348 8.18417 0.277294 6.53892 0.79092C6.37568 0.841881 6.25675 0.982807 6.23396 1.15229ZM0.519531 7.24001C0.519531 6.511 1.11052 5.92001 1.83953 5.92001H2.71953C3.44855 5.92001 4.03953 6.511 4.03953 7.24001V14.28C4.03953 15.009 3.44855 15.6 2.71953 15.6H1.83953C1.11052 15.6 0.519531 15.009 0.519531 14.28V7.24001Z" fill="#C4CDD5"/>
</svg>
