<svg width="24" height="22" viewBox="0 0 24 22" fill="none" xmlns="http://www.w3.org/2000/svg">
<path fill-rule="evenodd" clip-rule="evenodd" d="M5.40137 4.83999C5.40137 4.47548 5.71543 4.17999 6.10285 4.17999C6.49027 4.17999 6.80434 4.47548 6.80434 4.83999V6.23014C8.95516 4.15899 12.3216 3.56756 15.1631 4.87147C18.7605 6.52229 20.2544 10.6044 18.4998 13.9891C16.7453 17.3738 12.4066 18.7793 8.80914 17.1285C7.37239 16.4692 6.22219 15.3968 5.5104 14.0621C5.33665 13.7363 5.47652 13.3397 5.8228 13.1762C6.16907 13.0127 6.59063 13.1443 6.76438 13.4701C7.33848 14.5467 8.26451 15.41 9.42416 15.9421C12.3252 17.2733 15.8239 16.1399 17.2389 13.4104C18.6538 10.681 17.4491 7.38912 14.548 6.05788C12.0043 4.89058 8.96783 5.61406 7.3099 7.69999H9.84411C10.2315 7.69999 10.5456 7.99548 10.5456 8.35999C10.5456 8.7245 10.2315 9.01999 9.84411 9.01999H6.10285C5.71543 9.01999 5.40137 8.7245 5.40137 8.35999V8.31042C5.40121 8.29985 5.40137 4.83999 5.40137 4.83999Z" fill="#5EBFC5"/>
</svg>
