<svg width="223" height="46" viewBox="0 0 223 46" fill="none" xmlns="http://www.w3.org/2000/svg">
<path d="M98.688 21.22C97.896 21.22 97.1407 21.1247 96.422 20.934C95.718 20.7287 95.0873 20.4207 94.53 20.01C93.9727 19.5993 93.5253 19.0933 93.188 18.492C92.8653 17.8907 92.6967 17.1793 92.682 16.358C92.682 16.226 92.726 16.116 92.814 16.028C92.902 15.9253 93.012 15.874 93.144 15.874H95.234C95.4247 15.874 95.564 15.9253 95.652 16.028C95.7547 16.1307 95.8353 16.27 95.894 16.446C95.9673 16.974 96.136 17.4067 96.4 17.744C96.664 18.0667 96.994 18.3087 97.39 18.47C97.8007 18.6167 98.2553 18.69 98.754 18.69C99.678 18.69 100.382 18.3893 100.866 17.788C101.365 17.1867 101.614 16.3507 101.614 15.28V8.196H94.156C93.9947 8.196 93.8627 8.14467 93.76 8.042C93.672 7.93933 93.628 7.81467 93.628 7.668V6.128C93.628 5.98133 93.672 5.85667 93.76 5.754C93.8627 5.65133 93.9947 5.6 94.156 5.6H104.21C104.371 5.6 104.503 5.65133 104.606 5.754C104.709 5.85667 104.76 5.98867 104.76 6.15V15.368C104.76 16.5853 104.503 17.634 103.99 18.514C103.491 19.394 102.787 20.0687 101.878 20.538C100.983 20.9927 99.92 21.22 98.688 21.22ZM111.501 21.22C110.738 21.22 110.049 21.0733 109.433 20.78C108.817 20.472 108.326 20.0687 107.959 19.57C107.607 19.0567 107.431 18.4847 107.431 17.854C107.431 16.8273 107.842 16.0133 108.663 15.412C109.499 14.796 110.599 14.3853 111.963 14.18L114.977 13.74V13.278C114.977 12.662 114.823 12.1853 114.515 11.848C114.207 11.5107 113.679 11.342 112.931 11.342C112.403 11.342 111.97 11.452 111.633 11.672C111.31 11.8773 111.068 12.156 110.907 12.508C110.79 12.6987 110.621 12.794 110.401 12.794H108.663C108.502 12.794 108.377 12.75 108.289 12.662C108.216 12.574 108.179 12.4567 108.179 12.31C108.194 12.0753 108.289 11.7893 108.465 11.452C108.641 11.1147 108.92 10.792 109.301 10.484C109.682 10.1613 110.174 9.89 110.775 9.67C111.376 9.45 112.102 9.34 112.953 9.34C113.877 9.34 114.654 9.45733 115.285 9.692C115.93 9.912 116.444 10.2127 116.825 10.594C117.206 10.9753 117.485 11.4227 117.661 11.936C117.837 12.4493 117.925 12.992 117.925 13.564V20.472C117.925 20.6187 117.874 20.7433 117.771 20.846C117.668 20.9487 117.544 21 117.397 21H115.615C115.454 21 115.322 20.9487 115.219 20.846C115.131 20.7433 115.087 20.6187 115.087 20.472V19.614C114.896 19.8927 114.64 20.1567 114.317 20.406C113.994 20.6407 113.598 20.8387 113.129 21C112.674 21.1467 112.132 21.22 111.501 21.22ZM112.249 19.13C112.762 19.13 113.224 19.02 113.635 18.8C114.06 18.58 114.39 18.2427 114.625 17.788C114.874 17.3187 114.999 16.732 114.999 16.028V15.566L112.799 15.918C111.934 16.05 111.288 16.2627 110.863 16.556C110.438 16.8493 110.225 17.2087 110.225 17.634C110.225 17.9567 110.32 18.2353 110.511 18.47C110.716 18.69 110.973 18.8587 111.281 18.976C111.589 19.0787 111.912 19.13 112.249 19.13ZM121.737 25.18C121.591 25.18 121.466 25.1287 121.363 25.026C121.261 24.9233 121.209 24.7987 121.209 24.652V10.088C121.209 9.94133 121.261 9.81667 121.363 9.714C121.466 9.61133 121.591 9.56 121.737 9.56H123.475C123.637 9.56 123.761 9.61133 123.849 9.714C123.952 9.81667 124.003 9.94133 124.003 10.088V10.968C124.355 10.4987 124.817 10.11 125.389 9.802C125.961 9.494 126.673 9.34 127.523 9.34C128.301 9.34 128.975 9.46467 129.547 9.714C130.119 9.96333 130.596 10.3227 130.977 10.792C131.359 11.2467 131.652 11.7893 131.857 12.42C132.063 13.0507 132.18 13.7473 132.209 14.51C132.224 14.7593 132.231 15.016 132.231 15.28C132.231 15.544 132.224 15.808 132.209 16.072C132.195 16.8053 132.085 17.4873 131.879 18.118C131.674 18.734 131.373 19.2767 130.977 19.746C130.596 20.2007 130.119 20.56 129.547 20.824C128.975 21.088 128.301 21.22 127.523 21.22C126.731 21.22 126.057 21.0807 125.499 20.802C124.942 20.5087 124.487 20.1273 124.135 19.658V24.652C124.135 24.7987 124.084 24.9233 123.981 25.026C123.893 25.1287 123.769 25.18 123.607 25.18H121.737ZM126.709 18.866C127.34 18.866 127.831 18.734 128.183 18.47C128.535 18.1913 128.785 17.832 128.931 17.392C129.093 16.952 129.188 16.468 129.217 15.94C129.247 15.5 129.247 15.06 129.217 14.62C129.188 14.092 129.093 13.608 128.931 13.168C128.785 12.728 128.535 12.376 128.183 12.112C127.831 11.8333 127.34 11.694 126.709 11.694C126.108 11.694 125.617 11.8333 125.235 12.112C124.869 12.3907 124.597 12.75 124.421 13.19C124.26 13.6153 124.165 14.0553 124.135 14.51C124.121 14.774 124.113 15.0527 124.113 15.346C124.113 15.6393 124.121 15.9253 124.135 16.204C124.15 16.644 124.253 17.0693 124.443 17.48C124.634 17.876 124.913 18.206 125.279 18.47C125.646 18.734 126.123 18.866 126.709 18.866ZM138.463 21.22C137.7 21.22 137.011 21.0733 136.395 20.78C135.779 20.472 135.288 20.0687 134.921 19.57C134.569 19.0567 134.393 18.4847 134.393 17.854C134.393 16.8273 134.804 16.0133 135.625 15.412C136.461 14.796 137.561 14.3853 138.925 14.18L141.939 13.74V13.278C141.939 12.662 141.785 12.1853 141.477 11.848C141.169 11.5107 140.641 11.342 139.893 11.342C139.365 11.342 138.932 11.452 138.595 11.672C138.272 11.8773 138.03 12.156 137.869 12.508C137.752 12.6987 137.583 12.794 137.363 12.794H135.625C135.464 12.794 135.339 12.75 135.251 12.662C135.178 12.574 135.141 12.4567 135.141 12.31C135.156 12.0753 135.251 11.7893 135.427 11.452C135.603 11.1147 135.882 10.792 136.263 10.484C136.644 10.1613 137.136 9.89 137.737 9.67C138.338 9.45 139.064 9.34 139.915 9.34C140.839 9.34 141.616 9.45733 142.247 9.692C142.892 9.912 143.406 10.2127 143.787 10.594C144.168 10.9753 144.447 11.4227 144.623 11.936C144.799 12.4493 144.887 12.992 144.887 13.564V20.472C144.887 20.6187 144.836 20.7433 144.733 20.846C144.63 20.9487 144.506 21 144.359 21H142.577C142.416 21 142.284 20.9487 142.181 20.846C142.093 20.7433 142.049 20.6187 142.049 20.472V19.614C141.858 19.8927 141.602 20.1567 141.279 20.406C140.956 20.6407 140.56 20.8387 140.091 21C139.636 21.1467 139.094 21.22 138.463 21.22ZM139.211 19.13C139.724 19.13 140.186 19.02 140.597 18.8C141.022 18.58 141.352 18.2427 141.587 17.788C141.836 17.3187 141.961 16.732 141.961 16.028V15.566L139.761 15.918C138.896 16.05 138.25 16.2627 137.825 16.556C137.4 16.8493 137.187 17.2087 137.187 17.634C137.187 17.9567 137.282 18.2353 137.473 18.47C137.678 18.69 137.935 18.8587 138.243 18.976C138.551 19.0787 138.874 19.13 139.211 19.13ZM148.677 21C148.531 21 148.406 20.9487 148.303 20.846C148.201 20.7433 148.149 20.6187 148.149 20.472V10.088C148.149 9.94133 148.201 9.81667 148.303 9.714C148.406 9.61133 148.531 9.56 148.677 9.56H150.481C150.628 9.56 150.753 9.61133 150.855 9.714C150.958 9.81667 151.009 9.94133 151.009 10.088V10.99C151.391 10.5207 151.875 10.132 152.461 9.824C153.063 9.50133 153.803 9.34 154.683 9.34C155.578 9.34 156.355 9.54533 157.015 9.956C157.675 10.352 158.181 10.9167 158.533 11.65C158.9 12.3833 159.083 13.2633 159.083 14.29V20.472C159.083 20.6187 159.032 20.7433 158.929 20.846C158.827 20.9487 158.702 21 158.555 21H156.619C156.473 21 156.348 20.9487 156.245 20.846C156.143 20.7433 156.091 20.6187 156.091 20.472V14.422C156.091 13.5713 155.879 12.904 155.453 12.42C155.043 11.936 154.441 11.694 153.649 11.694C152.887 11.694 152.278 11.936 151.823 12.42C151.369 12.904 151.141 13.5713 151.141 14.422V20.472C151.141 20.6187 151.09 20.7433 150.987 20.846C150.885 20.9487 150.76 21 150.613 21H148.677ZM173.395 21.22C172.031 21.22 170.887 21.022 169.963 20.626C169.054 20.2153 168.357 19.6873 167.873 19.042C167.404 18.382 167.155 17.6927 167.125 16.974C167.125 16.842 167.169 16.732 167.257 16.644C167.345 16.556 167.455 16.512 167.587 16.512H169.545C169.736 16.512 169.875 16.556 169.963 16.644C170.066 16.7173 170.154 16.8127 170.227 16.93C170.315 17.2087 170.484 17.4873 170.733 17.766C170.983 18.03 171.32 18.25 171.745 18.426C172.185 18.602 172.735 18.69 173.395 18.69C174.451 18.69 175.236 18.514 175.749 18.162C176.277 17.81 176.541 17.3333 176.541 16.732C176.541 16.3067 176.402 15.9693 176.123 15.72C175.845 15.456 175.412 15.2213 174.825 15.016C174.253 14.796 173.491 14.5687 172.537 14.334C171.437 14.07 170.513 13.7547 169.765 13.388C169.032 13.0067 168.475 12.53 168.093 11.958C167.727 11.386 167.543 10.66 167.543 9.78C167.543 8.92933 167.771 8.174 168.225 7.514C168.695 6.854 169.355 6.33333 170.205 5.952C171.071 5.57067 172.097 5.38 173.285 5.38C174.239 5.38 175.082 5.512 175.815 5.776C176.549 6.02533 177.157 6.36267 177.641 6.788C178.125 7.19867 178.492 7.646 178.741 8.13C179.005 8.59933 179.145 9.06133 179.159 9.516C179.159 9.63333 179.115 9.74333 179.027 9.846C178.954 9.934 178.844 9.978 178.697 9.978H176.651C176.534 9.978 176.417 9.94867 176.299 9.89C176.182 9.83133 176.087 9.72133 176.013 9.56C175.925 9.10533 175.639 8.71667 175.155 8.394C174.671 8.07133 174.048 7.91 173.285 7.91C172.493 7.91 171.855 8.05667 171.371 8.35C170.887 8.64333 170.645 9.098 170.645 9.714C170.645 10.1247 170.763 10.4693 170.997 10.748C171.247 11.012 171.635 11.2467 172.163 11.452C172.706 11.6573 173.417 11.8773 174.297 12.112C175.544 12.3907 176.563 12.7133 177.355 13.08C178.147 13.4467 178.727 13.916 179.093 14.488C179.46 15.0453 179.643 15.7567 179.643 16.622C179.643 17.59 179.379 18.4187 178.851 19.108C178.338 19.7827 177.612 20.3033 176.673 20.67C175.735 21.0367 174.642 21.22 173.395 21.22ZM187.511 21C186.631 21 185.89 20.846 185.289 20.538C184.687 20.23 184.24 19.7753 183.947 19.174C183.653 18.558 183.507 17.7953 183.507 16.886V11.892H181.769C181.622 11.892 181.497 11.8407 181.395 11.738C181.292 11.6353 181.241 11.5107 181.241 11.364V10.088C181.241 9.94133 181.292 9.81667 181.395 9.714C181.497 9.61133 181.622 9.56 181.769 9.56H183.507V5.908C183.507 5.76133 183.551 5.63667 183.639 5.534C183.741 5.43133 183.873 5.38 184.035 5.38H185.817C185.963 5.38 186.088 5.43133 186.191 5.534C186.293 5.63667 186.345 5.76133 186.345 5.908V9.56H189.095C189.241 9.56 189.366 9.61133 189.469 9.714C189.571 9.81667 189.623 9.94133 189.623 10.088V11.364C189.623 11.5107 189.571 11.6353 189.469 11.738C189.366 11.8407 189.241 11.892 189.095 11.892H186.345V16.666C186.345 17.2673 186.447 17.7367 186.653 18.074C186.873 18.4113 187.247 18.58 187.775 18.58H189.293C189.439 18.58 189.564 18.6313 189.667 18.734C189.769 18.8367 189.821 18.9613 189.821 19.108V20.472C189.821 20.6187 189.769 20.7433 189.667 20.846C189.564 20.9487 189.439 21 189.293 21H187.511ZM194.28 25.18C194.163 25.18 194.06 25.136 193.972 25.048C193.884 24.96 193.84 24.8573 193.84 24.74C193.84 24.6813 193.84 24.6227 193.84 24.564C193.855 24.52 193.884 24.4613 193.928 24.388L195.644 20.318L191.42 10.352C191.362 10.2053 191.332 10.1027 191.332 10.044C191.347 9.912 191.398 9.802 191.486 9.714C191.574 9.61133 191.684 9.56 191.816 9.56H193.598C193.774 9.56 193.906 9.604 193.994 9.692C194.082 9.78 194.148 9.87533 194.192 9.978L197.118 17.172L200.132 9.978C200.176 9.86067 200.242 9.76533 200.33 9.692C200.418 9.604 200.55 9.56 200.726 9.56H202.486C202.604 9.56 202.706 9.604 202.794 9.692C202.897 9.78 202.948 9.88267 202.948 10C202.948 10.088 202.919 10.2053 202.86 10.352L196.634 24.762C196.576 24.8793 196.502 24.9747 196.414 25.048C196.326 25.136 196.194 25.18 196.018 25.18H194.28ZM205.835 21C205.688 21 205.564 20.9487 205.461 20.846C205.358 20.7433 205.307 20.6187 205.307 20.472V5.908C205.307 5.76133 205.358 5.63667 205.461 5.534C205.564 5.43133 205.688 5.38 205.835 5.38H207.661C207.808 5.38 207.932 5.43133 208.035 5.534C208.138 5.63667 208.189 5.76133 208.189 5.908V20.472C208.189 20.6187 208.138 20.7433 208.035 20.846C207.932 20.9487 207.808 21 207.661 21H205.835ZM216.475 21.22C214.847 21.22 213.557 20.7507 212.603 19.812C211.65 18.8733 211.137 17.5387 211.063 15.808C211.049 15.6613 211.041 15.478 211.041 15.258C211.041 15.0233 211.049 14.84 211.063 14.708C211.122 13.608 211.371 12.6547 211.811 11.848C212.266 11.0413 212.889 10.4253 213.681 10C214.473 9.56 215.405 9.34 216.475 9.34C217.663 9.34 218.661 9.58933 219.467 10.088C220.274 10.572 220.883 11.254 221.293 12.134C221.704 12.9993 221.909 14.004 221.909 15.148V15.61C221.909 15.7567 221.858 15.8813 221.755 15.984C221.653 16.0867 221.521 16.138 221.359 16.138H214.055C214.055 16.138 214.055 16.16 214.055 16.204C214.055 16.248 214.055 16.2847 214.055 16.314C214.07 16.8273 214.165 17.304 214.341 17.744C214.532 18.1693 214.803 18.514 215.155 18.778C215.522 19.042 215.955 19.174 216.453 19.174C216.864 19.174 217.209 19.1153 217.487 18.998C217.766 18.866 217.993 18.7193 218.169 18.558C218.345 18.3967 218.47 18.2647 218.543 18.162C218.675 17.986 218.778 17.8833 218.851 17.854C218.939 17.81 219.064 17.788 219.225 17.788H221.117C221.264 17.788 221.381 17.832 221.469 17.92C221.572 18.008 221.616 18.118 221.601 18.25C221.587 18.4847 221.462 18.7707 221.227 19.108C221.007 19.4453 220.685 19.7753 220.259 20.098C219.834 20.4207 219.299 20.692 218.653 20.912C218.023 21.1173 217.297 21.22 216.475 21.22ZM214.055 14.29H218.917V14.224C218.917 13.652 218.822 13.1533 218.631 12.728C218.441 12.3027 218.162 11.9653 217.795 11.716C217.429 11.4667 216.989 11.342 216.475 11.342C215.962 11.342 215.522 11.4667 215.155 11.716C214.789 11.9653 214.51 12.3027 214.319 12.728C214.143 13.1533 214.055 13.652 214.055 14.224V14.29Z" fill="#161D25"/>
<path d="M96.682 42C96.5887 42 96.5093 41.972 96.444 41.916C96.388 41.8507 96.36 41.7713 96.36 41.678V33.446H93.672C93.5787 33.446 93.4993 33.418 93.434 33.362C93.378 33.2967 93.35 33.2173 93.35 33.124V32.536C93.35 32.4333 93.378 32.354 93.434 32.298C93.4993 32.2327 93.5787 32.2 93.672 32.2H100.42C100.523 32.2 100.602 32.2327 100.658 32.298C100.723 32.354 100.756 32.4333 100.756 32.536V33.124C100.756 33.2173 100.723 33.2967 100.658 33.362C100.602 33.418 100.523 33.446 100.42 33.446H97.746V41.678C97.746 41.7713 97.7133 41.8507 97.648 41.916C97.592 41.972 97.5127 42 97.41 42H96.682ZM105.265 42.14C104.556 42.14 103.963 42.0047 103.487 41.734C103.011 41.4633 102.647 41.09 102.395 40.614C102.143 40.1287 102.003 39.578 101.975 38.962C101.966 38.8033 101.961 38.6027 101.961 38.36C101.961 38.108 101.966 37.9073 101.975 37.758C102.003 37.1327 102.143 36.582 102.395 36.106C102.657 35.63 103.025 35.2567 103.501 34.986C103.977 34.7153 104.565 34.58 105.265 34.58C105.965 34.58 106.553 34.7153 107.029 34.986C107.505 35.2567 107.869 35.63 108.121 36.106C108.383 36.582 108.527 37.1327 108.555 37.758C108.565 37.9073 108.569 38.108 108.569 38.36C108.569 38.6027 108.565 38.8033 108.555 38.962C108.527 39.578 108.387 40.1287 108.135 40.614C107.883 41.09 107.519 41.4633 107.043 41.734C106.567 42.0047 105.975 42.14 105.265 42.14ZM105.265 41.062C105.844 41.062 106.306 40.88 106.651 40.516C106.997 40.1427 107.183 39.6013 107.211 38.892C107.221 38.752 107.225 38.5747 107.225 38.36C107.225 38.1453 107.221 37.968 107.211 37.828C107.183 37.1187 106.997 36.582 106.651 36.218C106.306 35.8447 105.844 35.658 105.265 35.658C104.687 35.658 104.22 35.8447 103.865 36.218C103.52 36.582 103.338 37.1187 103.319 37.828C103.31 37.968 103.305 38.1453 103.305 38.36C103.305 38.5747 103.31 38.752 103.319 38.892C103.338 39.6013 103.52 40.1427 103.865 40.516C104.22 40.88 104.687 41.062 105.265 41.062ZM110.784 42C110.691 42 110.612 41.972 110.546 41.916C110.49 41.8507 110.462 41.7713 110.462 41.678V35.042C110.462 34.9487 110.49 34.874 110.546 34.818C110.612 34.7527 110.691 34.72 110.784 34.72H113.696C114.574 34.72 115.232 34.8973 115.67 35.252C116.118 35.6067 116.342 36.0827 116.342 36.68C116.342 37.1 116.263 37.4173 116.104 37.632C115.946 37.8467 115.722 38.0287 115.432 38.178C115.787 38.3273 116.053 38.57 116.23 38.906C116.417 39.2327 116.51 39.5733 116.51 39.928C116.51 40.6 116.272 41.1133 115.796 41.468C115.32 41.8227 114.658 42 113.808 42H110.784ZM111.75 40.978H113.696C114.144 40.978 114.504 40.894 114.774 40.726C115.054 40.5487 115.194 40.2827 115.194 39.928C115.194 39.5547 115.068 39.284 114.816 39.116C114.564 38.9387 114.191 38.85 113.696 38.85H111.75V40.978ZM111.75 37.814H113.612C114.06 37.814 114.415 37.716 114.676 37.52C114.947 37.324 115.082 37.0487 115.082 36.694C115.082 36.33 114.947 36.0827 114.676 35.952C114.415 35.812 114.06 35.742 113.612 35.742H111.75V37.814ZM120.48 42.14C120.013 42.14 119.589 42.0467 119.206 41.86C118.823 41.6733 118.515 41.4213 118.282 41.104C118.049 40.7867 117.932 40.4273 117.932 40.026C117.932 39.382 118.193 38.8687 118.716 38.486C119.239 38.1033 119.92 37.8513 120.76 37.73L122.846 37.436V37.03C122.846 36.582 122.715 36.232 122.454 35.98C122.202 35.728 121.787 35.602 121.208 35.602C120.788 35.602 120.447 35.686 120.186 35.854C119.934 36.022 119.757 36.2367 119.654 36.498C119.598 36.638 119.5 36.708 119.36 36.708H118.73C118.627 36.708 118.548 36.68 118.492 36.624C118.445 36.5587 118.422 36.484 118.422 36.4C118.422 36.26 118.473 36.0873 118.576 35.882C118.688 35.6767 118.856 35.476 119.08 35.28C119.304 35.084 119.589 34.9207 119.934 34.79C120.289 34.65 120.718 34.58 121.222 34.58C121.782 34.58 122.253 34.6547 122.636 34.804C123.019 34.944 123.317 35.1353 123.532 35.378C123.756 35.6207 123.915 35.896 124.008 36.204C124.111 36.512 124.162 36.8247 124.162 37.142V41.678C124.162 41.7713 124.129 41.8507 124.064 41.916C124.008 41.972 123.933 42 123.84 42H123.196C123.093 42 123.014 41.972 122.958 41.916C122.902 41.8507 122.874 41.7713 122.874 41.678V41.076C122.753 41.244 122.589 41.412 122.384 41.58C122.179 41.7387 121.922 41.874 121.614 41.986C121.306 42.0887 120.928 42.14 120.48 42.14ZM120.774 41.09C121.157 41.09 121.507 41.0107 121.824 40.852C122.141 40.684 122.389 40.4273 122.566 40.082C122.753 39.7367 122.846 39.3027 122.846 38.78V38.388L121.222 38.626C120.559 38.7193 120.06 38.878 119.724 39.102C119.388 39.3167 119.22 39.592 119.22 39.928C119.22 40.1893 119.295 40.4087 119.444 40.586C119.603 40.754 119.799 40.88 120.032 40.964C120.275 41.048 120.522 41.09 120.774 41.09ZM126.651 44.66C126.557 44.66 126.478 44.6273 126.413 44.562C126.357 44.506 126.329 44.4313 126.329 44.338V35.042C126.329 34.9487 126.357 34.874 126.413 34.818C126.478 34.7527 126.557 34.72 126.651 34.72H127.295C127.388 34.72 127.463 34.7527 127.519 34.818C127.584 34.874 127.617 34.9487 127.617 35.042V35.658C127.841 35.35 128.139 35.0933 128.513 34.888C128.886 34.6827 129.353 34.58 129.913 34.58C130.435 34.58 130.879 34.6687 131.243 34.846C131.616 35.0233 131.919 35.266 132.153 35.574C132.395 35.882 132.577 36.232 132.699 36.624C132.82 37.016 132.885 37.436 132.895 37.884C132.904 38.0333 132.909 38.192 132.909 38.36C132.909 38.528 132.904 38.6867 132.895 38.836C132.885 39.2747 132.82 39.6947 132.699 40.096C132.577 40.488 132.395 40.838 132.153 41.146C131.919 41.4447 131.616 41.6873 131.243 41.874C130.879 42.0513 130.435 42.14 129.913 42.14C129.371 42.14 128.914 42.042 128.541 41.846C128.177 41.6407 127.878 41.3887 127.645 41.09V44.338C127.645 44.4313 127.617 44.506 127.561 44.562C127.505 44.6273 127.425 44.66 127.323 44.66H126.651ZM129.619 41.006C130.104 41.006 130.482 40.9033 130.753 40.698C131.033 40.4833 131.233 40.208 131.355 39.872C131.476 39.5267 131.546 39.158 131.565 38.766C131.574 38.4953 131.574 38.2247 131.565 37.954C131.546 37.562 131.476 37.198 131.355 36.862C131.233 36.5167 131.033 36.2413 130.753 36.036C130.482 35.8213 130.104 35.714 129.619 35.714C129.161 35.714 128.788 35.8213 128.499 36.036C128.219 36.2507 128.009 36.526 127.869 36.862C127.738 37.1887 127.663 37.5247 127.645 37.87C127.635 38.0193 127.631 38.1967 127.631 38.402C127.631 38.6073 127.635 38.7893 127.645 38.948C127.654 39.2747 127.729 39.5967 127.869 39.914C128.018 40.2313 128.237 40.4927 128.527 40.698C128.816 40.9033 129.18 41.006 129.619 41.006ZM135.117 42C135.023 42 134.944 41.972 134.879 41.916C134.823 41.8507 134.795 41.7713 134.795 41.678V35.042C134.795 34.9487 134.823 34.874 134.879 34.818C134.944 34.7527 135.023 34.72 135.117 34.72H135.789C135.882 34.72 135.957 34.7527 136.013 34.818C136.078 34.874 136.111 34.9487 136.111 35.042V37.1H137.567C138.519 37.1 139.214 37.324 139.653 37.772C140.091 38.22 140.311 38.8267 140.311 39.592C140.311 40.4133 140.068 41.02 139.583 41.412C139.097 41.804 138.369 42 137.399 42H135.117ZM136.097 40.95H137.441C138.01 40.95 138.425 40.852 138.687 40.656C138.948 40.4507 139.079 40.096 139.079 39.592C139.079 39.1067 138.953 38.7473 138.701 38.514C138.449 38.2713 138.029 38.15 137.441 38.15H136.097V40.95ZM141.627 42C141.533 42 141.454 41.972 141.389 41.916C141.333 41.8507 141.305 41.7713 141.305 41.678V35.042C141.305 34.9487 141.333 34.874 141.389 34.818C141.454 34.7527 141.533 34.72 141.627 34.72H142.299C142.392 34.72 142.467 34.7527 142.523 34.818C142.588 34.874 142.621 34.9487 142.621 35.042V41.678C142.621 41.7713 142.588 41.8507 142.523 41.916C142.467 41.972 142.392 42 142.299 42H141.627ZM148.726 42C148.642 42 148.568 41.972 148.502 41.916C148.446 41.8507 148.418 41.7807 148.418 41.706V35.042C148.418 34.9487 148.446 34.874 148.502 34.818C148.568 34.7527 148.647 34.72 148.74 34.72H149.412C149.506 34.72 149.58 34.7527 149.636 34.818C149.692 34.874 149.72 34.9487 149.72 35.042V40.978L149.356 40.6L153.598 34.93C153.645 34.874 153.696 34.8273 153.752 34.79C153.808 34.7433 153.878 34.72 153.962 34.72H154.606C154.681 34.72 154.746 34.748 154.802 34.804C154.868 34.86 154.9 34.9253 154.9 35V41.678C154.9 41.7713 154.868 41.8507 154.802 41.916C154.746 41.972 154.672 42 154.578 42H153.92C153.818 42 153.738 41.972 153.682 41.916C153.626 41.8507 153.598 41.7713 153.598 41.678V36.092L153.99 36.078L149.72 41.79C149.683 41.8367 149.636 41.8833 149.58 41.93C149.524 41.9767 149.45 42 149.356 42H148.726ZM159.624 42.14C159.073 42.14 158.606 42.0747 158.224 41.944C157.85 41.804 157.547 41.6313 157.314 41.426C157.09 41.2113 156.926 40.992 156.824 40.768C156.721 40.5347 156.665 40.32 156.656 40.124C156.656 40.04 156.684 39.9747 156.74 39.928C156.796 39.872 156.861 39.844 156.936 39.844H157.594C157.678 39.844 157.748 39.8673 157.804 39.914C157.86 39.9513 157.902 40.0213 157.93 40.124C158.042 40.4787 158.256 40.726 158.574 40.866C158.891 41.006 159.278 41.076 159.736 41.076C160.034 41.076 160.31 41.0387 160.562 40.964C160.814 40.88 161.01 40.7493 161.15 40.572C161.299 40.3947 161.374 40.1753 161.374 39.914C161.374 39.5313 161.262 39.242 161.038 39.046C160.823 38.85 160.487 38.752 160.03 38.752H159.26C159.166 38.752 159.092 38.724 159.036 38.668C158.98 38.612 158.952 38.5373 158.952 38.444V38.066C158.952 37.982 158.98 37.912 159.036 37.856C159.092 37.7907 159.166 37.758 159.26 37.758H159.946C160.328 37.758 160.622 37.6833 160.828 37.534C161.033 37.3847 161.136 37.1467 161.136 36.82C161.136 36.624 161.089 36.4373 160.996 36.26C160.902 36.0827 160.744 35.938 160.52 35.826C160.305 35.7047 160.006 35.644 159.624 35.644C159.082 35.644 158.7 35.7373 158.476 35.924C158.261 36.1013 158.107 36.3673 158.014 36.722C157.976 36.8247 157.93 36.8947 157.874 36.932C157.827 36.9693 157.757 36.988 157.664 36.988H157.034C156.95 36.988 156.88 36.9647 156.824 36.918C156.768 36.8713 156.74 36.806 156.74 36.722C156.749 36.442 156.81 36.176 156.922 35.924C157.043 35.672 157.22 35.4433 157.454 35.238C157.696 35.0327 157.995 34.874 158.35 34.762C158.714 34.6407 159.138 34.58 159.624 34.58C160.324 34.58 160.874 34.6873 161.276 34.902C161.686 35.1167 161.976 35.3827 162.144 35.7C162.321 36.008 162.41 36.316 162.41 36.624C162.41 36.988 162.349 37.2913 162.228 37.534C162.116 37.7767 161.892 37.982 161.556 38.15C161.976 38.3087 162.265 38.5467 162.424 38.864C162.582 39.1813 162.666 39.55 162.676 39.97C162.685 40.4553 162.554 40.8567 162.284 41.174C162.022 41.4913 161.663 41.734 161.206 41.902C160.748 42.0607 160.221 42.14 159.624 42.14ZM173.915 42C173.822 42 173.743 41.972 173.677 41.916C173.612 41.8507 173.579 41.7713 173.579 41.678V38.276H171.325C170.681 38.276 170.126 38.1593 169.659 37.926C169.202 37.6927 168.847 37.352 168.595 36.904C168.353 36.456 168.231 35.91 168.231 35.266C168.231 34.7433 168.343 34.2487 168.567 33.782C168.801 33.3153 169.151 32.9373 169.617 32.648C170.093 32.3493 170.695 32.2 171.423 32.2H174.629C174.723 32.2 174.797 32.2327 174.853 32.298C174.919 32.354 174.951 32.4287 174.951 32.522V41.678C174.951 41.7713 174.919 41.8507 174.853 41.916C174.797 41.972 174.723 42 174.629 42H173.915ZM168.329 42C168.255 42 168.189 41.972 168.133 41.916C168.077 41.86 168.049 41.7947 168.049 41.72C168.049 41.6733 168.063 41.622 168.091 41.566L170.583 37.646L171.927 37.856L169.547 41.622C169.491 41.7153 169.426 41.804 169.351 41.888C169.277 41.9627 169.16 42 169.001 42H168.329ZM171.535 37.1H173.579V33.376H171.535C170.929 33.376 170.457 33.5533 170.121 33.908C169.795 34.2627 169.631 34.7247 169.631 35.294C169.631 35.8913 169.785 36.344 170.093 36.652C170.411 36.9507 170.891 37.1 171.535 37.1ZM177.669 42C177.576 42 177.497 41.972 177.431 41.916C177.375 41.8507 177.347 41.7713 177.347 41.678V35.042C177.347 34.9487 177.375 34.874 177.431 34.818C177.497 34.7527 177.576 34.72 177.669 34.72H183.227C183.321 34.72 183.395 34.7527 183.451 34.818C183.517 34.874 183.549 34.9487 183.549 35.042V41.678C183.549 41.7713 183.517 41.8507 183.451 41.916C183.395 41.972 183.321 42 183.227 42H182.555C182.462 42 182.387 41.972 182.331 41.916C182.275 41.8507 182.247 41.7713 182.247 41.678V35.84H178.649V41.678C178.649 41.7713 178.621 41.8507 178.565 41.916C178.509 41.972 178.435 42 178.341 42H177.669ZM188.755 42.14C188.045 42.14 187.453 42.0047 186.977 41.734C186.501 41.4633 186.137 41.09 185.885 40.614C185.633 40.1287 185.493 39.578 185.465 38.962C185.455 38.8033 185.451 38.6027 185.451 38.36C185.451 38.108 185.455 37.9073 185.465 37.758C185.493 37.1327 185.633 36.582 185.885 36.106C186.146 35.63 186.515 35.2567 186.991 34.986C187.467 34.7153 188.055 34.58 188.755 34.58C189.455 34.58 190.043 34.7153 190.519 34.986C190.995 35.2567 191.359 35.63 191.611 36.106C191.872 36.582 192.017 37.1327 192.045 37.758C192.054 37.9073 192.059 38.108 192.059 38.36C192.059 38.6027 192.054 38.8033 192.045 38.962C192.017 39.578 191.877 40.1287 191.625 40.614C191.373 41.09 191.009 41.4633 190.533 41.734C190.057 42.0047 189.464 42.14 188.755 42.14ZM188.755 41.062C189.333 41.062 189.795 40.88 190.141 40.516C190.486 40.1427 190.673 39.6013 190.701 38.892C190.71 38.752 190.715 38.5747 190.715 38.36C190.715 38.1453 190.71 37.968 190.701 37.828C190.673 37.1187 190.486 36.582 190.141 36.218C189.795 35.8447 189.333 35.658 188.755 35.658C188.176 35.658 187.709 35.8447 187.355 36.218C187.009 36.582 186.827 37.1187 186.809 37.828C186.799 37.968 186.795 38.1453 186.795 38.36C186.795 38.5747 186.799 38.752 186.809 38.892C186.827 39.6013 187.009 40.1427 187.355 40.516C187.709 40.88 188.176 41.062 188.755 41.062ZM194.274 42C194.18 42 194.101 41.972 194.036 41.916C193.98 41.8507 193.952 41.7713 193.952 41.678V35.042C193.952 34.9487 193.98 34.874 194.036 34.818C194.101 34.7527 194.18 34.72 194.274 34.72H194.946C195.039 34.72 195.114 34.7527 195.17 34.818C195.226 34.874 195.254 34.9487 195.254 35.042V37.73H199.076V35.042C199.076 34.9487 199.104 34.874 199.16 34.818C199.225 34.7527 199.304 34.72 199.398 34.72H200.056C200.149 34.72 200.224 34.7527 200.28 34.818C200.345 34.874 200.378 34.9487 200.378 35.042V41.678C200.378 41.7713 200.345 41.8507 200.28 41.916C200.224 41.972 200.149 42 200.056 42H199.398C199.304 42 199.225 41.972 199.16 41.916C199.104 41.8507 199.076 41.7713 199.076 41.678V38.85H195.254V41.678C195.254 41.7713 195.226 41.8507 195.17 41.916C195.114 41.972 195.039 42 194.946 42H194.274ZM202.931 42C202.847 42 202.772 41.972 202.707 41.916C202.651 41.8507 202.623 41.7807 202.623 41.706V35.042C202.623 34.9487 202.651 34.874 202.707 34.818C202.772 34.7527 202.852 34.72 202.945 34.72H203.617C203.71 34.72 203.785 34.7527 203.841 34.818C203.897 34.874 203.925 34.9487 203.925 35.042V40.978L203.561 40.6L207.803 34.93C207.85 34.874 207.901 34.8273 207.957 34.79C208.013 34.7433 208.083 34.72 208.167 34.72H208.811C208.886 34.72 208.951 34.748 209.007 34.804C209.072 34.86 209.105 34.9253 209.105 35V41.678C209.105 41.7713 209.072 41.8507 209.007 41.916C208.951 41.972 208.876 42 208.783 42H208.125C208.022 42 207.943 41.972 207.887 41.916C207.831 41.8507 207.803 41.7713 207.803 41.678V36.092L208.195 36.078L203.925 41.79C203.888 41.8367 203.841 41.8833 203.785 41.93C203.729 41.9767 203.654 42 203.561 42H202.931ZM211.602 42C211.518 42 211.444 41.972 211.378 41.916C211.322 41.8507 211.294 41.7807 211.294 41.706V35.042C211.294 34.9487 211.322 34.874 211.378 34.818C211.444 34.7527 211.523 34.72 211.616 34.72H212.288C212.382 34.72 212.456 34.7527 212.512 34.818C212.568 34.874 212.596 34.9487 212.596 35.042V40.978L212.232 40.6L216.474 34.93C216.521 34.874 216.572 34.8273 216.628 34.79C216.684 34.7433 216.754 34.72 216.838 34.72H217.482C217.557 34.72 217.622 34.748 217.678 34.804C217.744 34.86 217.776 34.9253 217.776 35V41.678C217.776 41.7713 217.744 41.8507 217.678 41.916C217.622 41.972 217.548 42 217.454 42H216.796C216.694 42 216.614 41.972 216.558 41.916C216.502 41.8507 216.474 41.7713 216.474 41.678V36.092L216.866 36.078L212.596 41.79C212.559 41.8367 212.512 41.8833 212.456 41.93C212.4 41.9767 212.326 42 212.232 42H211.602Z" fill="#161D25"/>
<path d="M33.8963 11.8036C34.0608 12.032 34.2096 12.2723 34.3662 12.5086C35.5716 11.0849 36.8487 9.72435 38.1926 8.43214C37.8322 7.71926 37.4798 7.00243 37.143 6.26986C36.6743 5.20698 36.07 4.21001 35.3453 3.3041C34.9798 2.85837 34.5733 2.44826 34.1313 2.0792C33.8834 1.87828 33.6217 1.69533 33.348 1.53174C33.0738 2.22493 32.8114 2.92994 32.5177 3.60343C32.1692 4.45023 31.7227 5.25764 31.3311 6.07687L30.4342 7.81378C31.712 9.02971 32.8713 10.3657 33.8963 11.8036Z" fill="url(#paint0_linear_621_1690)"/>
<path d="M33.5796 1H33.5242L33.5638 1.02795C33.5682 1.01814 33.5735 1.00878 33.5796 1V1Z" fill="white"/>
<path d="M10.3197 17.861C10.8092 19.1607 11.2635 20.4604 11.7296 21.7484C12.5128 22.0556 13.2961 22.3746 14.0794 22.7133C13.835 21.0255 13.7956 19.3141 13.9619 17.6168C14.1212 15.8322 14.4291 14.0641 14.8822 12.3312C14.4906 12.087 14.099 11.8468 13.7073 11.6065C12.6617 10.9606 11.5651 10.3934 10.4998 9.76324C9.95935 9.45997 9.41889 9.14882 8.8941 8.8101L8.28314 8.44775C8.32555 9.83563 8.49069 11.217 8.77661 12.5754C9.15515 14.3745 9.67103 16.1416 10.3197 17.861Z" fill="#B4DDE3"/>
<path d="M12.7635 36.0297C13.022 35.9077 13.2804 35.7895 13.5468 35.6792C15.5846 34.8054 17.7307 34.2131 19.9265 33.9187C19.7816 33.7769 19.6446 33.639 19.5075 33.4894C18.6917 32.6511 17.9451 31.7475 17.2751 30.7875C16.9579 30.3346 16.6603 29.8659 16.3783 29.3854C16.2843 29.2199 16.1786 29.0584 16.0885 28.8891C15.9162 28.5661 15.7634 28.2353 15.6107 27.9005C15.1176 26.8287 14.7243 25.7132 14.4358 24.5685C13.7387 24.1273 13.0298 23.7033 12.3092 23.2963C11.8235 23.0206 11.3262 22.7567 10.8288 22.5086C10.4058 22.2959 9.97502 22.0872 9.54422 21.8902L9.25049 21.7524C6.34453 20.366 3.17227 19.7634 0 19.3223C0.720614 20.7638 1.48431 22.1935 2.30675 23.5562C3.31717 25.2301 4.3276 26.8489 5.43985 28.4007C6.55172 29.948 7.77426 31.4118 9.09775 32.7804C10.249 33.9416 11.4734 35.027 12.7635 36.0297Z" fill="url(#paint1_linear_621_1690)"/>
<path d="M17.2516 24.2377C17.2908 24.6315 17.3378 24.9978 17.3926 25.3759C17.4592 25.817 17.5336 26.2582 17.6276 26.6953C17.7216 27.1325 17.8352 27.6406 17.9722 28.1093C18.0427 28.3574 18.1367 28.5977 18.2229 28.8419C18.3792 29.2733 18.557 29.6966 18.7555 30.1101C18.9435 30.5058 19.1527 30.8911 19.3821 31.2641C19.6825 31.77 20.0175 32.2543 20.3847 32.7135C20.6558 33.0602 20.9516 33.3867 21.2698 33.6903L21.3952 33.8084L21.7868 33.7848C23.0021 33.7616 24.2171 33.8473 25.4173 34.0408C25.3311 33.773 25.2528 33.5051 25.194 33.2531C25.1065 32.9102 25.0436 32.5614 25.0061 32.2094C25.0061 32.1857 25.0061 32.1621 25.0061 32.1424L24.9826 31.973C24.9826 31.9533 24.9826 31.9376 24.9826 31.9179C24.9826 31.8982 24.9826 31.7722 24.963 31.6973C24.9284 31.3874 24.9114 31.0758 24.9121 30.7639C24.9121 30.7048 24.9121 30.6457 24.9121 30.5867V29.8856C24.9121 29.7477 24.9356 29.6099 24.9473 29.4681L24.9708 29.2121C25.0093 28.7628 25.0787 28.3166 25.1784 27.8769C25.578 26.1251 26.3681 24.4875 27.489 23.0876C28.3616 22.0233 29.3509 21.0614 30.4381 20.2203C30.6576 19.3297 30.9429 18.4568 31.2918 17.609C31.5322 17.0068 31.8068 16.419 32.1143 15.8485C32.083 15.7776 32.0477 15.7146 32.0164 15.6476C31.7109 14.9938 31.378 14.3439 31.0099 13.7098C30.3744 12.6194 29.6761 11.5674 28.9185 10.5589L28.7188 10.2911C28.6248 10.169 28.5269 10.0509 28.4329 9.93271C28.2684 9.72003 28.1039 9.50734 27.9316 9.30254C27.3559 8.60935 26.7567 7.94766 26.1183 7.29386C25.4799 6.64005 24.8142 6.03351 24.117 5.43091C23.4199 4.8283 22.715 4.26902 21.9317 3.71762C21.5401 3.44192 21.1837 3.1544 20.7959 2.88658L20.5061 2.68571C20.4082 2.61088 20.3103 2.54392 20.2516 2.49272C20.1302 2.39032 19.9931 2.26034 19.8325 2.13037C19.8325 2.13037 19.8325 2.13037 19.8325 2.154L19.7894 2.31942L19.7033 2.6542L19.5388 3.32376L19.2176 4.655C18.9983 5.53725 18.826 6.42737 18.6106 7.30567C18.2503 9.02684 17.9096 10.7322 17.6589 12.4258L17.6354 12.5676C17.6002 12.8039 17.5689 13.0442 17.5375 13.2805C17.5062 13.5168 17.467 13.7846 17.4357 14.0367C17.2751 15.301 17.1537 16.5614 17.0871 17.8138C17.0112 19.5386 17.0295 21.2663 17.142 22.9891C17.1772 23.4106 17.2085 23.8162 17.2516 24.2377Z" fill="url(#paint2_linear_621_1690)"/>
<path d="M19.7816 2.0752L19.845 2.13109C19.8497 2.11412 19.8497 2.09616 19.845 2.07919C19.8351 2.08463 19.8239 2.08715 19.8127 2.08644C19.8015 2.08573 19.7907 2.08184 19.7816 2.0752Z" fill="white"/>
<path d="M53.8072 13.8595L53.8463 14.6826L53.9051 15.8248L54.2967 15.6436C54.9038 15.3719 55.5225 15.1198 56.1374 14.8559C56.3176 14.147 56.5095 13.442 56.7405 12.7448C57.0108 11.9571 57.2653 11.2049 57.5238 10.4211C57.7684 9.63793 57.9401 8.83363 58.0369 8.01854C58.18 6.77136 58.1444 5.50996 57.9311 4.27295C57.5669 4.52502 57.2027 4.7889 56.8463 5.06067C56.2275 5.50179 55.6087 5.94685 55.0134 6.42342C54.2301 7.04571 53.4469 7.70346 52.7067 8.36514C53.2161 9.88022 53.5525 11.4487 53.7093 13.0402C53.7406 13.312 53.7837 13.6035 53.8072 13.8595Z" fill="#5EBFC5"/>
<path d="M71.4974 37.3493C70.9727 37.0302 70.4048 36.786 69.8565 36.5064C69.3123 36.2206 68.7527 35.9655 68.1803 35.7423L66.4649 35.0767C65.8735 34.9073 65.29 34.7183 64.7064 34.5411C64.3812 34.4284 64.0489 34.3376 63.7117 34.2693C63.6882 34.2693 63.6686 34.3126 63.6451 34.3362L62.5094 35.4115C62.0903 35.7463 61.6713 36.081 61.2444 36.4079C60.8243 36.7388 60.382 37.0402 59.9206 37.3099C59.4777 37.5986 59.0188 37.8616 58.546 38.0976C56.6907 39.0765 54.7156 39.8062 52.6714 40.2678C51.3552 40.5741 50.0168 40.7743 48.6689 40.8664C48.3973 41.3132 48.1032 41.7457 47.7877 42.1622C47.4893 42.5432 47.1703 42.9074 46.8321 43.2532C47.7329 43.588 48.6454 43.8873 49.5736 44.1551C52.5584 44.9291 55.6033 45.4469 58.6752 45.703C59.4585 45.7503 60.2144 45.7975 60.9937 45.8093L62.1686 45.7581L62.7522 45.7266L63.3279 45.6439L64.5028 45.4549C64.8944 45.3603 65.2587 45.2579 65.6346 45.1477C66.0137 45.0455 66.3842 44.9138 66.743 44.7538C67.0994 44.6002 67.4714 44.4742 67.8161 44.2891C69.2225 43.6131 70.5159 42.7215 71.6502 41.6463C72.2082 41.1177 72.7315 40.5533 73.2167 39.9566C73.4948 39.61 73.765 39.2398 74 38.8774C73.1541 38.3654 72.3316 37.8298 71.4974 37.3493Z" fill="url(#paint3_linear_621_1690)"/>
<path d="M33.1874 40.8627C32.8819 40.78 32.5765 40.6973 32.271 40.5988C31.3696 40.3061 30.5049 39.9096 29.694 39.4172C29.1737 39.103 28.681 38.7446 28.2214 38.3459C28.0805 38.2239 27.9395 38.0978 27.8024 37.9521C27.5318 37.6833 27.2781 37.3978 27.0426 37.0974C26.9016 36.9202 26.7685 36.7429 26.651 36.5578C26.3259 36.5027 26.0009 36.4554 25.6758 36.42L25.2842 36.3845C24.7985 36.3412 24.3129 36.3097 23.8273 36.2939C23.4865 36.2939 23.1419 36.2939 22.7973 36.2939C22.4526 36.2939 22.1746 36.2939 21.8612 36.2939C19.4907 36.3989 17.1442 36.8173 14.8823 37.5385C14.6904 37.6016 14.4906 37.6567 14.3105 37.7237C14.0011 37.83 13.6956 37.956 13.3862 38.0702C12.9201 38.2475 12.4541 38.4287 11.9881 38.6256C11.522 38.8225 11.1225 38.9919 10.6917 39.2046C9.68166 39.6546 8.7018 40.1704 7.75836 40.7485C9.34213 42.3245 11.2347 43.5518 13.3157 44.3523C15.6264 45.2582 18.1094 45.4433 20.4513 45.3842C22.8462 45.36 25.2293 45.0426 27.5478 44.4389C29.8127 43.8264 31.922 42.7362 33.7357 41.2408L33.9198 41.0911C33.9198 41.0911 33.9198 41.0636 33.9198 41.0478L33.7161 41.0045L33.1874 40.8627Z" fill="url(#paint4_linear_621_1690)"/>
<path d="M7.23358 41.0672L7.30408 41.0239L7.2375 40.9688L7.23358 41.0672Z" fill="white"/>
<path d="M7.2688 40.3306L7.32363 40.2912L7.27272 40.2361L7.2688 40.3306Z" fill="white"/>
<path d="M35.2474 13.9621C34.8558 14.6119 34.4994 15.2697 34.1743 15.9314C33.9197 16.4631 33.6887 17.0066 33.4694 17.5541C33.3754 17.7983 33.2775 18.0385 33.1874 18.2827L33.767 17.9479C34.0921 17.7589 34.421 17.5777 34.7539 17.4005C34.9458 17.2981 35.1456 17.1917 35.3336 17.0933C35.7017 16.9042 36.0737 16.6994 36.4458 16.5419L37.3779 16.1204L37.5541 16.0417C38.0124 15.8408 38.4627 15.6478 38.9327 15.4784C39.246 15.3603 39.5672 15.2461 39.9157 15.1437L40.2564 15.0373L40.5228 15.1909L40.8047 15.3524C42.2032 16.1211 43.5577 16.9679 44.8621 17.8889C45.5752 18.3862 46.2318 18.9608 46.8203 19.6021L47.3608 20.1929C47.8854 19.6312 48.4595 19.1184 49.0761 18.6608H49.1035C49.4952 18.3497 49.9142 18.0464 50.3294 17.7549C50.7445 17.4635 51.1871 17.2469 51.6139 16.9948C51.6754 15.7451 51.6583 14.4928 51.563 13.2453C51.5121 12.7372 51.4925 12.2252 51.4338 11.7171L51.1988 10.2047C51.1714 10.0589 51.1322 9.91715 51.1048 9.77142C51.0108 9.29879 50.9012 8.83404 50.7758 8.36929C50.674 7.97543 50.5761 7.62489 50.4547 7.25861C50.4312 7.17983 50.4038 7.10106 50.3803 7.02623C50.2432 6.63237 50.0591 6.23851 49.9103 5.84465C49.8163 5.6044 49.6832 5.39565 49.5735 5.16722C49.4638 4.94161 49.3422 4.72205 49.2093 4.50947C48.7537 3.72488 48.1698 3.02317 47.4822 2.43384C46.7153 2.70925 45.9779 3.06156 45.2812 3.48544C44.8895 3.70994 44.4979 3.98564 44.1062 4.23771C43.7146 4.48978 43.3543 4.78911 42.9822 5.07663C42.2446 5.65635 41.5374 6.27423 40.8635 6.92776C40.605 7.16802 40.3622 7.42009 40.1155 7.67216C39.8687 7.92423 39.622 8.18811 39.3792 8.45988C39.2264 8.63317 39.0659 8.80253 38.9131 8.97189C38.7604 9.14125 38.7212 9.20427 38.6233 9.31455C37.4981 10.6216 36.4668 12.0076 35.5372 13.4619C35.4432 13.6037 35.3453 13.7927 35.2474 13.9621Z" fill="url(#paint5_linear_621_1690)"/>
<path d="M51.3046 20.7244C51.2341 20.7913 51.1675 20.8662 51.0931 20.9292C50.5009 21.4853 49.9375 22.0716 49.4051 22.6858C49.8741 23.3289 50.2981 24.004 50.674 24.7063C50.8698 25.1001 51.0657 25.4664 51.2184 25.8879C51.3398 26.1832 51.4495 26.4865 51.5513 26.7937C51.8295 27.6661 52.0095 28.5671 52.0878 29.4798C52.1387 30.1024 52.1387 30.7281 52.0878 31.3507C52.0878 31.4255 52.0683 31.5043 52.0643 31.5791C52.0369 31.8391 52.0056 32.099 51.9625 32.3668C51.9194 32.6347 51.8724 32.8828 51.8176 33.1545C51.5477 34.3428 51.1251 35.4907 50.5605 36.5693C50.3411 36.9632 50.114 37.3098 49.8829 37.6721C49.7498 37.8612 49.6754 38.0148 49.4913 38.2314L49.3464 38.4165L50.5213 38.0226C50.9717 37.8769 51.4103 37.7075 51.8529 37.5539C52.2954 37.4003 52.7184 37.2073 53.1492 37.0222C53.58 36.8371 53.999 36.652 54.4063 36.4354C54.8136 36.2188 55.2366 36.0415 55.6322 35.8052L56.8071 35.0884C57.1987 34.8639 57.5434 34.5527 57.9193 34.3007C58.2943 34.0505 58.6504 33.7727 58.9846 33.4696L59.106 33.3633C59.4036 33.1033 59.7052 32.8434 60.0068 32.5756L60.2927 32.2841L60.9819 31.5752L61.354 31.2089C61.5655 31.008 61.7691 30.815 61.961 30.5866C62.2587 30.2321 62.5642 29.8816 62.8735 29.535C63.1876 29.1956 63.4831 28.8393 63.7587 28.4676L64.6203 27.4081C65.7101 25.9045 66.6543 24.2994 67.44 22.6149C68.22 20.9134 68.849 19.146 69.3199 17.3332L69.6528 15.9587C69.7468 15.4979 69.8447 15.0331 69.923 14.5684C70.0288 13.9224 70.111 13.2489 70.1541 12.5991C66.723 12.586 63.3247 13.2706 60.1634 14.6117C59.4624 14.9189 58.7848 15.2694 58.1151 15.6436C57.6687 15.8917 57.2261 16.1517 56.7914 16.4313C56.3567 16.7109 55.9494 16.9788 55.5382 17.2663C55.4598 17.3214 55.3776 17.3726 55.2993 17.4317L54.1479 18.2627L53.8737 18.4872L53.0904 19.1332C52.9455 19.2513 52.7967 19.3656 52.6479 19.4798C52.4381 19.6384 52.2368 19.808 52.0448 19.9878C51.9077 20.1257 51.7706 20.2557 51.6335 20.3817L51.3046 20.7244Z" fill="url(#paint6_linear_621_1690)"/>
<path d="M34.284 40.2087L34.3897 40.0197C34.4211 39.9645 34.4446 39.9094 34.4759 39.8582L34.5033 39.8149C34.5033 39.7873 34.5307 39.7558 34.5464 39.7322L34.6443 39.5943C34.6835 39.5313 34.7266 39.4722 34.7696 39.4092C34.8127 39.3462 34.9263 39.1768 35.0124 39.0665C35.0986 38.9563 35.1809 38.8578 35.267 38.7515C35.3532 38.6451 35.3728 38.6175 35.4315 38.5506C36.0846 37.8164 36.8236 37.1644 37.6325 36.6089C38.423 36.0477 39.268 35.5687 40.1547 35.1792C40.2682 35.1319 40.3818 35.0925 40.4954 35.0531C40.8009 34.9389 41.1102 34.8326 41.4275 34.742L41.5215 34.7105C41.8426 34.6199 42.1638 34.549 42.4888 34.4742L42.9275 34.3757L43.3191 34.2812L43.4914 34.4151C43.934 34.7617 44.3373 35.1083 44.7446 35.4509L44.9483 35.6242L45.8726 36.3804L46.2642 36.6876C46.3112 36.5655 46.3582 36.4513 46.4091 36.341C46.46 36.2308 46.5227 36.026 46.5775 35.8724L46.8282 35.2028L46.9417 34.8995C47.0945 34.4545 47.2198 34.0133 47.3334 33.5762C47.3608 33.4659 47.3882 33.3595 47.4117 33.2532C47.4352 33.1469 47.4665 33.0287 47.4861 32.9145C47.8731 31.0984 47.758 29.2105 47.1532 27.4556C47.0061 27.0305 46.8362 26.6137 46.6441 26.2071C46.3972 25.668 46.1226 25.1422 45.8217 24.6316C45.6572 24.3559 45.4848 24.0842 45.3047 23.8124C45.1755 23.6155 45.0345 23.4185 44.8935 23.2177C44.6115 22.8238 44.3217 22.43 44.0201 22.0125C43.6099 21.4709 43.1609 20.9602 42.6768 20.4843C41.729 19.5154 40.7186 18.515 39.7082 17.55C39.3165 17.5894 38.8857 17.6485 38.4706 17.7273C38.0555 17.8061 37.6873 17.8888 37.2683 17.9951C37.1704 18.0227 37.0685 18.0424 36.9706 18.0739C36.7709 18.129 36.579 18.1999 36.3714 18.2669C35.9798 18.4047 35.5607 18.5544 35.1652 18.7277C34.9655 18.8143 34.7736 18.9049 34.566 19.0034C34.1784 19.1927 33.8006 19.4017 33.4341 19.6296C33.1483 19.8069 32.8702 19.992 32.6039 20.1928C32.3376 20.3937 32.1692 20.5079 31.9694 20.6812C31.7104 20.9056 31.4634 21.1436 31.2292 21.3941C30.9524 21.6916 30.691 22.0031 30.446 22.3276C30.2612 22.589 30.09 22.8598 29.9329 23.1389C29.7121 23.4918 29.5146 23.8589 29.3415 24.2378C28.8235 25.5459 28.5462 26.9378 28.523 28.3457C28.523 28.6923 28.523 29.031 28.523 29.3776C28.523 29.7242 28.5426 30.0669 28.57 30.4174C28.6057 31.1046 28.6763 31.7895 28.7815 32.4694C28.8167 32.69 28.8598 32.9105 28.9029 33.1272C28.9962 33.6241 29.1152 34.1157 29.2593 34.6002C29.3141 34.7774 29.3729 34.9547 29.4355 35.128C29.5569 35.4804 29.6968 35.8262 29.8546 36.1638C29.882 36.2189 29.8977 36.2741 29.9251 36.3253V36.345C30.0754 36.6525 30.2454 36.9498 30.4342 37.2351C30.5125 37.3611 30.6065 37.4754 30.6927 37.5975C30.7788 37.7195 30.9316 37.944 31.0843 38.1095C31.5661 38.6916 32.1263 39.2033 32.7488 39.6298C33.2027 39.9386 33.6854 40.2024 34.19 40.4175V40.386C34.2174 40.323 34.2527 40.2678 34.284 40.2087Z" fill="url(#paint7_linear_621_1690)"/>
<path d="M47.3882 39.9527C47.5135 39.8425 47.631 39.7282 47.7485 39.618C47.6339 39.3743 47.5031 39.1388 47.3568 38.9129C47.2903 38.8105 47.2237 38.7081 47.1532 38.6097C47.0827 38.5112 47.0592 38.5073 47.0161 38.4521C46.973 38.397 46.8595 38.2631 46.7772 38.1725C46.5722 37.9394 46.3538 37.7184 46.1232 37.5108L45.9391 37.3375L45.8921 37.3021C45.7237 37.1642 45.5514 37.0342 45.3712 36.9082C45.0825 36.7 44.7818 36.5093 44.4705 36.3371C44.3765 36.2859 44.2786 36.2465 44.1846 36.1993C43.8747 36.0426 43.557 35.9019 43.2329 35.7778C42.9 35.9787 42.571 36.1717 42.2342 36.3726C42.0697 36.4789 41.9013 36.5655 41.7368 36.664C41.5097 36.7979 41.2865 36.9397 41.0593 37.0579L40.9301 37.1288C40.7225 37.243 40.511 37.3493 40.2995 37.4557C39.7591 37.7353 39.2147 38.0071 38.6821 38.3064C37.8988 38.7239 37.1155 39.1611 36.3557 39.6298L36.2696 39.6849L36.0659 39.8149L35.827 39.9645L35.7761 39.9961L35.5137 40.1733L35.3061 40.3151L35.2474 40.386L34.9928 40.5711L34.9067 40.6341L34.8597 40.6656H34.8362L34.6913 40.772L34.5542 40.8822L34.4289 40.9846L34.3192 41.0713L34.2918 41.0949L34.2487 41.1343H34.2252C34.3623 41.2643 34.472 41.3352 34.5934 41.4533C34.7148 41.5715 34.8675 41.7133 35.0085 41.8472C35.2787 42.0953 35.5685 42.3198 35.8544 42.5364C36.392 42.954 36.977 43.3057 37.5972 43.5841C38.1902 43.8226 38.814 43.9751 39.4497 44.037C39.7614 44.0547 40.0739 44.0547 40.3857 44.037L40.8517 43.9977L41.2434 43.9228C42.0086 43.7254 42.7428 43.4218 43.4248 43.0209C43.601 42.9224 43.7773 42.8121 43.9535 42.7019C44.1297 42.5916 44.3451 42.4498 44.5214 42.308L44.7015 42.182C45.2224 41.7881 45.7276 41.3746 46.2328 40.9374L46.3621 40.8271L47.0083 40.2639C47.1454 40.1772 47.2628 40.063 47.3882 39.9527Z" fill="url(#paint8_linear_621_1690)"/>
<defs>
<linearGradient id="paint0_linear_621_1690" x1="30.4342" y1="7.01819" x2="38.1926" y2="7.01819" gradientUnits="userSpaceOnUse">
<stop stop-color="#ED6C9B"/>
<stop offset="1" stop-color="#EF7EA8"/>
</linearGradient>
<linearGradient id="paint1_linear_621_1690" x1="0" y1="27.676" x2="19.9226" y2="27.676" gradientUnits="userSpaceOnUse">
<stop stop-color="#EF7FAA"/>
<stop offset="0.14" stop-color="#EE79A6"/>
<stop offset="0.61" stop-color="#ED6A9B"/>
<stop offset="1" stop-color="#EC6597"/>
</linearGradient>
<linearGradient id="paint2_linear_621_1690" x1="24.5792" y1="34.0211" x2="24.5792" y2="2.13037" gradientUnits="userSpaceOnUse">
<stop stop-color="#EF7FAA"/>
<stop offset="0.06" stop-color="#F084AD"/>
<stop offset="0.41" stop-color="#F39CBE"/>
<stop offset="0.73" stop-color="#F4ABC8"/>
<stop offset="1" stop-color="#F5B0CB"/>
</linearGradient>
<linearGradient id="paint3_linear_621_1690" x1="46.8164" y1="40.0472" x2="73.9648" y2="40.0472" gradientUnits="userSpaceOnUse">
<stop stop-color="#2D8D95"/>
<stop offset="0.35" stop-color="#44A5AC"/>
<stop offset="0.74" stop-color="#57B8BE"/>
<stop offset="1" stop-color="#5EBFC5"/>
</linearGradient>
<linearGradient id="paint4_linear_621_1690" x1="7.75836" y1="40.843" x2="33.9394" y2="40.843" gradientUnits="userSpaceOnUse">
<stop stop-color="#5EBFC5"/>
<stop offset="0.26" stop-color="#57B8BE"/>
<stop offset="0.65" stop-color="#44A5AC"/>
<stop offset="1" stop-color="#2D8D95"/>
</linearGradient>
<linearGradient id="paint5_linear_621_1690" x1="42.4261" y1="20.2047" x2="42.4261" y2="2.4299" gradientUnits="userSpaceOnUse">
<stop stop-color="#EF7EA8"/>
<stop offset="0.04" stop-color="#F083AC"/>
<stop offset="0.2" stop-color="#F297BA"/>
<stop offset="0.38" stop-color="#F4A5C4"/>
<stop offset="0.61" stop-color="#F5AEC9"/>
<stop offset="1" stop-color="#F5B0CB"/>
</linearGradient>
<linearGradient id="paint6_linear_621_1690" x1="49.3307" y1="25.5097" x2="70.158" y2="25.5097" gradientUnits="userSpaceOnUse">
<stop stop-color="#ED6C9B"/>
<stop offset="1" stop-color="#EF7EA8"/>
</linearGradient>
<linearGradient id="paint7_linear_621_1690" x1="38.1103" y1="40.4175" x2="38.1103" y2="17.55" gradientUnits="userSpaceOnUse">
<stop stop-color="#EF7EA8"/>
<stop offset="0.24" stop-color="#F299BB"/>
<stop offset="0.52" stop-color="#F5B1CC"/>
<stop offset="0.78" stop-color="#F6C0D6"/>
<stop offset="1" stop-color="#F7C5DA"/>
</linearGradient>
<linearGradient id="paint8_linear_621_1690" x1="34.1782" y1="39.9173" x2="47.7485" y2="39.9173" gradientUnits="userSpaceOnUse">
<stop stop-color="#F29DBF"/>
<stop offset="0.34" stop-color="#F5B1CD"/>
<stop offset="0.7" stop-color="#F6C0D7"/>
<stop offset="1" stop-color="#F7C5DA"/>
</linearGradient>
</defs>
</svg>
