<svg width="227" height="58" viewBox="0 0 227 58" fill="none" xmlns="http://www.w3.org/2000/svg">
<path d="M37.413 14.808C37.5941 15.0585 37.7576 15.3215 37.9312 15.5795C39.2643 13.9989 40.6905 12.5411 42.1544 11.1234C41.7595 10.3469 41.3696 9.56283 40.9999 8.75877C40.4541 7.61405 39.8353 6.48937 39.0153 5.51999C38.6078 5.03656 38.1651 4.58067 37.6746 4.1824C37.413 3.96698 37.1212 3.76409 36.8295 3.58374C36.5276 4.34271 36.2384 5.1117 35.9114 5.84813C35.5039 6.77493 35.0209 7.65914 34.5657 8.55087L33.5897 10.4521C34.9983 11.7771 36.2786 13.2425 37.413 14.8105V14.808Z" fill="url(#paint0_linear_601_1475)"/>
<path d="M36.135 3.19531H36.1201C36.1201 3.19531 36.1276 3.20285 36.1301 3.20285C36.1301 3.20034 36.1325 3.19782 36.135 3.19531Z" fill="white"/>
<path d="M37.0583 3L37.0005 3.01252C37.0131 3.02254 37.0256 3.03256 37.0407 3.04509C37.0458 3.03006 37.0533 3.01503 37.0583 3Z" fill="white"/>
<path d="M11.3843 21.4283C11.9277 22.851 12.4282 24.2713 12.9439 25.6815C13.8142 26.0171 14.6769 26.3653 15.5346 26.7335C15.263 24.8774 15.2253 23.0013 15.4064 21.1627C15.5824 19.1989 15.9346 17.2677 16.4276 15.3865C15.9975 15.121 15.5648 14.8555 15.1322 14.595C13.9777 13.8861 12.7653 13.2649 11.5881 12.5811C10.9945 12.2454 10.3983 11.9073 9.8173 11.5366C9.59092 11.4088 9.36705 11.2761 9.14319 11.1433C9.20104 12.6587 9.35951 14.1767 9.6865 15.6546C10.0764 17.6234 10.6977 19.5446 11.3843 21.4283Z" fill="#B4DEE3"/>
<path d="M14.0858 41.2868C14.3701 41.1565 14.6568 41.0263 14.9461 40.906C17.1772 39.9792 19.5466 39.2829 21.9865 38.9798C21.8305 38.827 21.6746 38.6742 21.5262 38.5139C20.6332 37.6071 19.8082 36.6152 19.0612 35.5607C18.7115 35.0647 18.382 34.5537 18.0726 34.0277C17.967 33.8473 17.8513 33.672 17.7507 33.4866C17.562 33.1335 17.3935 32.7703 17.225 32.4045C16.6842 31.2348 16.249 30.0124 15.9346 28.76C15.1624 28.2791 14.3801 27.8157 13.5878 27.3698C13.0495 27.0692 12.5037 26.7786 11.9503 26.5006C11.4825 26.2651 11.0121 26.0397 10.5342 25.8243C10.426 25.7742 10.3179 25.7216 10.2097 25.674C7.00016 24.1686 3.49882 23.5073 0 23.0264C0.794844 24.6019 1.63748 26.1624 2.54551 27.6528C3.6598 29.4839 4.77661 31.2523 6.01918 32.9481C7.2517 34.6439 8.60243 36.2495 10.0588 37.7349C11.3366 39.0023 12.6747 40.2022 14.0934 41.2843L14.0858 41.2868Z" fill="url(#paint1_linear_601_1475)"/>
<path d="M19.0386 28.3792C19.0813 28.795 19.1367 29.2083 19.197 29.6216C19.2675 30.105 19.353 30.586 19.4536 31.0669C19.5618 31.5854 19.685 32.0989 19.8334 32.6099C19.9139 32.8804 20.017 33.1434 20.1126 33.4089C20.2837 33.8798 20.4773 34.3432 20.6987 34.7991C20.9075 35.23 21.1389 35.6508 21.3904 36.0616C21.7275 36.6076 22.0872 37.1437 22.4971 37.6421C22.8166 38.0028 23.1008 38.3986 23.4731 38.7117L23.614 38.8395C23.7523 38.8319 23.8906 38.8194 24.029 38.8169C25.3697 38.7869 26.7103 38.8871 28.0334 39.095C27.9403 38.8019 27.8548 38.5088 27.7869 38.2107C27.6787 37.8325 27.6309 37.4518 27.5806 37.071C27.5781 37.046 27.5731 37.0209 27.5706 36.9959C27.563 36.9333 27.553 36.8731 27.5454 36.8105C27.5429 36.7905 27.5404 36.773 27.5379 36.7529C27.5253 36.6728 27.5228 36.5926 27.5152 36.5124C27.475 36.1718 27.4599 35.8311 27.4574 35.493C27.4574 35.4278 27.4549 35.3627 27.4549 35.2976V34.7716L27.4498 34.5737C27.4574 34.4234 27.475 34.2731 27.4901 34.1203C27.5001 34.0276 27.5077 33.9324 27.5152 33.8398C27.5429 33.3513 27.6485 32.8654 27.7466 32.3819C28.1516 30.4432 29.12 28.6447 30.2972 27.1468C31.2782 25.9394 32.3899 24.9225 33.552 24.0132C33.7985 23.0413 34.1054 22.0845 34.4953 21.1577C34.7694 20.4964 35.0939 19.8577 35.436 19.2314C35.4008 19.1588 35.3631 19.0862 35.3304 19.011C34.9908 18.2971 34.6236 17.5883 34.2186 16.8944C33.5193 15.7096 32.7446 14.5724 31.9095 13.4728C31.8366 13.3751 31.7636 13.2774 31.6882 13.1797C31.585 13.0469 31.4769 12.9167 31.3737 12.7864C31.1901 12.556 31.009 12.323 30.8204 12.0976C30.1865 11.3436 29.5149 10.6172 28.8182 9.90335C28.1088 9.207 27.3744 8.52318 26.6097 7.8644C25.8325 7.22316 25.0477 6.57189 24.2151 5.97073C23.8001 5.67015 23.3876 5.35704 22.96 5.06397L22.6405 4.84104C22.5324 4.76088 22.4267 4.68824 22.3588 4.63063C22.223 4.51791 22.0746 4.38014 21.896 4.23486C21.896 4.24238 21.891 4.2524 21.891 4.25991L21.8457 4.44277L21.7526 4.80848L21.569 5.53989L21.2143 6.99772C20.9703 7.96209 20.7666 8.93397 20.5453 9.89584C20.1478 11.777 19.768 13.6431 19.4938 15.5117C19.4863 15.5643 19.4762 15.6144 19.4687 15.667C19.4284 15.9275 19.3957 16.188 19.358 16.4485C19.3203 16.7241 19.28 16.9971 19.2448 17.2726C19.0688 18.6528 18.9354 20.0305 18.8625 21.4032C18.7719 23.3068 18.8021 25.1905 18.9204 27.0591C18.9505 27.5 18.9883 27.9408 19.0335 28.3817L19.0386 28.3792Z" fill="url(#paint2_linear_601_1475)"/>
<path d="M21.828 4.17725C21.8532 4.19728 21.8733 4.21732 21.8984 4.23736C21.906 4.21231 21.911 4.18727 21.9085 4.18226C21.8934 4.19478 21.8557 4.19979 21.828 4.17725Z" fill="white"/>
<path d="M59.3895 17.0548L59.4347 17.9541L59.4951 19.204L59.9303 19.0061C60.6019 18.7105 61.2835 18.4375 61.9626 18.1595C62.1614 17.3855 62.3701 16.614 62.6267 15.8525C62.9235 15.0134 63.2052 14.1667 63.492 13.3101C63.7259 12.4484 63.985 11.5767 64.0579 10.685C64.2415 9.32233 64.1485 7.94466 63.9397 6.59204C63.5398 6.87008 63.1373 7.15563 62.7424 7.43618C62.0582 7.92212 61.3766 8.40556 60.7201 8.92406C59.8473 9.60789 59.0071 10.3268 58.1746 11.0507C58.7405 12.7114 59.1077 14.4347 59.2813 16.1581C59.3165 16.4587 59.3618 16.7567 59.3895 17.0573V17.0548Z" fill="#5EC0C6"/>
<path d="M78.916 42.732C78.3349 42.3838 77.7086 42.1133 77.1024 41.8102C76.4887 41.5222 75.8976 41.1915 75.2537 40.9736L73.3596 40.2472C72.7081 40.0643 72.0642 39.8564 71.4178 39.6611C71.0606 39.5333 70.6908 39.4481 70.3186 39.3655C70.2934 39.3905 70.2708 39.4156 70.2456 39.4406L68.993 40.6154C68.5302 40.9811 68.0648 41.3493 67.5945 41.7025C67.1367 42.0757 66.6336 42.3838 66.1331 42.6894C65.6275 42.99 65.1471 43.3307 64.6138 43.5711C62.5462 44.6733 60.3403 45.4247 58.1167 45.9432C56.6553 46.2864 55.1763 46.4918 53.6973 46.5995C53.3929 47.088 53.081 47.5614 52.7238 48.0173C52.3994 48.4331 52.0422 48.8238 51.6699 49.2071C52.666 49.5728 53.6721 49.9034 54.6833 50.194C57.9658 51.1007 61.3137 51.5416 64.727 51.8873C65.5747 51.9374 66.4274 51.99 67.2851 52.0025L68.5679 51.9474L69.2118 51.9123L69.8482 51.8221L71.1235 51.6117C71.541 51.5115 71.9561 51.3963 72.3711 51.2786C72.7911 51.1784 73.1936 51.0206 73.5935 50.8603C73.991 50.6924 74.3984 50.5522 74.7808 50.3493C76.3478 49.6279 77.7614 48.6109 79.0141 47.4612C79.6429 46.8876 80.2139 46.2563 80.7572 45.6151C81.0615 45.2369 81.3609 44.8336 81.63 44.4353C80.7371 43.8442 79.8265 43.258 78.9084 42.732H78.916Z" fill="url(#paint3_linear_601_1475)"/>
<path d="M36.6307 46.5719C36.2937 46.4817 35.9566 46.3915 35.6196 46.2838C34.6537 45.9757 33.6903 45.5524 32.7722 45.0013C32.2063 44.6632 31.663 44.2749 31.1498 43.8316C30.9939 43.6963 30.8379 43.5586 30.687 43.4108C30.3852 43.1202 30.1085 42.8046 29.8469 42.4765C29.6935 42.2861 29.5476 42.0882 29.4092 41.8853C29.0521 41.8277 28.6924 41.7751 28.3327 41.735C28.1918 41.72 28.0484 41.7125 27.9076 41.6974C27.3718 41.6499 26.8386 41.6123 26.3028 41.5947C25.923 41.5822 25.5457 41.5747 25.1659 41.5747C24.8213 41.5747 24.4767 41.5822 24.1321 41.5947C21.5488 41.7075 18.9555 42.1433 16.4377 42.9348C16.2264 43 16.0176 43.0651 15.8063 43.1352C15.4642 43.253 15.1272 43.3882 14.7876 43.5135C14.2695 43.7063 13.7538 43.9067 13.2432 44.1196C12.7603 44.32 12.2798 44.5204 11.8019 44.7383C10.6952 45.2318 9.59095 45.7979 8.5647 46.4266C10.2852 48.1199 12.4207 49.5201 14.7147 50.3768C17.2602 51.3662 20.0044 51.5716 22.5902 51.5065C25.2514 51.4338 27.8824 51.1758 30.4204 50.472C32.8552 49.7706 35.2347 48.686 37.252 46.9777C37.3174 46.9226 37.3879 46.87 37.4533 46.8124C37.4583 46.7973 37.4583 46.7798 37.4633 46.7673C37.3879 46.7497 37.3149 46.7347 37.2395 46.7172C37.0382 46.6696 36.837 46.617 36.6333 46.5644L36.6307 46.5719Z" fill="url(#paint4_linear_601_1475)"/>
<path d="M9.01416 54.839C9.04244 54.8212 9.07072 54.8034 9.09901 54.7826C9.07355 54.7589 9.04527 54.7322 9.01982 54.7085L9.01416 54.836V54.839Z" fill="white"/>
<path d="M9.05396 53.8872C9.07658 53.8694 9.09921 53.8516 9.12466 53.8338C9.10486 53.8101 9.08224 53.7893 9.05961 53.7656L9.05396 53.8902V53.8872Z" fill="white"/>
<path d="M38.8996 17.1676C38.472 17.8764 38.072 18.5978 37.7149 19.3317C37.4306 19.9154 37.1766 20.5065 36.9376 21.1077C36.832 21.3732 36.7238 21.6362 36.6257 21.9042C36.837 21.7765 37.0508 21.6588 37.2646 21.536C37.6243 21.3306 37.9865 21.1327 38.3538 20.9399C38.5676 20.8271 38.7789 20.7119 38.9952 20.6042C39.4001 20.3963 39.8101 20.1959 40.2227 20.003C40.5622 19.8452 40.9068 19.6924 41.2514 19.5397C41.3168 19.5121 41.3797 19.482 41.4451 19.452C41.9532 19.2341 42.4487 19.0312 42.9669 18.8383C43.314 18.7105 43.6712 18.5853 44.0535 18.4701L44.4283 18.3574L44.7226 18.5227L45.0345 18.698C46.5663 19.5572 48.0504 20.4314 49.5093 21.4709C50.2286 21.9894 50.9883 22.563 51.6951 23.342C51.8938 23.5549 52.09 23.7729 52.2887 23.9908C52.8848 23.3946 53.4835 22.801 54.1827 22.3175C54.1928 22.31 54.2029 22.3 54.2154 22.2925C54.6606 21.9543 55.1109 21.6237 55.5662 21.3031C56.0164 20.9925 56.5119 20.7495 56.9823 20.474C57.0452 19.1038 57.0427 17.7387 56.927 16.376C56.8716 15.8199 56.849 15.2589 56.7861 14.7028L56.5245 13.0521C56.4943 12.8918 56.4541 12.7365 56.4214 12.5787C56.3157 12.0627 56.1975 11.5517 56.0592 11.0457C55.9485 10.6399 55.8378 10.2316 55.702 9.83333C55.6794 9.74566 55.6492 9.6605 55.619 9.57533C55.4706 9.13448 55.2643 8.72368 55.1008 8.28784C55.0002 8.02733 54.8518 7.79689 54.7311 7.5489C54.6003 7.30844 54.4871 7.05044 54.3286 6.82751C53.823 5.96583 53.1364 5.14925 52.422 4.55811C51.5919 4.8662 50.7644 5.23191 49.9922 5.71034C49.5445 5.95582 49.1269 6.2564 48.6918 6.52943C48.2767 6.83252 47.8592 7.1331 47.4542 7.44871C46.6393 8.07993 45.857 8.75625 45.115 9.47263C44.8307 9.73314 44.5591 10.0112 44.2874 10.2867C44.0133 10.5673 43.7416 10.8503 43.475 11.1409C43.3039 11.3287 43.1279 11.5116 42.9593 11.6995C42.8487 11.8222 42.7455 11.9499 42.6374 12.0727C41.3898 13.5055 40.2503 15.0334 39.2316 16.604C39.1134 16.7893 39.0103 16.9772 38.8971 17.165L38.8996 17.1676Z" fill="url(#paint5_linear_601_1475)"/>
<path d="M56.61 24.5618C56.532 24.6344 56.4565 24.7146 56.3761 24.7872C55.6944 25.3658 55.1259 26.0622 54.5122 26.7084C55.0153 27.3998 55.4932 28.1287 55.9082 28.9152C56.1245 29.3235 56.3283 29.7468 56.5094 30.1852C56.6452 30.5083 56.7659 30.8415 56.8766 31.1796C57.1885 32.1264 57.3973 33.1209 57.4853 34.1303C57.5457 34.8117 57.5532 35.4955 57.4979 36.1743C57.4904 36.2595 57.4778 36.3421 57.4702 36.4273C57.4426 36.7103 57.4048 36.9934 57.3596 37.2714C57.3143 37.552 57.2589 37.8325 57.1986 38.108C56.8992 39.4356 56.4188 40.6956 55.8126 41.8428C55.5712 42.2536 55.3171 42.6519 55.0631 43.0501C54.9197 43.2555 54.8342 43.4234 54.6405 43.6588C54.5751 43.7415 54.5072 43.8191 54.4418 43.8993L55.7598 43.4935C56.2553 43.3332 56.7383 43.1503 57.2262 42.98C57.7192 42.8222 58.1846 42.5992 58.6575 42.3989C59.1303 42.201 59.5982 41.9956 60.0484 41.7576C60.4987 41.5247 60.964 41.3168 61.4017 41.0663L62.6921 40.2823C63.1297 40.0368 63.5045 39.6986 63.9195 39.4256C64.327 39.14 64.737 38.857 65.0967 38.5163C65.1395 38.4763 65.1873 38.4412 65.23 38.4036C65.5595 38.1181 65.8916 37.835 66.2236 37.557L66.538 37.2389L67.3001 36.4674C67.436 36.3296 67.5743 36.1993 67.7127 36.0641C67.9415 35.8437 68.1704 35.6207 68.3817 35.3828C68.7112 34.9945 69.0483 34.6138 69.3879 34.2355C69.7325 33.8598 70.0695 33.4791 70.3663 33.0658L71.3071 31.8659C72.4767 30.2102 73.5809 28.4869 74.4185 26.6258C75.2838 24.7797 75.978 22.846 76.5113 20.8571L76.8785 19.3542C76.9791 18.8507 77.0898 18.3422 77.1753 17.8312C77.291 17.1274 77.3816 16.3909 77.4319 15.6846C73.6689 15.7096 69.8708 16.3759 66.4047 17.8813C65.63 18.217 64.8804 18.6027 64.1434 19.0085C63.6479 19.2815 63.1599 19.5671 62.682 19.8677C62.2141 20.1607 61.7538 20.4638 61.2986 20.7794C61.2105 20.8396 61.12 20.8972 61.0345 20.9598L59.7617 21.8691L59.4599 22.1145L58.5921 22.8209C58.4311 22.9537 58.2676 23.0764 58.1041 23.2016C57.8752 23.377 57.6463 23.5573 57.4375 23.7577C57.2891 23.9055 57.1357 24.0483 56.9848 24.1936C56.8565 24.3163 56.7307 24.4415 56.5999 24.5643L56.61 24.5618Z" fill="url(#paint6_linear_601_1475)"/>
<path d="M78.5362 15.6875L78.5286 15.6797C78.5286 15.6797 78.5286 15.6849 78.5286 15.6875C78.5311 15.6875 78.5337 15.6875 78.5362 15.6875Z" fill="white"/>
<path d="M37.8406 45.8582C37.8783 45.788 37.9186 45.7179 37.9563 45.6478C37.989 45.5901 38.0192 45.53 38.0519 45.4749C38.062 45.4599 38.0695 45.4399 38.0796 45.4248C38.0972 45.3948 38.1098 45.3622 38.1299 45.3347C38.1299 45.3296 38.1349 45.3271 38.1374 45.3246C38.1701 45.272 38.2104 45.2244 38.2431 45.1718C38.2883 45.1042 38.3336 45.0391 38.3814 44.9715C38.4694 44.8462 38.555 44.716 38.6506 44.5957C38.7411 44.4805 38.8367 44.3653 38.9323 44.2526C38.9926 44.1799 39.0505 44.1048 39.1134 44.0321C39.8328 43.2155 40.6628 42.5192 41.5432 41.908C42.4235 41.2943 43.3542 40.7658 44.3302 40.3425C44.4534 40.2924 44.5792 40.2523 44.7024 40.2072C45.042 40.082 45.3841 39.9693 45.7312 39.8666C45.7664 39.8565 45.8016 39.844 45.8394 39.834C46.1915 39.7363 46.5487 39.6561 46.9034 39.5785C47.0643 39.5434 47.2278 39.5059 47.3863 39.4683L47.8315 39.3631L48.0202 39.5109C48.5081 39.8916 48.9533 40.2673 49.4036 40.6456C49.4765 40.7082 49.552 40.7708 49.6275 40.8309L50.6487 41.66L51.0612 41.9957C51.109 41.8629 51.1618 41.7352 51.2171 41.6149C51.275 41.5072 51.3429 41.2693 51.4058 41.1065L51.6825 40.3725L51.8082 40.0419C51.9768 39.556 52.1151 39.075 52.2358 38.5941C52.266 38.4764 52.2962 38.3586 52.3239 38.2409C52.3516 38.1182 52.3843 37.9954 52.4094 37.8727C52.5452 37.2064 52.6308 36.5451 52.6484 35.8939C52.6936 34.5462 52.4849 33.2337 52.0371 31.9036C51.8837 31.4477 51.6875 30.9918 51.4737 30.5385C51.2071 29.9674 50.9027 29.3963 50.5556 28.8302C50.3745 28.5321 50.1859 28.234 49.9871 27.9384C49.8438 27.7205 49.6878 27.5026 49.5319 27.2847C49.2225 26.8463 48.9005 26.408 48.566 25.9671C48.1937 25.4286 47.6504 24.8925 47.0845 24.2964C46.0381 23.2368 44.9238 22.1497 43.8095 21.0876C43.3567 21.1352 42.9015 21.1979 42.4437 21.283C41.9985 21.3632 41.5558 21.4609 41.1156 21.5786C41.0074 21.6087 40.8967 21.6312 40.7886 21.6613C40.5672 21.7239 40.3484 21.8015 40.1271 21.8742C39.6768 22.022 39.2316 22.1898 38.7964 22.3751C38.5726 22.4703 38.3537 22.5705 38.1349 22.6757C37.7048 22.8836 37.2898 23.1141 36.8848 23.3621C36.5704 23.5549 36.2635 23.7578 35.9667 23.9757C35.7303 24.1486 35.4888 24.3214 35.2649 24.5118C34.9757 24.7548 34.709 25.0178 34.45 25.2908C34.1381 25.6189 33.8438 25.9596 33.5721 26.3128C33.3658 26.5983 33.1797 26.8964 33.0036 27.1945C32.7697 27.5903 32.5584 27.996 32.3798 28.4093C31.7812 29.8847 31.5095 31.4001 31.4768 32.9005C31.4617 33.2763 31.4542 33.6495 31.4693 34.0277C31.4668 34.401 31.4944 34.7817 31.5246 35.1649C31.5548 35.9339 31.6529 36.6729 31.756 37.4068C31.7938 37.6498 31.8441 37.8877 31.8893 38.1257C31.995 38.6692 32.1233 39.2053 32.2843 39.7338C32.3421 39.9292 32.41 40.1221 32.4779 40.3124C32.6138 40.6932 32.7647 41.0689 32.9433 41.4446C32.9433 41.4471 32.9458 41.4521 32.9483 41.4546C32.976 41.5122 32.9961 41.5724 33.0263 41.6325C33.0288 41.64 33.0338 41.6475 33.0389 41.655C33.1998 41.9807 33.3835 42.3038 33.5872 42.6194C33.6752 42.7547 33.7809 42.8824 33.8765 43.0127C34.0123 43.2005 34.1406 43.3934 34.2915 43.5737C34.8122 44.1949 35.4234 44.7635 36.1277 45.232C36.6257 45.5651 37.159 45.8482 37.7174 46.0836C37.7224 46.0711 37.7274 46.0586 37.7325 46.046C37.7626 45.9784 37.8054 45.9183 37.8381 45.8532L37.8406 45.8582Z" fill="url(#paint7_linear_601_1475)"/>
<path d="M54.9827 37.006C54.9827 37.006 54.9902 37.006 54.9927 37.0035C54.9927 36.9935 54.9952 36.981 54.9978 36.9709C54.9927 36.9835 54.9877 36.9935 54.9827 37.006Z" fill="white"/>
<path d="M52.3038 45.5751C52.4396 45.4548 52.5679 45.3321 52.6987 45.2119C52.5779 44.9514 52.4346 44.6934 52.2711 44.4404C52.1981 44.3302 52.1252 44.2174 52.0447 44.1097C51.9994 44.0471 51.9415 43.9945 51.8938 43.9344C51.8108 43.8292 51.7227 43.729 51.6322 43.6288C51.4058 43.3758 51.1643 43.1354 50.9077 42.9074C50.8373 42.8448 50.7744 42.7797 50.704 42.7195C50.6889 42.707 50.6688 42.6945 50.6537 42.682C50.4701 42.5292 50.2764 42.3889 50.0802 42.2486C49.7582 42.0232 49.4287 41.8103 49.0816 41.6224C48.981 41.5698 48.8728 41.5222 48.7672 41.4721C48.4226 41.3018 48.073 41.149 47.7183 41.0112C47.3511 41.2342 46.9863 41.4621 46.6141 41.665C46.433 41.7802 46.2468 41.8754 46.0632 41.9831C45.8142 42.1284 45.5677 42.2812 45.3162 42.414C45.2684 42.439 45.2206 42.4615 45.1728 42.4891C44.9439 42.6143 44.71 42.7321 44.4786 42.8498C43.8799 43.1554 43.2788 43.451 42.6927 43.7766C41.8224 44.2325 40.9672 44.7109 40.1245 45.2244C40.0918 45.2444 40.0591 45.267 40.0264 45.287C39.951 45.3321 39.8755 45.3797 39.8026 45.4273C39.717 45.4824 39.629 45.535 39.541 45.5901C39.5208 45.6026 39.5032 45.6152 39.4831 45.6277C39.385 45.6903 39.2894 45.7554 39.1939 45.8206C39.1184 45.8707 39.0404 45.9233 38.965 45.9734C38.9348 45.9934 38.9071 46.0134 38.8769 46.0335L38.5927 46.2364L38.4996 46.304L38.4468 46.3416L38.4242 46.3591L38.2632 46.4743L38.1097 46.5946L38.1047 46.5996L37.9639 46.7098L37.8431 46.8075L37.8129 46.83L37.7903 46.85L37.7425 46.8926L37.7148 46.9152C37.8683 47.0555 37.9865 47.1331 38.1223 47.2659C38.2758 47.4061 38.4216 47.5489 38.5801 47.6817C38.8794 47.9547 39.1989 48.2002 39.5133 48.4356C40.1497 48.894 40.8037 49.2798 41.4778 49.5503C42.1519 49.8183 42.8386 49.9836 43.5227 50.0462C43.8673 50.0713 44.2119 50.0763 44.5565 50.0638C44.7276 50.0462 44.9087 50.0387 45.0672 50.0212L45.5224 49.941C46.2946 49.7582 47.1171 49.415 47.9321 48.9566C48.1283 48.8464 48.322 48.7287 48.5157 48.606C48.727 48.4732 48.9357 48.3329 49.142 48.1851C49.2074 48.1375 49.2753 48.0925 49.3407 48.0449C49.9142 47.6215 50.4751 47.1632 51.031 46.6847C51.0788 46.6447 51.1266 46.6071 51.1744 46.5645C51.4083 46.3616 51.6498 46.1562 51.8887 45.9483C52.0296 45.8256 52.1629 45.7053 52.3012 45.5801L52.3038 45.5751Z" fill="url(#paint8_linear_601_1475)"/>
<path d="M91.9001 23.9146H93.2497V27.607C93.2497 28.9509 93.7554 29.6883 94.9346 29.6883C96.1137 29.6883 96.6222 28.9482 96.6222 27.607V7.12793H97.9718V27.6098C97.9718 29.7913 97.0609 30.9682 94.9374 30.9682C92.8138 30.9682 91.9029 29.794 91.9029 27.6098V23.9174L91.9001 23.9146Z" fill="#1D1D1B"/>
<path d="M109.302 26.2325H104.952L104.345 30.6316H102.962L106.469 7.0918H107.818L111.325 30.6316H109.942L109.302 26.2325ZM105.155 24.9553H109.134L108.156 18.1383L107.145 10.2471L106.133 18.1383L105.155 24.9553Z" fill="#1D1D1B"/>
<path d="M116.351 7.12793H119.724C122.085 7.12793 123.096 8.53865 123.096 11.1236V18.1076C123.096 20.6925 122.085 22.1366 119.724 22.1366H117.701V30.6316H116.351V7.12793ZM117.701 8.40509V20.8623H119.724C121.14 20.8623 121.747 19.855 121.747 18.1076V11.1236C121.747 9.37896 121.14 8.40509 119.724 8.40509H117.701Z" fill="#1D1D1B"/>
<path d="M133.583 26.2325H129.232L128.626 30.6316H127.243L130.75 7.0918H132.099L135.606 30.6316H134.223L133.583 26.2325ZM129.436 24.9553H133.415L132.437 18.1383L131.426 10.2471L130.414 18.1383L129.436 24.9553Z" fill="#1D1D1B"/>
<path d="M146.028 7.12793H147.377V30.6316H146.028L141.881 12.4313L141.982 16.8304V30.6316H140.632V7.12793H141.982L146.128 25.3281L146.028 20.929V7.12793Z" fill="#1D1D1B"/>
<path d="M164.542 30.9682C162.214 30.9682 161.236 29.6576 161.236 27.273V23.9146H162.586V27.273C162.586 28.8173 163.159 29.691 164.542 29.691C165.925 29.691 166.498 28.8173 166.498 27.273V23.244C166.498 20.7926 165.992 20.4225 164.542 19.6518C162.452 18.5778 161.236 18.2411 161.236 14.5153V10.4529C161.236 8.06832 162.214 6.79395 164.542 6.79395C166.869 6.79395 167.847 8.07111 167.847 10.4529V13.8448H166.498V10.4529C166.498 8.90863 165.925 8.06832 164.542 8.06832C163.159 8.06832 162.586 8.90863 162.586 10.4529V14.5153C162.586 16.9667 163.092 17.3368 164.542 18.1075C166.632 19.1816 167.847 19.5182 167.847 23.244V27.273C167.847 29.6576 166.869 30.9682 164.542 30.9682Z" fill="#1D1D1B"/>
<path d="M172.466 7.12803H179.884V8.43858H176.85V30.6344H175.5V8.43579H172.466V7.12524V7.12803Z" fill="#1D1D1B"/>
<path d="M188.756 21.7667V30.6317H187.406V21.7667L183.832 7.12524H185.182L187.442 16.5273L188.085 20.2892L188.725 16.5273L191.016 7.12524H192.366L188.758 21.7667H188.756Z" fill="#1D1D1B"/>
<path d="M202.648 30.6316H197.252V7.12793H198.602V29.3238H202.648V30.6343V30.6316Z" fill="#1D1D1B"/>
<path d="M213 8.4357H208.786V18.2412H212.327V19.5183H208.786V29.3238H213V30.6343H207.437V7.12793H213V8.43848V8.4357Z" fill="#1D1D1B"/>
<path d="M95.36 48C95.2667 48 95.192 47.972 95.136 47.916C95.08 47.86 95.052 47.7853 95.052 47.692V41.532H92.49C92.3967 41.532 92.322 41.504 92.266 41.448C92.21 41.392 92.182 41.3173 92.182 41.224V41.028C92.182 40.9347 92.21 40.86 92.266 40.804C92.322 40.748 92.3967 40.72 92.49 40.72H98.468C98.5613 40.72 98.636 40.748 98.692 40.804C98.748 40.86 98.776 40.9347 98.776 41.028V41.224C98.776 41.3173 98.748 41.392 98.692 41.448C98.636 41.504 98.5613 41.532 98.468 41.532H95.906V47.692C95.906 47.7853 95.878 47.86 95.822 47.916C95.766 47.972 95.6913 48 95.598 48H95.36ZM103.005 48.14C102.333 48.14 101.768 48 101.311 47.72C100.863 47.44 100.518 47.0573 100.275 46.572C100.042 46.0867 99.9157 45.5453 99.897 44.948C99.8877 44.808 99.883 44.612 99.883 44.36C99.883 44.108 99.8877 43.912 99.897 43.772C99.9157 43.1653 100.042 42.624 100.275 42.148C100.518 41.6627 100.863 41.28 101.311 41C101.768 40.72 102.333 40.58 103.005 40.58C103.677 40.58 104.237 40.72 104.685 41C105.142 41.28 105.488 41.6627 105.721 42.148C105.964 42.624 106.094 43.1653 106.113 43.772C106.122 43.912 106.127 44.108 106.127 44.36C106.127 44.612 106.122 44.808 106.113 44.948C106.094 45.5453 105.964 46.0867 105.721 46.572C105.488 47.0573 105.142 47.44 104.685 47.72C104.237 48 103.677 48.14 103.005 48.14ZM103.005 47.328C103.658 47.328 104.19 47.118 104.601 46.698C105.012 46.278 105.231 45.6713 105.259 44.878C105.268 44.738 105.273 44.5653 105.273 44.36C105.273 44.1547 105.268 43.982 105.259 43.842C105.231 43.0393 105.012 42.4327 104.601 42.022C104.19 41.602 103.658 41.392 103.005 41.392C102.352 41.392 101.82 41.602 101.409 42.022C100.998 42.4327 100.779 43.0393 100.751 43.842C100.742 43.982 100.737 44.1547 100.737 44.36C100.737 44.5653 100.742 44.738 100.751 44.878C100.779 45.6713 100.998 46.278 101.409 46.698C101.82 47.118 102.352 47.328 103.005 47.328ZM108.488 48C108.394 48 108.32 47.972 108.264 47.916C108.208 47.86 108.18 47.7853 108.18 47.692V41.028C108.18 40.9347 108.208 40.86 108.264 40.804C108.32 40.748 108.394 40.72 108.488 40.72H111.246C112.02 40.72 112.613 40.8927 113.024 41.238C113.444 41.5833 113.654 42.0453 113.654 42.624C113.654 43.072 113.57 43.4033 113.402 43.618C113.234 43.8327 112.991 44.0147 112.674 44.164C113.047 44.304 113.327 44.5513 113.514 44.906C113.7 45.2607 113.794 45.6153 113.794 45.97C113.794 46.6327 113.565 47.1367 113.108 47.482C112.66 47.8273 112.062 48 111.316 48H108.488ZM109.034 47.188H111.204C111.717 47.188 112.132 47.0853 112.45 46.88C112.776 46.6747 112.94 46.3713 112.94 45.97C112.94 45.5407 112.795 45.228 112.506 45.032C112.216 44.836 111.782 44.738 111.204 44.738H109.034V47.188ZM109.034 43.926H111.106C111.619 43.926 112.03 43.8093 112.338 43.576C112.646 43.3427 112.8 43.0253 112.8 42.624C112.8 42.2133 112.646 41.9287 112.338 41.77C112.03 41.6113 111.619 41.532 111.106 41.532H109.034V43.926ZM117.868 48.14C117.42 48.14 117.004 48.0467 116.622 47.86C116.248 47.6733 115.945 47.426 115.712 47.118C115.478 46.8007 115.362 46.446 115.362 46.054C115.362 45.4193 115.618 44.9107 116.132 44.528C116.645 44.1453 117.312 43.898 118.134 43.786L120.346 43.478V42.988C120.346 42.4933 120.192 42.106 119.884 41.826C119.585 41.5367 119.104 41.392 118.442 41.392C117.956 41.392 117.564 41.49 117.266 41.686C116.967 41.8727 116.762 42.12 116.65 42.428C116.603 42.568 116.514 42.638 116.384 42.638H116.16C116.048 42.638 115.968 42.61 115.922 42.554C115.875 42.4887 115.852 42.414 115.852 42.33C115.852 42.1993 115.898 42.036 115.992 41.84C116.094 41.644 116.248 41.4527 116.454 41.266C116.659 41.07 116.925 40.9067 117.252 40.776C117.578 40.6453 117.975 40.58 118.442 40.58C118.992 40.58 119.445 40.6547 119.8 40.804C120.164 40.9533 120.444 41.1493 120.64 41.392C120.845 41.6253 120.99 41.8867 121.074 42.176C121.158 42.4653 121.2 42.75 121.2 43.03V47.692C121.2 47.7853 121.172 47.86 121.116 47.916C121.06 47.972 120.985 48 120.892 48H120.654C120.56 48 120.486 47.972 120.43 47.916C120.374 47.86 120.346 47.7853 120.346 47.692V47.034C120.234 47.202 120.075 47.37 119.87 47.538C119.664 47.706 119.398 47.8507 119.072 47.972C118.754 48.084 118.353 48.14 117.868 48.14ZM118.008 47.328C118.437 47.328 118.829 47.2347 119.184 47.048C119.538 46.8613 119.818 46.5767 120.024 46.194C120.238 45.802 120.346 45.312 120.346 44.724V44.248L118.54 44.5C117.774 44.6027 117.196 44.78 116.804 45.032C116.412 45.284 116.216 45.6013 116.216 45.984C116.216 46.292 116.304 46.544 116.482 46.74C116.659 46.936 116.883 47.0853 117.154 47.188C117.434 47.2813 117.718 47.328 118.008 47.328ZM123.875 50.66C123.782 50.66 123.707 50.632 123.651 50.576C123.595 50.52 123.567 50.4453 123.567 50.352V41.028C123.567 40.9347 123.595 40.86 123.651 40.804C123.707 40.748 123.782 40.72 123.875 40.72H124.113C124.207 40.72 124.281 40.748 124.337 40.804C124.393 40.86 124.421 40.9347 124.421 41.028V41.686C124.655 41.3687 124.958 41.1073 125.331 40.902C125.714 40.6873 126.195 40.58 126.773 40.58C127.324 40.58 127.786 40.678 128.159 40.874C128.533 41.0607 128.836 41.3127 129.069 41.63C129.303 41.9473 129.475 42.302 129.587 42.694C129.699 43.086 129.76 43.4873 129.769 43.898C129.779 44.038 129.783 44.192 129.783 44.36C129.783 44.528 129.779 44.682 129.769 44.822C129.76 45.2327 129.699 45.634 129.587 46.026C129.475 46.418 129.303 46.7727 129.069 47.09C128.836 47.4073 128.533 47.664 128.159 47.86C127.786 48.0467 127.324 48.14 126.773 48.14C126.195 48.14 125.714 48.0327 125.331 47.818C124.958 47.6033 124.655 47.342 124.421 47.034V50.352C124.421 50.4453 124.393 50.52 124.337 50.576C124.281 50.632 124.207 50.66 124.113 50.66H123.875ZM126.689 47.328C127.24 47.328 127.674 47.2067 127.991 46.964C128.309 46.7213 128.537 46.404 128.677 46.012C128.817 45.62 128.897 45.2 128.915 44.752C128.925 44.4907 128.925 44.2293 128.915 43.968C128.897 43.52 128.817 43.1 128.677 42.708C128.537 42.316 128.309 41.9987 127.991 41.756C127.674 41.5133 127.24 41.392 126.689 41.392C126.157 41.392 125.728 41.518 125.401 41.77C125.075 42.022 124.832 42.3393 124.673 42.722C124.524 43.0953 124.44 43.4733 124.421 43.856C124.412 43.996 124.407 44.178 124.407 44.402C124.407 44.626 124.412 44.808 124.421 44.948C124.431 45.3213 124.515 45.69 124.673 46.054C124.841 46.418 125.089 46.7213 125.415 46.964C125.751 47.2067 126.176 47.328 126.689 47.328ZM132.136 48C132.043 48 131.968 47.972 131.912 47.916C131.856 47.86 131.828 47.7853 131.828 47.692V41.028C131.828 40.9347 131.856 40.86 131.912 40.804C131.968 40.748 132.043 40.72 132.136 40.72H132.374C132.467 40.72 132.542 40.748 132.598 40.804C132.654 40.86 132.682 40.9347 132.682 41.028V43.156H134.222C135.174 43.156 135.851 43.38 136.252 43.828C136.663 44.276 136.868 44.878 136.868 45.634C136.868 46.4553 136.635 47.0573 136.168 47.44C135.711 47.8133 134.992 48 134.012 48H132.136ZM132.682 47.188H134.138C134.791 47.188 135.267 47.076 135.566 46.852C135.865 46.6187 136.014 46.2127 136.014 45.634C136.014 45.074 135.869 44.6587 135.58 44.388C135.291 44.108 134.81 43.968 134.138 43.968H132.682V47.188ZM138.24 48C138.147 48 138.072 47.972 138.016 47.916C137.96 47.86 137.932 47.7853 137.932 47.692V41.028C137.932 40.9347 137.96 40.86 138.016 40.804C138.072 40.748 138.147 40.72 138.24 40.72H138.478C138.571 40.72 138.646 40.748 138.702 40.804C138.758 40.86 138.786 40.9347 138.786 41.028V47.692C138.786 47.7853 138.758 47.86 138.702 47.916C138.646 47.972 138.571 48 138.478 48H138.24ZM145.226 48C145.151 48 145.086 47.972 145.03 47.916C144.974 47.86 144.946 47.7947 144.946 47.72V41.028C144.946 40.9347 144.974 40.86 145.03 40.804C145.086 40.748 145.161 40.72 145.254 40.72H145.492C145.585 40.72 145.66 40.748 145.716 40.804C145.772 40.86 145.8 40.9347 145.8 41.028V47.314L145.548 46.908L150.112 40.93C150.159 40.874 150.205 40.8273 150.252 40.79C150.308 40.7433 150.383 40.72 150.476 40.72H150.742C150.817 40.72 150.882 40.748 150.938 40.804C150.994 40.8507 151.022 40.9113 151.022 40.986V47.692C151.022 47.7853 150.994 47.86 150.938 47.916C150.882 47.972 150.807 48 150.714 48H150.476C150.383 48 150.308 47.972 150.252 47.916C150.196 47.86 150.168 47.7853 150.168 47.692V41.826L150.462 41.756L145.856 47.79C145.819 47.8367 145.772 47.8833 145.716 47.93C145.66 47.9767 145.585 48 145.492 48H145.226ZM155.736 48.14C155.223 48.14 154.789 48.0747 154.434 47.944C154.079 47.8133 153.79 47.6453 153.566 47.44C153.351 47.2347 153.193 47.02 153.09 46.796C152.987 46.572 152.936 46.362 152.936 46.166C152.936 46.082 152.964 46.0167 153.02 45.97C153.076 45.914 153.146 45.886 153.23 45.886H153.468C153.552 45.886 153.622 45.9093 153.678 45.956C153.734 45.9933 153.776 46.068 153.804 46.18C153.925 46.6187 154.168 46.922 154.532 47.09C154.905 47.2487 155.353 47.328 155.876 47.328C156.212 47.328 156.525 47.2813 156.814 47.188C157.103 47.0947 157.332 46.95 157.5 46.754C157.677 46.5487 157.766 46.292 157.766 45.984C157.766 45.536 157.64 45.2 157.388 44.976C157.136 44.752 156.753 44.64 156.24 44.64H155.484C155.391 44.64 155.316 44.612 155.26 44.556C155.204 44.5 155.176 44.4253 155.176 44.332V44.136C155.176 44.0427 155.204 43.968 155.26 43.912C155.316 43.856 155.391 43.828 155.484 43.828H156.142C156.562 43.828 156.889 43.744 157.122 43.576C157.365 43.408 157.486 43.1327 157.486 42.75C157.486 42.526 157.43 42.3113 157.318 42.106C157.215 41.9007 157.038 41.7327 156.786 41.602C156.534 41.462 156.184 41.392 155.736 41.392C155.111 41.392 154.672 41.504 154.42 41.728C154.177 41.9427 154.005 42.26 153.902 42.68C153.874 42.792 153.832 42.8713 153.776 42.918C153.72 42.9553 153.65 42.974 153.566 42.974H153.328C153.244 42.974 153.174 42.9507 153.118 42.904C153.062 42.848 153.034 42.778 153.034 42.694C153.034 42.3953 153.09 42.12 153.202 41.868C153.323 41.616 153.496 41.392 153.72 41.196C153.953 41 154.238 40.8507 154.574 40.748C154.91 40.636 155.297 40.58 155.736 40.58C156.389 40.58 156.903 40.692 157.276 40.916C157.659 41.14 157.929 41.4107 158.088 41.728C158.256 42.036 158.34 42.33 158.34 42.61C158.34 42.9927 158.279 43.3007 158.158 43.534C158.046 43.7673 157.827 43.968 157.5 44.136C157.92 44.304 158.209 44.5467 158.368 44.864C158.527 45.172 158.611 45.5453 158.62 45.984C158.629 46.4787 158.503 46.8847 158.242 47.202C157.99 47.5193 157.645 47.7573 157.206 47.916C156.767 48.0653 156.277 48.14 155.736 48.14ZM170.184 48C170.091 48 170.011 47.972 169.946 47.916C169.89 47.86 169.862 47.7853 169.862 47.692V44.122H167.44C166.815 44.122 166.283 44.01 165.844 43.786C165.405 43.562 165.069 43.2353 164.836 42.806C164.612 42.3673 164.5 41.8307 164.5 41.196C164.5 40.7107 164.603 40.2393 164.808 39.782C165.013 39.3247 165.331 38.9467 165.76 38.648C166.199 38.3493 166.759 38.2 167.44 38.2H170.436C170.529 38.2 170.604 38.228 170.66 38.284C170.716 38.34 170.744 38.4147 170.744 38.508V47.692C170.744 47.7853 170.716 47.86 170.66 47.916C170.604 47.972 170.529 48 170.436 48H170.184ZM164.612 48C164.537 48 164.472 47.972 164.416 47.916C164.36 47.86 164.332 47.7947 164.332 47.72C164.332 47.6733 164.346 47.622 164.374 47.566L167.02 43.534L167.93 43.66L165.312 47.622C165.247 47.7153 165.181 47.804 165.116 47.888C165.051 47.9627 164.939 48 164.78 48H164.612ZM167.58 43.282H169.862V39.04H167.58C166.889 39.04 166.348 39.2407 165.956 39.642C165.573 40.0433 165.382 40.5753 165.382 41.238C165.382 41.9193 165.559 42.4327 165.914 42.778C166.278 43.114 166.833 43.282 167.58 43.282ZM173.636 48C173.543 48 173.468 47.972 173.412 47.916C173.356 47.86 173.328 47.7853 173.328 47.692V41.028C173.328 40.9347 173.356 40.86 173.412 40.804C173.468 40.748 173.543 40.72 173.636 40.72H178.816C178.91 40.72 178.984 40.748 179.04 40.804C179.096 40.86 179.124 40.9347 179.124 41.028V47.692C179.124 47.7853 179.096 47.86 179.04 47.916C178.984 47.972 178.91 48 178.816 48H178.578C178.485 48 178.41 47.972 178.354 47.916C178.298 47.86 178.27 47.7853 178.27 47.692V41.532H174.182V47.692C174.182 47.7853 174.154 47.86 174.098 47.916C174.042 47.972 173.968 48 173.874 48H173.636ZM184.307 48.14C183.635 48.14 183.07 48 182.613 47.72C182.165 47.44 181.819 47.0573 181.577 46.572C181.343 46.0867 181.217 45.5453 181.199 44.948C181.189 44.808 181.185 44.612 181.185 44.36C181.185 44.108 181.189 43.912 181.199 43.772C181.217 43.1653 181.343 42.624 181.577 42.148C181.819 41.6627 182.165 41.28 182.613 41C183.07 40.72 183.635 40.58 184.307 40.58C184.979 40.58 185.539 40.72 185.987 41C186.444 41.28 186.789 41.6627 187.023 42.148C187.265 42.624 187.396 43.1653 187.415 43.772C187.424 43.912 187.429 44.108 187.429 44.36C187.429 44.612 187.424 44.808 187.415 44.948C187.396 45.5453 187.265 46.0867 187.023 46.572C186.789 47.0573 186.444 47.44 185.987 47.72C185.539 48 184.979 48.14 184.307 48.14ZM184.307 47.328C184.96 47.328 185.492 47.118 185.903 46.698C186.313 46.278 186.533 45.6713 186.561 44.878C186.57 44.738 186.575 44.5653 186.575 44.36C186.575 44.1547 186.57 43.982 186.561 43.842C186.533 43.0393 186.313 42.4327 185.903 42.022C185.492 41.602 184.96 41.392 184.307 41.392C183.653 41.392 183.121 41.602 182.711 42.022C182.3 42.4327 182.081 43.0393 182.053 43.842C182.043 43.982 182.039 44.1547 182.039 44.36C182.039 44.5653 182.043 44.738 182.053 44.878C182.081 45.6713 182.3 46.278 182.711 46.698C183.121 47.118 183.653 47.328 184.307 47.328ZM189.789 48C189.696 48 189.621 47.972 189.565 47.916C189.509 47.86 189.481 47.7853 189.481 47.692V41.028C189.481 40.9347 189.509 40.86 189.565 40.804C189.621 40.748 189.696 40.72 189.789 40.72H190.027C190.121 40.72 190.195 40.748 190.251 40.804C190.307 40.86 190.335 40.9347 190.335 41.028V43.87H194.703V41.028C194.703 40.9347 194.731 40.86 194.787 40.804C194.843 40.748 194.918 40.72 195.011 40.72H195.249C195.343 40.72 195.417 40.748 195.473 40.804C195.529 40.86 195.557 40.9347 195.557 41.028V47.692C195.557 47.7853 195.529 47.86 195.473 47.916C195.417 47.972 195.343 48 195.249 48H195.011C194.918 48 194.843 47.972 194.787 47.916C194.731 47.86 194.703 47.7853 194.703 47.692V44.682H190.335V47.692C190.335 47.7853 190.307 47.86 190.251 47.916C190.195 47.972 190.121 48 190.027 48H189.789ZM198.241 48C198.167 48 198.101 47.972 198.045 47.916C197.989 47.86 197.961 47.7947 197.961 47.72V41.028C197.961 40.9347 197.989 40.86 198.045 40.804C198.101 40.748 198.176 40.72 198.269 40.72H198.507C198.601 40.72 198.675 40.748 198.731 40.804C198.787 40.86 198.815 40.9347 198.815 41.028V47.314L198.563 46.908L203.127 40.93C203.174 40.874 203.221 40.8273 203.267 40.79C203.323 40.7433 203.398 40.72 203.491 40.72H203.757C203.832 40.72 203.897 40.748 203.953 40.804C204.009 40.8507 204.037 40.9113 204.037 40.986V47.692C204.037 47.7853 204.009 47.86 203.953 47.916C203.897 47.972 203.823 48 203.729 48H203.491C203.398 48 203.323 47.972 203.267 47.916C203.211 47.86 203.183 47.7853 203.183 47.692V41.826L203.477 41.756L198.871 47.79C198.834 47.8367 198.787 47.8833 198.731 47.93C198.675 47.9767 198.601 48 198.507 48H198.241ZM206.721 48C206.646 48 206.581 47.972 206.525 47.916C206.469 47.86 206.441 47.7947 206.441 47.72V41.028C206.441 40.9347 206.469 40.86 206.525 40.804C206.581 40.748 206.656 40.72 206.749 40.72H206.987C207.08 40.72 207.155 40.748 207.211 40.804C207.267 40.86 207.295 40.9347 207.295 41.028V47.314L207.043 46.908L211.607 40.93C211.654 40.874 211.7 40.8273 211.747 40.79C211.803 40.7433 211.878 40.72 211.971 40.72H212.237C212.312 40.72 212.377 40.748 212.433 40.804C212.489 40.8507 212.517 40.9113 212.517 40.986V47.692C212.517 47.7853 212.489 47.86 212.433 47.916C212.377 47.972 212.302 48 212.209 48H211.971C211.878 48 211.803 47.972 211.747 47.916C211.691 47.86 211.663 47.7853 211.663 47.692V41.826L211.957 41.756L207.351 47.79C207.314 47.8367 207.267 47.8833 207.211 47.93C207.155 47.9767 207.08 48 206.987 48H206.721Z" fill="#1D1D1B"/>
<defs>
<linearGradient id="paint0_linear_601_1475" x1="33.5897" y1="9.58037" x2="42.1519" y2="9.58037" gradientUnits="userSpaceOnUse">
<stop stop-color="#ED6C9B"/>
<stop offset="1" stop-color="#EF7EA8"/>
</linearGradient>
<linearGradient id="paint1_linear_601_1475" x1="-0.00503066" y1="32.1566" x2="21.984" y2="32.1566" gradientUnits="userSpaceOnUse">
<stop stop-color="#EF7FAA"/>
<stop offset="0.14" stop-color="#EE78A5"/>
<stop offset="0.61" stop-color="#EC6A9A"/>
<stop offset="1" stop-color="#EC6597"/>
</linearGradient>
<linearGradient id="paint2_linear_601_1475" x1="27.1254" y1="39.095" x2="27.1254" y2="4.23486" gradientUnits="userSpaceOnUse">
<stop stop-color="#EF7FAA"/>
<stop offset="0.06" stop-color="#EF83AD"/>
<stop offset="0.41" stop-color="#F29CBD"/>
<stop offset="0.73" stop-color="#F4AAC7"/>
<stop offset="1" stop-color="#F5B0CB"/>
</linearGradient>
<linearGradient id="paint3_linear_601_1475" x1="51.6724" y1="45.6802" x2="81.6376" y2="45.6802" gradientUnits="userSpaceOnUse">
<stop stop-color="#2E8E95"/>
<stop offset="0.35" stop-color="#44A5AC"/>
<stop offset="0.74" stop-color="#57B9BF"/>
<stop offset="1" stop-color="#5EC0C6"/>
</linearGradient>
<linearGradient id="paint4_linear_601_1475" x1="8.55967" y1="46.5494" x2="37.4583" y2="46.5494" gradientUnits="userSpaceOnUse">
<stop stop-color="#5EC0C6"/>
<stop offset="0.26" stop-color="#57B9BF"/>
<stop offset="0.65" stop-color="#44A5AC"/>
<stop offset="1" stop-color="#2E8E95"/>
</linearGradient>
<linearGradient id="paint5_linear_601_1475" x1="46.8254" y1="23.9908" x2="46.8254" y2="4.56061" gradientUnits="userSpaceOnUse">
<stop stop-color="#EF7EA8"/>
<stop offset="0.04" stop-color="#EF83AB"/>
<stop offset="0.2" stop-color="#F297B9"/>
<stop offset="0.38" stop-color="#F3A5C3"/>
<stop offset="0.61" stop-color="#F4ADC9"/>
<stop offset="1" stop-color="#F5B0CB"/>
</linearGradient>
<linearGradient id="paint6_linear_601_1475" x1="54.4493" y1="29.7894" x2="77.4369" y2="29.7894" gradientUnits="userSpaceOnUse">
<stop stop-color="#ED6C9B"/>
<stop offset="1" stop-color="#EF7EA8"/>
</linearGradient>
<linearGradient id="paint7_linear_601_1475" x1="42.0613" y1="46.0861" x2="42.0613" y2="21.0876" gradientUnits="userSpaceOnUse">
<stop stop-color="#EF7EA8"/>
<stop offset="0.24" stop-color="#F298BA"/>
<stop offset="0.52" stop-color="#F4B1CB"/>
<stop offset="0.78" stop-color="#F6BFD6"/>
<stop offset="1" stop-color="#F7C5DA"/>
</linearGradient>
<linearGradient id="paint8_linear_601_1475" x1="37.7199" y1="45.5375" x2="52.6987" y2="45.5375" gradientUnits="userSpaceOnUse">
<stop stop-color="#F29DBF"/>
<stop offset="0.34" stop-color="#F4B1CC"/>
<stop offset="0.7" stop-color="#F6BFD6"/>
<stop offset="1" stop-color="#F7C5DA"/>
</linearGradient>
</defs>
</svg>
