<svg width="100" height="30" viewBox="0 0 100 30" fill="none" xmlns="http://www.w3.org/2000/svg">
<path d="M4.64762 12C4.03475 12 3.45025 11.9278 2.89412 11.7833C2.34935 11.6278 1.86132 11.3944 1.43004 11.0833C0.998757 10.7722 0.652597 10.3889 0.391558 9.93333C0.141869 9.47778 0.0113495 8.93889 0 8.31667C0 8.21667 0.0340485 8.13333 0.102146 8.06667C0.170243 7.98889 0.255364 7.95 0.35751 7.95H1.97481C2.12236 7.95 2.23018 7.98889 2.29828 8.06667C2.37772 8.14444 2.44014 8.25 2.48554 8.38333C2.54229 8.78333 2.67281 9.11111 2.8771 9.36667C3.08139 9.61111 3.33676 9.79444 3.64319 9.91667C3.96098 10.0278 4.31281 10.0833 4.6987 10.0833C5.41372 10.0833 5.95849 9.85556 6.33303 9.4C6.71891 8.94444 6.91185 8.31111 6.91185 7.5V2.13333H1.14063C1.01578 2.13333 0.913636 2.09444 0.834189 2.01667C0.766092 1.93889 0.732043 1.84444 0.732043 1.73333V0.566666C0.732043 0.455555 0.766092 0.361111 0.834189 0.283334C0.913636 0.205556 1.01578 0.166666 1.14063 0.166666H8.92071C9.04556 0.166666 9.14771 0.205556 9.22715 0.283334C9.3066 0.361111 9.34632 0.461111 9.34632 0.583334V7.56667C9.34632 8.48889 9.14771 9.28333 8.75047 9.95C8.36459 10.6167 7.81981 11.1278 7.11614 11.4833C6.42382 11.8278 5.60098 12 4.64762 12Z" fill="#161D25"/>
<path d="M14.5628 12C13.9726 12 13.4392 11.8889 12.9625 11.6667C12.4858 11.4333 12.1056 11.1278 11.8219 10.75C11.5495 10.3611 11.4133 9.92778 11.4133 9.45C11.4133 8.67222 11.7311 8.05556 12.3667 7.6C13.0136 7.13333 13.8648 6.82222 14.9203 6.66667L17.2526 6.33333V5.98333C17.2526 5.51667 17.1335 5.15556 16.8951 4.9C16.6568 4.64444 16.2482 4.51667 15.6694 4.51667C15.2608 4.51667 14.926 4.6 14.6649 4.76667C14.4153 4.92222 14.228 5.13333 14.1031 5.4C14.0123 5.54444 13.8818 5.61667 13.7116 5.61667H12.3667C12.2418 5.61667 12.1454 5.58333 12.0773 5.51667C12.0205 5.45 11.9921 5.36111 11.9921 5.25C12.0035 5.07222 12.0773 4.85556 12.2134 4.6C12.3496 4.34444 12.5653 4.1 12.8604 3.86667C13.1555 3.62222 13.5357 3.41667 14.001 3.25C14.4663 3.08333 15.0281 3 15.6864 3C16.4014 3 17.0029 3.08889 17.491 3.26667C17.9903 3.43333 18.3876 3.66111 18.6827 3.95C18.9778 4.23889 19.1934 4.57778 19.3296 4.96667C19.4658 5.35556 19.5339 5.76667 19.5339 6.2V11.4333C19.5339 11.5444 19.4942 11.6389 19.4147 11.7167C19.3353 11.7944 19.2388 11.8333 19.1253 11.8333H17.7463C17.6215 11.8333 17.5193 11.7944 17.4399 11.7167C17.3718 11.6389 17.3378 11.5444 17.3378 11.4333V10.7833C17.1902 10.9944 16.9916 11.1944 16.7419 11.3833C16.4922 11.5611 16.1858 11.7111 15.8226 11.8333C15.4708 11.9444 15.0508 12 14.5628 12ZM15.1416 10.4167C15.5389 10.4167 15.8964 10.3333 16.2141 10.1667C16.5433 10 16.7986 9.74444 16.9802 9.4C17.1732 9.04444 17.2697 8.6 17.2697 8.06667V7.71667L15.5672 7.98333C14.8976 8.08333 14.3982 8.24444 14.0691 8.46667C13.74 8.68889 13.5754 8.96111 13.5754 9.28333C13.5754 9.52778 13.6492 9.73889 13.7967 9.91667C13.9556 10.0833 14.1542 10.2111 14.3926 10.3C14.6309 10.3778 14.8806 10.4167 15.1416 10.4167Z" fill="#161D25"/>
<path d="M22.484 15C22.3705 15 22.274 14.9611 22.1946 14.8833C22.1151 14.8056 22.0754 14.7111 22.0754 14.6V3.56667C22.0754 3.45556 22.1151 3.36111 22.1946 3.28333C22.274 3.20556 22.3705 3.16667 22.484 3.16667H23.8289C23.9538 3.16667 24.0502 3.20556 24.1183 3.28333C24.1978 3.36111 24.2375 3.45556 24.2375 3.56667V4.23333C24.5099 3.87778 24.8674 3.58333 25.31 3.35C25.7527 3.11667 26.3031 3 26.9614 3C27.5629 3 28.085 3.09444 28.5276 3.28333C28.9702 3.47222 29.3391 3.74444 29.6342 4.1C29.9293 4.44444 30.1563 4.85556 30.3152 5.33333C30.4741 5.81111 30.5649 6.33889 30.5876 6.91667C30.5989 7.10555 30.6046 7.3 30.6046 7.5C30.6046 7.7 30.5989 7.9 30.5876 8.1C30.5762 8.65555 30.4911 9.17222 30.3322 9.65C30.1733 10.1167 29.9406 10.5278 29.6342 10.8833C29.3391 11.2278 28.9702 11.5 28.5276 11.7C28.085 11.9 27.5629 12 26.9614 12C26.3485 12 25.8264 11.8944 25.3951 11.6833C24.9639 11.4611 24.612 11.1722 24.3396 10.8167V14.6C24.3396 14.7111 24.2999 14.8056 24.2205 14.8833C24.1524 14.9611 24.0559 15 23.9311 15H22.484ZM26.3315 10.2167C26.8195 10.2167 27.1997 10.1167 27.4721 9.91667C27.7445 9.70556 27.9374 9.43333 28.0509 9.1C28.1758 8.76667 28.2496 8.4 28.2723 8C28.295 7.66667 28.295 7.33333 28.2723 7C28.2496 6.6 28.1758 6.23333 28.0509 5.9C27.9374 5.56667 27.7445 5.3 27.4721 5.1C27.1997 4.88889 26.8195 4.78333 26.3315 4.78333C25.8662 4.78333 25.4859 4.88889 25.1909 5.1C24.9071 5.31111 24.6972 5.58333 24.561 5.91667C24.4361 6.23889 24.3623 6.57222 24.3396 6.91667C24.3283 7.11667 24.3226 7.32778 24.3226 7.55C24.3226 7.77222 24.3283 7.98889 24.3396 8.2C24.351 8.53333 24.4304 8.85555 24.578 9.16667C24.7255 9.46667 24.9412 9.71667 25.2249 9.91667C25.5086 10.1167 25.8775 10.2167 26.3315 10.2167Z" fill="#161D25"/>
<path d="M35.4268 12C34.8367 12 34.3032 11.8889 33.8265 11.6667C33.3499 11.4333 32.9697 11.1278 32.6859 10.75C32.4135 10.3611 32.2773 9.92778 32.2773 9.45C32.2773 8.67222 32.5951 8.05556 33.2307 7.6C33.8776 7.13333 34.7288 6.82222 35.7843 6.66667L38.1167 6.33333V5.98333C38.1167 5.51667 37.9975 5.15556 37.7592 4.9C37.5208 4.64444 37.1122 4.51667 36.5334 4.51667C36.1248 4.51667 35.79 4.6 35.529 4.76667C35.2793 4.92222 35.092 5.13333 34.9672 5.4C34.8764 5.54444 34.7459 5.61667 34.5756 5.61667H33.2307C33.1059 5.61667 33.0094 5.58333 32.9413 5.51667C32.8845 5.45 32.8562 5.36111 32.8562 5.25C32.8675 5.07222 32.9413 4.85556 33.0775 4.6C33.2137 4.34444 33.4293 4.1 33.7244 3.86667C34.0195 3.62222 34.3997 3.41667 34.865 3.25C35.3304 3.08333 35.8922 3 36.5504 3C37.2654 3 37.867 3.08889 38.355 3.26667C38.8544 3.43333 39.2516 3.66111 39.5467 3.95C39.8418 4.23889 40.0574 4.57778 40.1936 4.96667C40.3298 5.35556 40.3979 5.76667 40.3979 6.2V11.4333C40.3979 11.5444 40.3582 11.6389 40.2787 11.7167C40.1993 11.7944 40.1028 11.8333 39.9893 11.8333H38.6104C38.4855 11.8333 38.3834 11.7944 38.3039 11.7167C38.2358 11.6389 38.2018 11.5444 38.2018 11.4333V10.7833C38.0542 10.9944 37.8556 11.1944 37.6059 11.3833C37.3562 11.5611 37.0498 11.7111 36.6866 11.8333C36.3348 11.9444 35.9149 12 35.4268 12ZM36.0057 10.4167C36.4029 10.4167 36.7604 10.3333 37.0782 10.1667C37.4073 10 37.6627 9.74444 37.8443 9.4C38.0372 9.04444 38.1337 8.6 38.1337 8.06667V7.71667L36.4313 7.98333C35.7616 8.08333 35.2623 8.24444 34.9331 8.46667C34.604 8.68889 34.4394 8.96111 34.4394 9.28333C34.4394 9.52778 34.5132 9.73889 34.6607 9.91667C34.8196 10.0833 35.0182 10.2111 35.2566 10.3C35.4949 10.3778 35.7446 10.4167 36.0057 10.4167Z" fill="#161D25"/>
<path d="M43.331 11.8333C43.2175 11.8333 43.121 11.7944 43.0416 11.7167C42.9621 11.6389 42.9224 11.5444 42.9224 11.4333V3.56667C42.9224 3.45556 42.9621 3.36111 43.0416 3.28333C43.121 3.20556 43.2175 3.16667 43.331 3.16667H44.727C44.8405 3.16667 44.937 3.20556 45.0164 3.28333C45.0959 3.36111 45.1356 3.45556 45.1356 3.56667V4.25C45.4307 3.89444 45.8052 3.6 46.2592 3.36667C46.7245 3.12222 47.2977 3 47.9786 3C48.671 3 49.2725 3.15556 49.7832 3.46667C50.2939 3.76667 50.6855 4.19444 50.9579 4.75C51.2416 5.30556 51.3835 5.97222 51.3835 6.75V11.4333C51.3835 11.5444 51.3438 11.6389 51.2643 11.7167C51.1849 11.7944 51.0884 11.8333 50.9749 11.8333H49.4768C49.3633 11.8333 49.2668 11.7944 49.1874 11.7167C49.1079 11.6389 49.0682 11.5444 49.0682 11.4333V6.85C49.0682 6.20556 48.9036 5.7 48.5745 5.33333C48.2567 4.96667 47.7914 4.78333 47.1785 4.78333C46.5883 4.78333 46.1173 4.96667 45.7655 5.33333C45.4136 5.7 45.2377 6.20556 45.2377 6.85V11.4333C45.2377 11.5444 45.198 11.6389 45.1186 11.7167C45.0391 11.7944 44.9426 11.8333 44.8291 11.8333H43.331Z" fill="#161D25"/>
<path d="M62.4584 12C61.4029 12 60.5177 11.85 59.8027 11.55C59.099 11.2389 58.5599 10.8389 58.1853 10.35C57.8222 9.85 57.6292 9.32778 57.6065 8.78333C57.6065 8.68333 57.6406 8.6 57.7087 8.53333C57.7768 8.46667 57.8619 8.43333 57.964 8.43333H59.4792C59.6267 8.43333 59.7346 8.46667 59.8027 8.53333C59.8821 8.58889 59.9502 8.66111 60.0069 8.75C60.075 8.96111 60.2056 9.17222 60.3985 9.38333C60.5914 9.58333 60.8525 9.75 61.1816 9.88333C61.5221 10.0167 61.9477 10.0833 62.4584 10.0833C63.2756 10.0833 63.8828 9.95 64.28 9.68333C64.6886 9.41667 64.8929 9.05556 64.8929 8.6C64.8929 8.27778 64.7851 8.02222 64.5695 7.83333C64.3538 7.63333 64.019 7.45556 63.565 7.3C63.1224 7.13333 62.5322 6.96111 61.7945 6.78333C60.9433 6.58333 60.2283 6.34444 59.6494 6.06667C59.082 5.77778 58.6507 5.41667 58.3556 4.98333C58.0719 4.55 57.93 4 57.93 3.33333C57.93 2.68889 58.1059 2.11667 58.4577 1.61667C58.8209 1.11667 59.3316 0.722222 59.9899 0.433334C60.6595 0.144445 61.454 0 62.3733 0C63.111 0 63.7636 0.1 64.3311 0.3C64.8986 0.488889 65.3696 0.744445 65.7441 1.06667C66.1187 1.37778 66.4024 1.71667 66.5953 2.08333C66.7996 2.43889 66.9074 2.78889 66.9188 3.13333C66.9188 3.22222 66.8847 3.30556 66.8167 3.38333C66.7599 3.45 66.6748 3.48333 66.5613 3.48333H64.978C64.8872 3.48333 64.7964 3.46111 64.7056 3.41667C64.6148 3.37222 64.5411 3.28889 64.4843 3.16667C64.4162 2.82222 64.1949 2.52778 63.8204 2.28333C63.4458 2.03889 62.9635 1.91667 62.3733 1.91667C61.7604 1.91667 61.2667 2.02778 60.8922 2.25C60.5177 2.47222 60.3304 2.81667 60.3304 3.28333C60.3304 3.59444 60.4212 3.85556 60.6028 4.06667C60.7957 4.26667 61.0965 4.44444 61.5051 4.6C61.925 4.75556 62.4755 4.92222 63.1564 5.1C64.1211 5.31111 64.9099 5.55556 65.5228 5.83333C66.1357 6.11111 66.584 6.46667 66.8677 6.9C67.1515 7.32222 67.2933 7.86111 67.2933 8.51667C67.2933 9.25 67.089 9.87778 66.6805 10.4C66.2832 10.9111 65.7214 11.3056 64.995 11.5833C64.2687 11.8611 63.4231 12 62.4584 12Z" fill="#161D25"/>
<path d="M73.3812 11.8333C72.7003 11.8333 72.1271 11.7167 71.6618 11.4833C71.1965 11.25 70.8503 10.9056 70.6233 10.45C70.3963 9.98333 70.2828 9.40556 70.2828 8.71667V4.93333H68.9379C68.8244 4.93333 68.7279 4.89444 68.6485 4.81667C68.569 4.73889 68.5293 4.64444 68.5293 4.53333V3.56667C68.5293 3.45556 68.569 3.36111 68.6485 3.28333C68.7279 3.20556 68.8244 3.16667 68.9379 3.16667H70.2828V0.4C70.2828 0.288889 70.3169 0.194445 70.385 0.116667C70.4644 0.0388891 70.5666 0 70.6914 0H72.0704C72.1839 0 72.2803 0.0388891 72.3598 0.116667C72.4392 0.194445 72.479 0.288889 72.479 0.4V3.16667H74.607C74.7205 3.16667 74.8169 3.20556 74.8964 3.28333C74.9758 3.36111 75.0156 3.45556 75.0156 3.56667V4.53333C75.0156 4.64444 74.9758 4.73889 74.8964 4.81667C74.8169 4.89444 74.7205 4.93333 74.607 4.93333H72.479V8.55C72.479 9.00555 72.5584 9.36111 72.7173 9.61667C72.8875 9.87222 73.1769 10 73.5855 10H74.7602C74.8737 10 74.9702 10.0389 75.0496 10.1167C75.1291 10.1944 75.1688 10.2889 75.1688 10.4V11.4333C75.1688 11.5444 75.1291 11.6389 75.0496 11.7167C74.9702 11.7944 74.8737 11.8333 74.7602 11.8333H73.3812Z" fill="#161D25"/>
<path d="M78.6198 15C78.529 15 78.4495 14.9667 78.3814 14.9C78.3133 14.8333 78.2793 14.7556 78.2793 14.6667C78.2793 14.6222 78.2793 14.5778 78.2793 14.5333C78.2906 14.5 78.3133 14.4556 78.3474 14.4L79.6753 11.3167L76.4066 3.76667C76.3612 3.65556 76.3385 3.57778 76.3385 3.53333C76.3499 3.43333 76.3896 3.35 76.4577 3.28333C76.5258 3.20556 76.6109 3.16667 76.7131 3.16667H78.092C78.2282 3.16667 78.3304 3.2 78.3985 3.26667C78.4666 3.33333 78.5176 3.40556 78.5517 3.48333L80.8159 8.93333L83.1482 3.48333C83.1823 3.39444 83.2334 3.32222 83.3015 3.26667C83.3695 3.2 83.4717 3.16667 83.6079 3.16667H84.9698C85.0606 3.16667 85.1401 3.2 85.2082 3.26667C85.2876 3.33333 85.3273 3.41111 85.3273 3.5C85.3273 3.56667 85.3046 3.65556 85.2592 3.76667L80.4414 14.6833C80.396 14.7722 80.3392 14.8444 80.2711 14.9C80.203 14.9667 80.1009 15 79.9647 15H78.6198Z" fill="#161D25"/>
<path d="M87.5612 11.8333C87.4478 11.8333 87.3513 11.7944 87.2718 11.7167C87.1924 11.6389 87.1527 11.5444 87.1527 11.4333V0.4C87.1527 0.288889 87.1924 0.194445 87.2718 0.116667C87.3513 0.0388891 87.4478 0 87.5612 0H88.9743C89.0878 0 89.1842 0.0388891 89.2637 0.116667C89.3431 0.194445 89.3829 0.288889 89.3829 0.4V11.4333C89.3829 11.5444 89.3431 11.6389 89.2637 11.7167C89.1842 11.7944 89.0878 11.8333 88.9743 11.8333H87.5612Z" fill="#161D25"/>
<path d="M95.795 12C94.5352 12 93.5365 11.6444 92.7987 10.9333C92.061 10.2222 91.6638 9.21111 91.607 7.9C91.5957 7.78889 91.59 7.65 91.59 7.48333C91.59 7.30555 91.5957 7.16667 91.607 7.06667C91.6524 6.23333 91.8454 5.51111 92.1859 4.9C92.5377 4.28889 93.0201 3.82222 93.6329 3.5C94.2458 3.16667 94.9665 3 95.795 3C96.7143 3 97.4861 3.18889 98.1103 3.56667C98.7345 3.93333 99.2055 4.45 99.5233 5.11667C99.8411 5.77222 100 6.53333 100 7.4V7.75C100 7.86111 99.9603 7.95556 99.8808 8.03333C99.8014 8.11111 99.6992 8.15 99.5744 8.15H93.9223C93.9223 8.15 93.9223 8.16667 93.9223 8.2C93.9223 8.23333 93.9223 8.26111 93.9223 8.28333C93.9337 8.67222 94.0075 9.03333 94.1437 9.36667C94.2912 9.68889 94.5012 9.95 94.7736 10.15C95.0573 10.35 95.3921 10.45 95.778 10.45C96.0958 10.45 96.3625 10.4056 96.5781 10.3167C96.7938 10.2167 96.9697 10.1056 97.1059 9.98333C97.2421 9.86111 97.3385 9.76111 97.3953 9.68333C97.4974 9.55 97.5769 9.47222 97.6336 9.45C97.7017 9.41667 97.7982 9.4 97.923 9.4H99.3871C99.5006 9.4 99.5914 9.43333 99.6595 9.5C99.739 9.56667 99.773 9.65 99.7617 9.75C99.7503 9.92778 99.6538 10.1444 99.4723 10.4C99.302 10.6556 99.0523 10.9056 98.7232 11.15C98.394 11.3944 97.9798 11.6 97.4804 11.7667C96.9924 11.9222 96.4306 12 95.795 12ZM93.9223 6.75H97.6847V6.7C97.6847 6.26667 97.6109 5.88889 97.4634 5.56667C97.3158 5.24444 97.1002 4.98889 96.8165 4.8C96.5327 4.61111 96.1922 4.51667 95.795 4.51667C95.3978 4.51667 95.0573 4.61111 94.7736 4.8C94.4898 4.98889 94.2742 5.24444 94.1266 5.56667C93.9904 5.88889 93.9223 6.26667 93.9223 6.7V6.75Z" fill="#161D25"/>
<path d="M2.59756 28.0787C2.5248 28.0787 2.46295 28.0584 2.41202 28.018C2.36836 27.9708 2.34653 27.9135 2.34653 27.8461V21.9H0.251024C0.178264 21.9 0.116417 21.8798 0.0654846 21.8393C0.0218282 21.7921 0 21.7348 0 21.6674V21.2427C0 21.1685 0.0218282 21.1112 0.0654846 21.0708C0.116417 21.0236 0.178264 21 0.251024 21H5.51162C5.59166 21 5.6535 21.0236 5.69716 21.0708C5.74809 21.1112 5.77356 21.1685 5.77356 21.2427V21.6674C5.77356 21.7348 5.74809 21.7921 5.69716 21.8393C5.6535 21.8798 5.59166 21.9 5.51162 21.9H3.42703V27.8461C3.42703 27.9135 3.40156 27.9708 3.35063 28.018C3.30697 28.0584 3.24513 28.0787 3.16509 28.0787H2.59756Z" fill="#161D25"/>
<path d="M9.28901 28.1798C8.73603 28.1798 8.274 28.082 7.90292 27.8865C7.53184 27.691 7.24807 27.4213 7.05162 27.0775C6.85516 26.727 6.74602 26.3292 6.72419 25.8843C6.71692 25.7697 6.71328 25.6247 6.71328 25.4494C6.71328 25.2674 6.71692 25.1225 6.72419 25.0146C6.74602 24.5629 6.85516 24.1652 7.05162 23.8213C7.25535 23.4775 7.54275 23.2079 7.91383 23.0124C8.28491 22.8169 8.7433 22.7191 9.28901 22.7191C9.83471 22.7191 10.2931 22.8169 10.6642 23.0124C11.0353 23.2079 11.319 23.4775 11.5155 23.8213C11.7192 24.1652 11.832 24.5629 11.8538 25.0146C11.8611 25.1225 11.8647 25.2674 11.8647 25.4494C11.8647 25.6247 11.8611 25.7697 11.8538 25.8843C11.832 26.3292 11.7229 26.727 11.5264 27.0775C11.3299 27.4213 11.0462 27.691 10.6751 27.8865C10.304 28.082 9.84199 28.1798 9.28901 28.1798ZM9.28901 27.4011C9.74012 27.4011 10.1003 27.2697 10.3695 27.0067C10.6387 26.7371 10.7842 26.3461 10.8061 25.8337C10.8133 25.7326 10.817 25.6045 10.817 25.4494C10.817 25.2944 10.8133 25.1663 10.8061 25.0652C10.7842 24.5528 10.6387 24.1652 10.3695 23.9022C10.1003 23.6326 9.74012 23.4978 9.28901 23.4978C8.83789 23.4978 8.47409 23.6326 8.1976 23.9022C7.92838 24.1652 7.7865 24.5528 7.77195 25.0652C7.76467 25.1663 7.76103 25.2944 7.76103 25.4494C7.76103 25.6045 7.76467 25.7326 7.77195 25.8337C7.7865 26.3461 7.92838 26.7371 8.1976 27.0067C8.47409 27.2697 8.83789 27.4011 9.28901 27.4011Z" fill="#161D25"/>
<path d="M13.5916 28.0787C13.5188 28.0787 13.4569 28.0584 13.406 28.018C13.3624 27.9708 13.3405 27.9135 13.3405 27.8461V23.0528C13.3405 22.9854 13.3624 22.9315 13.406 22.891C13.4569 22.8438 13.5188 22.8202 13.5916 22.8202H15.8617C16.5456 22.8202 17.0586 22.9483 17.4006 23.2045C17.7498 23.4607 17.9244 23.8045 17.9244 24.236C17.9244 24.5393 17.8626 24.7685 17.7389 24.9236C17.6152 25.0787 17.4406 25.2101 17.215 25.318C17.4915 25.4258 17.6989 25.6011 17.8371 25.8438C17.9827 26.0798 18.0554 26.3258 18.0554 26.582C18.0554 27.0674 17.8699 27.4382 17.4988 27.6944C17.1277 27.9506 16.6111 28.0787 15.949 28.0787H13.5916ZM14.3446 27.3404H15.8617C16.2109 27.3404 16.4911 27.2798 16.7021 27.1584C16.9204 27.0303 17.0295 26.8382 17.0295 26.582C17.0295 26.3124 16.9313 26.1169 16.7348 25.9955C16.5384 25.8674 16.2473 25.8034 15.8617 25.8034H14.3446V27.3404ZM14.3446 25.0551H15.7962C16.1455 25.0551 16.4219 24.9843 16.6257 24.8427C16.8367 24.7011 16.9422 24.5022 16.9422 24.2461C16.9422 23.9831 16.8367 23.8045 16.6257 23.7101C16.4219 23.609 16.1455 23.5584 15.7962 23.5584H14.3446V25.0551Z" fill="#161D25"/>
<path d="M21.1501 28.1798C20.7863 28.1798 20.4552 28.1124 20.1569 27.9775C19.8586 27.8427 19.6185 27.6607 19.4366 27.4315C19.2547 27.2022 19.1637 26.9427 19.1637 26.6528C19.1637 26.1876 19.3674 25.8169 19.7749 25.5404C20.1824 25.264 20.7135 25.082 21.3684 24.9944L22.9946 24.782V24.4888C22.9946 24.1652 22.8927 23.9124 22.689 23.7303C22.4925 23.5483 22.1687 23.4573 21.7176 23.4573C21.3902 23.4573 21.1246 23.518 20.9209 23.6393C20.7244 23.7607 20.5862 23.9157 20.5061 24.1045C20.4625 24.2056 20.3861 24.2562 20.2769 24.2562H19.7858C19.7058 24.2562 19.6439 24.236 19.6003 24.1955C19.5639 24.1483 19.5457 24.0944 19.5457 24.0337C19.5457 23.9326 19.5857 23.8079 19.6658 23.6596C19.7531 23.5112 19.884 23.3663 20.0587 23.2247C20.2333 23.0831 20.4552 22.9652 20.7244 22.8708C21.0009 22.7697 21.3356 22.7191 21.7285 22.7191C22.1651 22.7191 22.5325 22.773 22.8308 22.8809C23.1292 22.982 23.362 23.1202 23.5294 23.2955C23.704 23.4708 23.8277 23.6697 23.9004 23.8921C23.9805 24.1146 24.0205 24.3404 24.0205 24.5697V27.8461C24.0205 27.9135 23.995 27.9708 23.9441 28.018C23.9004 28.0584 23.8422 28.0787 23.7695 28.0787H23.2674C23.1874 28.0787 23.1255 28.0584 23.0819 28.018C23.0382 27.9708 23.0164 27.9135 23.0164 27.8461V27.4112C22.9218 27.5326 22.7945 27.6539 22.6344 27.7753C22.4743 27.8899 22.2742 27.9876 22.0341 28.0685C21.794 28.1427 21.4993 28.1798 21.1501 28.1798ZM21.3793 27.4213C21.6776 27.4213 21.9504 27.364 22.1978 27.2494C22.4452 27.1281 22.638 26.9427 22.7763 26.6933C22.9218 26.4438 22.9946 26.1303 22.9946 25.7528V25.4697L21.7285 25.6416C21.2119 25.709 20.8227 25.8236 20.5607 25.9854C20.2988 26.1404 20.1678 26.3393 20.1678 26.582C20.1678 26.7708 20.226 26.9292 20.3424 27.0573C20.4661 27.1787 20.6189 27.2697 20.8008 27.3303C20.99 27.391 21.1828 27.4213 21.3793 27.4213Z" fill="#161D25"/>
<path d="M25.9606 30C25.8878 30 25.8259 29.9764 25.775 29.9292C25.7314 29.8888 25.7095 29.8348 25.7095 29.7674V23.0528C25.7095 22.9854 25.7314 22.9315 25.775 22.891C25.8259 22.8438 25.8878 22.8202 25.9606 22.8202H26.4626C26.5354 22.8202 26.5936 22.8438 26.6372 22.891C26.6882 22.9315 26.7136 22.9854 26.7136 23.0528V23.4978C26.8883 23.2753 27.1211 23.0899 27.4121 22.9416C27.7032 22.7933 28.067 22.7191 28.5035 22.7191C28.911 22.7191 29.2566 22.7831 29.5404 22.9112C29.8314 23.0393 30.0679 23.2146 30.2498 23.4371C30.439 23.6596 30.5809 23.9124 30.6754 24.1955C30.77 24.4787 30.821 24.782 30.8282 25.1056C30.8355 25.2135 30.8392 25.3281 30.8392 25.4494C30.8392 25.5708 30.8355 25.6854 30.8282 25.7933C30.821 26.1101 30.77 26.4135 30.6754 26.7034C30.5809 26.9865 30.439 27.2393 30.2498 27.4618C30.0679 27.6775 29.8314 27.8528 29.5404 27.9876C29.2566 28.1157 28.911 28.1798 28.5035 28.1798C28.0815 28.1798 27.725 28.109 27.434 27.9674C27.1502 27.8191 26.9174 27.6371 26.7355 27.4213V29.7674C26.7355 29.8348 26.7136 29.8888 26.67 29.9292C26.6263 29.9764 26.5645 30 26.4844 30H25.9606ZM28.2743 27.3607C28.6527 27.3607 28.9474 27.2865 29.1584 27.1382C29.3767 26.9831 29.5331 26.7843 29.6277 26.5416C29.7223 26.2921 29.7768 26.0258 29.7914 25.7427C29.7987 25.5472 29.7987 25.3517 29.7914 25.1562C29.7768 24.873 29.7223 24.6101 29.6277 24.3674C29.5331 24.118 29.3767 23.9191 29.1584 23.7708C28.9474 23.6157 28.6527 23.5382 28.2743 23.5382C27.9178 23.5382 27.6268 23.6157 27.4012 23.7708C27.1829 23.9258 27.0192 24.1247 26.9101 24.3674C26.8082 24.6034 26.75 24.8461 26.7355 25.0955C26.7282 25.2034 26.7245 25.3315 26.7245 25.4798C26.7245 25.6281 26.7282 25.7596 26.7355 25.8742C26.7427 26.1101 26.8009 26.3427 26.9101 26.5719C27.0265 26.8011 27.1975 26.9899 27.423 27.1382C27.6486 27.2865 27.9324 27.3607 28.2743 27.3607Z" fill="#161D25"/>
<path d="M32.5603 28.0787C32.4876 28.0787 32.4257 28.0584 32.3748 28.018C32.3311 27.9708 32.3093 27.9135 32.3093 27.8461V23.0528C32.3093 22.9854 32.3311 22.9315 32.3748 22.891C32.4257 22.8438 32.4876 22.8202 32.5603 22.8202H33.0842C33.157 22.8202 33.2152 22.8438 33.2588 22.891C33.3098 22.9315 33.3352 22.9854 33.3352 23.0528V24.5393H34.4703C35.2125 24.5393 35.7545 24.7011 36.0965 25.0247C36.4385 25.3483 36.6095 25.7865 36.6095 26.3393C36.6095 26.9326 36.4203 27.3708 36.0419 27.6539C35.6636 27.9371 35.0961 28.0787 34.3393 28.0787H32.5603ZM33.3243 27.3202H34.3721C34.8159 27.3202 35.1397 27.2494 35.3434 27.1079C35.5472 26.9596 35.649 26.7034 35.649 26.3393C35.649 25.9888 35.5508 25.7292 35.3544 25.5607C35.1579 25.3854 34.8305 25.2978 34.3721 25.2978H33.3243V27.3202ZM37.6354 28.0787C37.5626 28.0787 37.5008 28.0584 37.4499 28.018C37.4062 27.9708 37.3844 27.9135 37.3844 27.8461V23.0528C37.3844 22.9854 37.4062 22.9315 37.4499 22.891C37.5008 22.8438 37.5626 22.8202 37.6354 22.8202H38.1593C38.232 22.8202 38.2902 22.8438 38.3339 22.891C38.3848 22.9315 38.4103 22.9854 38.4103 23.0528V27.8461C38.4103 27.9135 38.3848 27.9708 38.3339 28.018C38.2902 28.0584 38.232 28.0787 38.1593 28.0787H37.6354Z" fill="#161D25"/>
<path d="M43.1702 28.0787C43.1047 28.0787 43.0465 28.0584 42.9956 28.018C42.9519 27.9708 42.9301 27.9202 42.9301 27.8663V23.0528C42.9301 22.9854 42.9519 22.9315 42.9956 22.891C43.0465 22.8438 43.1084 22.8202 43.1811 22.8202H43.705C43.7778 22.8202 43.836 22.8438 43.8796 22.891C43.9233 22.9315 43.9451 22.9854 43.9451 23.0528V27.3404L43.6613 27.0674L46.9683 22.9719C47.0047 22.9315 47.0447 22.8978 47.0884 22.8708C47.132 22.8371 47.1866 22.8202 47.2521 22.8202H47.7541C47.8123 22.8202 47.8633 22.8404 47.9069 22.8809C47.9579 22.9213 47.9833 22.9685 47.9833 23.0225V27.8461C47.9833 27.9135 47.9579 27.9708 47.9069 28.018C47.8633 28.0584 47.8051 28.0787 47.7323 28.0787H47.2193C47.1393 28.0787 47.0775 28.0584 47.0338 28.018C46.9901 27.9708 46.9683 27.9135 46.9683 27.8461V23.8112L47.2739 23.8011L43.9451 27.927C43.916 27.9607 43.8796 27.9944 43.836 28.0281C43.7923 28.0618 43.7341 28.0787 43.6613 28.0787H43.1702Z" fill="#161D25"/>
<path d="M51.6655 28.1798C51.2362 28.1798 50.8724 28.1326 50.5741 28.0382C50.283 27.9371 50.0465 27.8124 49.8646 27.664C49.69 27.509 49.5627 27.3506 49.4827 27.1888C49.4026 27.0202 49.359 26.8652 49.3517 26.7236C49.3517 26.6629 49.3735 26.6157 49.4172 26.582C49.4608 26.5416 49.5118 26.5213 49.57 26.5213H50.0829C50.1484 26.5213 50.203 26.5382 50.2466 26.5719C50.2903 26.5989 50.323 26.6494 50.3449 26.7236C50.4322 26.9798 50.5995 27.1584 50.8469 27.2596C51.0943 27.3607 51.3963 27.4112 51.7528 27.4112C51.9856 27.4112 52.2003 27.3843 52.3967 27.3303C52.5932 27.2697 52.746 27.1753 52.8551 27.0472C52.9715 26.9191 53.0297 26.7607 53.0297 26.5719C53.0297 26.2955 52.9424 26.0865 52.7678 25.9449C52.6004 25.8034 52.3385 25.7326 51.982 25.7326H51.3817C51.3089 25.7326 51.2507 25.7124 51.2071 25.6719C51.1634 25.6315 51.1416 25.5775 51.1416 25.5101V25.2371C51.1416 25.1764 51.1634 25.1258 51.2071 25.0854C51.2507 25.0382 51.3089 25.0146 51.3817 25.0146H51.9165C52.2148 25.0146 52.444 24.9607 52.6041 24.8528C52.7642 24.7449 52.8442 24.573 52.8442 24.3371C52.8442 24.1955 52.8078 24.0607 52.7351 23.9326C52.6623 23.8045 52.5386 23.7 52.364 23.6191C52.1966 23.5315 51.9638 23.4876 51.6655 23.4876C51.2435 23.4876 50.9451 23.5551 50.7705 23.6899C50.6032 23.818 50.4831 24.0101 50.4103 24.2663C50.3812 24.3404 50.3449 24.391 50.3012 24.418C50.2648 24.4449 50.2103 24.4584 50.1375 24.4584H49.6464C49.5809 24.4584 49.5263 24.4416 49.4827 24.4079C49.439 24.3742 49.4172 24.327 49.4172 24.2663C49.4244 24.064 49.4717 23.8719 49.5591 23.6899C49.6536 23.5079 49.7919 23.3427 49.9738 23.1944C50.163 23.0461 50.3958 22.9315 50.6723 22.8506C50.9561 22.7629 51.2871 22.7191 51.6655 22.7191C52.2112 22.7191 52.6405 22.7966 52.9533 22.9517C53.2735 23.1067 53.499 23.2989 53.63 23.5281C53.7683 23.7506 53.8374 23.973 53.8374 24.1955C53.8374 24.4584 53.7901 24.6775 53.6955 24.8528C53.6082 25.0281 53.4336 25.1764 53.1716 25.2978C53.499 25.4124 53.7246 25.5843 53.8483 25.8135C53.972 26.0427 54.0375 26.309 54.0447 26.6124C54.052 26.9629 53.9502 27.2528 53.7392 27.482C53.5354 27.7112 53.2553 27.8865 52.8988 28.0079C52.5422 28.1225 52.1311 28.1798 51.6655 28.1798Z" fill="#161D25"/>
<path d="M62.807 28.0787C62.7342 28.0787 62.6724 28.0584 62.6214 28.018C62.5705 27.9708 62.545 27.9135 62.545 27.8461V25.3888H60.7879C60.2858 25.3888 59.8529 25.3045 59.4891 25.136C59.1326 24.9674 58.8561 24.7213 58.6596 24.3978C58.4704 24.0742 58.3759 23.6798 58.3759 23.2146C58.3759 22.8371 58.4632 22.4798 58.6378 22.1427C58.8197 21.8056 59.0925 21.5326 59.4563 21.3236C59.8274 21.1079 60.2967 21 60.8643 21H63.3636C63.4364 21 63.4946 21.0236 63.5382 21.0708C63.5892 21.1112 63.6146 21.1652 63.6146 21.2326V27.8461C63.6146 27.9135 63.5892 27.9708 63.5382 28.018C63.4946 28.0584 63.4364 28.0787 63.3636 28.0787H62.807ZM58.4523 28.0787C58.394 28.0787 58.3431 28.0584 58.2995 28.018C58.2558 27.9775 58.234 27.9303 58.234 27.8764C58.234 27.8427 58.2449 27.8056 58.2667 27.7652L60.2094 24.9337L61.2572 25.0854L59.4018 27.8056C59.3581 27.873 59.3072 27.9371 59.249 27.9978C59.1908 28.0517 59.0998 28.0787 58.9761 28.0787H58.4523ZM60.9516 24.5393H62.545V21.8494H60.9516C60.4786 21.8494 60.1112 21.9775 59.8493 22.2337C59.5946 22.4899 59.4673 22.8236 59.4673 23.2348C59.4673 23.6663 59.5873 23.9933 59.8274 24.2157C60.0748 24.4315 60.4495 24.5393 60.9516 24.5393Z" fill="#161D25"/>
<path d="M65.7337 28.0787C65.6609 28.0787 65.5991 28.0584 65.5481 28.018C65.5045 27.9708 65.4826 27.9135 65.4826 27.8461V23.0528C65.4826 22.9854 65.5045 22.9315 65.5481 22.891C65.5991 22.8438 65.6609 22.8202 65.7337 22.8202H70.0666C70.1393 22.8202 70.1975 22.8438 70.2412 22.891C70.2921 22.9315 70.3176 22.9854 70.3176 23.0528V27.8461C70.3176 27.9135 70.2921 27.9708 70.2412 28.018C70.1975 28.0584 70.1393 28.0787 70.0666 28.0787H69.5427C69.4699 28.0787 69.4117 28.0584 69.3681 28.018C69.3244 27.9708 69.3026 27.9135 69.3026 27.8461V23.6292H66.4977V27.8461C66.4977 27.9135 66.4758 27.9708 66.4322 28.018C66.3885 28.0584 66.3303 28.0787 66.2575 28.0787H65.7337Z" fill="#161D25"/>
<path d="M74.3754 28.1798C73.8224 28.1798 73.3604 28.082 72.9893 27.8865C72.6182 27.691 72.3345 27.4213 72.138 27.0775C71.9416 26.727 71.8324 26.3292 71.8106 25.8843C71.8033 25.7697 71.7997 25.6247 71.7997 25.4494C71.7997 25.2674 71.8033 25.1225 71.8106 25.0146C71.8324 24.5629 71.9416 24.1652 72.138 23.8213C72.3418 23.4775 72.6292 23.2079 73.0002 23.0124C73.3713 22.8169 73.8297 22.7191 74.3754 22.7191C74.9211 22.7191 75.3795 22.8169 75.7506 23.0124C76.1217 23.2079 76.4054 23.4775 76.6019 23.8213C76.8056 24.1652 76.9184 24.5629 76.9402 25.0146C76.9475 25.1225 76.9511 25.2674 76.9511 25.4494C76.9511 25.6247 76.9475 25.7697 76.9402 25.8843C76.9184 26.3292 76.8093 26.727 76.6128 27.0775C76.4164 27.4213 76.1326 27.691 75.7615 27.8865C75.3904 28.082 74.9284 28.1798 74.3754 28.1798ZM74.3754 27.4011C74.8265 27.4011 75.1867 27.2697 75.4559 27.0067C75.7251 26.7371 75.8706 26.3461 75.8925 25.8337C75.8997 25.7326 75.9034 25.6045 75.9034 25.4494C75.9034 25.2944 75.8997 25.1663 75.8925 25.0652C75.8706 24.5528 75.7251 24.1652 75.4559 23.9022C75.1867 23.6326 74.8265 23.4978 74.3754 23.4978C73.9243 23.4978 73.5605 23.6326 73.284 23.9022C73.0148 24.1652 72.8729 24.5528 72.8584 25.0652C72.8511 25.1663 72.8474 25.2944 72.8474 25.4494C72.8474 25.6045 72.8511 25.7326 72.8584 25.8337C72.8729 26.3461 73.0148 26.7371 73.284 27.0067C73.5605 27.2697 73.9243 27.4011 74.3754 27.4011Z" fill="#161D25"/>
<path d="M78.678 28.0787C78.6052 28.0787 78.5433 28.0584 78.4924 28.018C78.4488 27.9708 78.4269 27.9135 78.4269 27.8461V23.0528C78.4269 22.9854 78.4488 22.9315 78.4924 22.891C78.5433 22.8438 78.6052 22.8202 78.678 22.8202H79.2018C79.2746 22.8202 79.3328 22.8438 79.3765 22.891C79.4201 22.9315 79.4419 22.9854 79.4419 23.0528V24.9944H82.4215V23.0528C82.4215 22.9854 82.4433 22.9315 82.487 22.891C82.5379 22.8438 82.5998 22.8202 82.6725 22.8202H83.1855C83.2582 22.8202 83.3165 22.8438 83.3601 22.891C83.411 22.9315 83.4365 22.9854 83.4365 23.0528V27.8461C83.4365 27.9135 83.411 27.9708 83.3601 28.018C83.3165 28.0584 83.2582 28.0787 83.1855 28.0787H82.6725C82.5998 28.0787 82.5379 28.0584 82.487 28.018C82.4433 27.9708 82.4215 27.9135 82.4215 27.8461V25.8034H79.4419V27.8461C79.4419 27.9135 79.4201 27.9708 79.3765 28.018C79.3328 28.0584 79.2746 28.0787 79.2018 28.0787H78.678Z" fill="#161D25"/>
<path d="M85.427 28.0787C85.3615 28.0787 85.3033 28.0584 85.2523 28.018C85.2087 27.9708 85.1869 27.9202 85.1869 27.8663V23.0528C85.1869 22.9854 85.2087 22.9315 85.2523 22.891C85.3033 22.8438 85.3651 22.8202 85.4379 22.8202H85.9618C86.0345 22.8202 86.0927 22.8438 86.1364 22.891C86.18 22.9315 86.2019 22.9854 86.2019 23.0528V27.3404L85.9181 27.0674L89.2251 22.9719C89.2614 22.9315 89.3015 22.8978 89.3451 22.8708C89.3888 22.8371 89.4434 22.8202 89.5088 22.8202H90.0109C90.0691 22.8202 90.12 22.8404 90.1637 22.8809C90.2146 22.9213 90.2401 22.9685 90.2401 23.0225V27.8461C90.2401 27.9135 90.2146 27.9708 90.1637 28.018C90.12 28.0584 90.0618 28.0787 89.9891 28.0787H89.4761C89.3961 28.0787 89.3342 28.0584 89.2906 28.018C89.2469 27.9708 89.2251 27.9135 89.2251 27.8461V23.8112L89.5307 23.8011L86.2019 27.927C86.1728 27.9607 86.1364 27.9944 86.0927 28.0281C86.0491 28.0618 85.9909 28.0787 85.9181 28.0787H85.427Z" fill="#161D25"/>
<path d="M92.1869 28.0787C92.1214 28.0787 92.0632 28.0584 92.0123 28.018C91.9686 27.9708 91.9468 27.9202 91.9468 27.8663V23.0528C91.9468 22.9854 91.9686 22.9315 92.0123 22.891C92.0632 22.8438 92.125 22.8202 92.1978 22.8202H92.7217C92.7944 22.8202 92.8526 22.8438 92.8963 22.891C92.94 22.9315 92.9618 22.9854 92.9618 23.0528V27.3404L92.678 27.0674L95.985 22.9719C96.0214 22.9315 96.0614 22.8978 96.105 22.8708C96.1487 22.8371 96.2033 22.8202 96.2688 22.8202H96.7708C96.829 22.8202 96.8799 22.8404 96.9236 22.8809C96.9745 22.9213 97 22.9685 97 23.0225V27.8461C97 27.9135 96.9745 27.9708 96.9236 28.018C96.8799 28.0584 96.8217 28.0787 96.749 28.0787H96.236C96.156 28.0787 96.0941 28.0584 96.0505 28.018C96.0068 27.9708 95.985 27.9135 95.985 27.8461V23.8112L96.2906 23.8011L92.9618 27.927C92.9327 27.9607 92.8963 27.9944 92.8526 28.0281C92.809 28.0618 92.7508 28.0787 92.678 28.0787H92.1869Z" fill="#161D25"/>
</svg>
