<svg width="100" height="100" viewBox="0 0 100 100" fill="none" xmlns="http://www.w3.org/2000/svg">
<circle cx="50" cy="50" r="50" fill="#EAF8F7"/>
<path fill-rule="evenodd" clip-rule="evenodd" d="M51.5625 18.75C68.8214 18.75 82.8125 32.7411 82.8125 50C82.8125 67.2589 68.8214 81.25 51.5625 81.25C34.3036 81.25 20.3125 67.2589 20.3125 50C20.3125 32.7411 34.3036 18.75 51.5625 18.75Z" fill="white"/>
<path fill-rule="evenodd" clip-rule="evenodd" d="M71.1925 25.6831C78.2804 31.4119 82.813 40.1766 82.813 50C82.813 67.2589 68.8219 81.25 51.563 81.25C41.7396 81.25 32.9749 76.7174 27.2461 69.6295C32.6111 73.9657 39.44 76.5625 46.8755 76.5625C64.1344 76.5625 78.1255 62.5714 78.1255 45.3125C78.1255 37.8771 75.5287 31.0481 71.1925 25.6831V25.6831Z" fill="#FFC200"/>
<path fill-rule="evenodd" clip-rule="evenodd" d="M84.375 50C84.375 31.8782 69.6843 17.1875 51.5625 17.1875C33.4407 17.1875 18.75 31.8782 18.75 50C18.75 68.1218 33.4407 82.8125 51.5625 82.8125C69.6843 82.8125 84.375 68.1218 84.375 50ZM21.875 50C21.875 33.604 35.1665 20.3125 51.5625 20.3125C67.9585 20.3125 81.25 33.604 81.25 50C81.25 66.396 67.9585 79.6875 51.5625 79.6875C35.1665 79.6875 21.875 66.396 21.875 50Z" fill="#154E84"/>
<path fill-rule="evenodd" clip-rule="evenodd" d="M71.1925 25.6831C78.2804 31.4119 82.813 40.1766 82.813 50C82.813 67.2589 68.8219 81.25 51.563 81.25C41.7396 81.25 32.9749 76.7174 27.2461 69.6295C32.6111 73.9657 39.44 76.5625 46.8755 76.5625C64.1344 76.5625 78.1255 62.5714 78.1255 45.3125C78.1255 37.8771 75.5287 31.0481 71.1925 25.6831V25.6831Z" fill="#47C1BF"/>
<path fill-rule="evenodd" clip-rule="evenodd" d="M51.5625 17.1875C69.6843 17.1875 84.375 31.8782 84.375 50C84.375 68.1218 69.6843 82.8125 51.5625 82.8125C33.4407 82.8125 18.75 68.1218 18.75 50C18.75 31.8782 33.4407 17.1875 51.5625 17.1875ZM51.5625 20.3125C35.1665 20.3125 21.875 33.604 21.875 50C21.875 66.396 35.1665 79.6875 51.5625 79.6875C67.9585 79.6875 81.25 66.396 81.25 50C81.25 33.604 67.9585 20.3125 51.5625 20.3125Z" fill="#4FD0D8"/>
<path fill-rule="evenodd" clip-rule="evenodd" d="M48.4399 57.063L40.127 48.8571C39.5128 48.2509 38.5235 48.2573 37.9173 48.8714C37.3111 49.4855 37.3175 50.4748 37.9316 51.0811L47.4602 60.487C48.1134 61.1318 49.1789 61.0774 49.7631 60.3695L65.2345 41.6195C65.7837 40.9539 65.6894 39.9691 65.0237 39.4199C64.3581 38.8706 63.3733 38.965 62.8241 39.6306L48.4399 57.063Z" fill="#FF5190"/>
</svg>
