<svg width="24" height="22" viewBox="0 0 24 22" fill="none" xmlns="http://www.w3.org/2000/svg">
<path fill-rule="evenodd" clip-rule="evenodd" d="M2.41797 11.4217H12.4368V5.94C12.4368 5.12091 12.9412 4.41092 13.6782 4.06185C13.4559 3.91683 13.1848 3.83167 12.8922 3.83167H3.78417C3.02964 3.83167 2.41797 4.39802 2.41797 5.09667V11.4217ZM21.5448 13.53C21.5448 13.206 21.4132 12.9104 21.1968 12.6866C21.4132 12.4628 21.5448 12.1672 21.5448 11.8432V10.5783H18.357C17.6024 10.5783 16.9908 10.012 16.9908 9.31333V7.62666C16.9908 6.92802 17.6024 6.36166 18.357 6.36166H20.7904L20.7672 6.27415C20.6345 5.77397 20.1875 5.39826 19.637 5.32419L14.9103 4.68815C14.8452 4.67939 14.7795 4.675 14.7138 4.675C13.9592 4.675 13.3476 5.24136 13.3476 5.94V11.8432C13.3476 11.9911 13.375 12.1331 13.4254 12.265H3.78417C3.02964 12.265 2.41797 12.8314 2.41797 13.53V14.3733C2.41797 15.072 3.02964 15.6383 3.78417 15.6383H4.27185C4.49283 14.2079 5.82141 13.1083 7.42737 13.1083C9.03332 13.1083 10.3619 14.2079 10.5829 15.6383H14.2907C14.5116 14.2079 15.8402 13.1083 17.4462 13.1083C19.03 13.1083 20.344 14.1778 20.5919 15.5794C21.1444 15.4172 21.5448 14.9386 21.5448 14.3733V13.53ZM21.5053 9.05505L21.0143 7.205H18.357C18.1055 7.205 17.9016 7.39378 17.9016 7.62667V9.31333C17.9016 9.54621 18.1055 9.735 18.357 9.735H21.5448V9.35695C21.5448 9.25521 21.5315 9.15385 21.5053 9.05505ZM9.70437 16.06C9.70437 17.2244 8.68492 18.1683 7.42737 18.1683C6.16982 18.1683 5.15037 17.2244 5.15037 16.06C5.15037 14.8956 6.16982 13.9517 7.42737 13.9517C8.68492 13.9517 9.70437 14.8956 9.70437 16.06ZM19.7232 16.06C19.7232 17.2244 18.7037 18.1683 17.4462 18.1683C16.1886 18.1683 15.1692 17.2244 15.1692 16.06C15.1692 14.8956 16.1886 13.9517 17.4462 13.9517C18.7037 13.9517 19.7232 14.8956 19.7232 16.06Z" fill="white"/>
</svg>
