<svg width="177" height="107" viewBox="0 0 177 107" fill="none" xmlns="http://www.w3.org/2000/svg">
<path d="M81.122 25.6029C81.5147 26.146 81.8692 26.7163 82.2455 27.2757C85.1361 23.8486 88.2284 20.6877 91.4026 17.6136C90.5463 15.9299 89.701 14.23 88.8993 12.4865C87.7158 10.0045 86.3741 7.56588 84.5961 5.464C83.7126 4.41578 82.7527 3.4273 81.6892 2.56374C81.122 2.09666 80.4893 1.65673 79.8567 1.26569C79.2022 2.91134 78.575 4.57872 77.866 6.17549C76.9825 8.18504 75.9353 10.1023 74.9482 12.0358L72.832 16.158C75.8862 19.0311 78.6623 22.2084 81.122 25.6083V25.6029Z" fill="url(#paint0_linear_489_14654)"/>
<path d="M78.3526 0.423462H78.3203C78.3203 0.423462 78.3365 0.439804 78.3419 0.439804C78.3419 0.434357 78.3473 0.428909 78.3526 0.423462Z" fill="white"/>
<path d="M80.352 0L80.2266 0.027156C80.2538 0.0488808 80.2811 0.0706056 80.3138 0.0977616C80.3247 0.0651744 80.3411 0.0325872 80.352 0Z" fill="white"/>
<path d="M24.6837 39.9574C25.8617 43.0423 26.947 46.1218 28.0651 49.1796C29.9521 49.9073 31.8228 50.6623 33.6826 51.4607C33.0936 47.4361 33.0118 43.3682 33.4045 39.3817C33.7862 35.1236 34.5498 30.9361 35.6187 26.8573C34.6861 26.2816 33.7481 25.7059 32.81 25.1411C30.3066 23.604 27.6779 22.2571 25.1254 20.7744C23.8383 20.0466 22.5457 19.3134 21.2859 18.5096C20.795 18.2326 20.3096 17.9447 19.8242 17.6569C19.9497 20.9427 20.2933 24.234 21.0023 27.4385C21.8476 31.7074 23.1947 35.8731 24.6837 39.9574Z" fill="#B4DEE3"/>
<path d="M30.5419 83.016C31.1582 82.7336 31.7799 82.4512 32.4071 82.1905C37.2447 80.1809 42.3823 78.671 47.6726 78.0139C47.3345 77.6826 46.9963 77.3513 46.6746 77.0037C44.7384 75.0376 42.9495 72.8868 41.3297 70.6003C40.5716 69.5249 39.8572 68.4169 39.1863 67.2764C38.9573 66.8853 38.7064 66.5051 38.4882 66.1032C38.0792 65.3374 37.7138 64.5499 37.3484 63.757C36.1758 61.2206 35.2323 58.5702 34.5505 55.8546C32.8762 54.8118 31.18 53.807 29.462 52.8403C28.2949 52.1885 27.1114 51.5585 25.9115 50.9556C24.8971 50.4451 23.8772 49.9563 22.841 49.4892C22.6065 49.3806 22.3719 49.2665 22.1374 49.1633C15.1782 45.8992 7.58639 44.4653 0 43.4225C1.72344 46.8388 3.5505 50.2224 5.51936 53.454C7.93544 57.4242 10.357 61.2586 13.0512 64.9355C15.7236 68.6125 18.6524 72.0939 21.8102 75.3146C24.5808 78.0627 27.4823 80.6643 30.5583 83.0106L30.5419 83.016Z" fill="url(#paint1_linear_489_14654)"/>
<path d="M41.2775 55.0289C41.3702 55.9305 41.4902 56.8266 41.6211 57.7228C41.7738 58.771 41.9593 59.8138 42.1774 60.8566C42.4119 61.9808 42.6792 63.0942 43.001 64.2022C43.1755 64.7888 43.3991 65.359 43.6063 65.9348C43.9772 66.9558 44.3972 67.9606 44.8771 68.9491C45.3298 69.8832 45.8315 70.7957 46.3769 71.6864C47.1077 72.8704 47.8877 74.0327 48.7766 75.1135C49.4693 75.8956 50.0856 76.7537 50.8928 77.4326L51.1982 77.7096C51.4982 77.6933 51.7981 77.6662 52.0981 77.6607C55.005 77.5956 57.9119 77.8128 60.7807 78.2636C60.5789 77.6281 60.3935 76.9927 60.2462 76.3464C60.0117 75.5263 59.9081 74.7007 59.799 73.8752C59.7935 73.8209 59.7826 73.7665 59.7772 73.7122C59.7608 73.5765 59.739 73.4461 59.7226 73.3103C59.7172 73.2669 59.7117 73.2289 59.7063 73.1854C59.679 73.0116 59.6736 72.8378 59.6572 72.664C59.5699 71.9254 59.5372 71.1867 59.5318 70.4535C59.5318 70.3123 59.5263 70.1711 59.5263 70.0299V68.8893L59.5154 68.4603C59.5318 68.1344 59.5699 67.8085 59.6027 67.4772C59.6245 67.2763 59.6408 67.0699 59.6572 66.8689C59.7172 65.8098 59.9463 64.7562 60.159 63.708C61.037 59.5042 63.1368 55.6046 65.6892 52.3568C67.8162 49.7389 70.2269 47.5338 72.7466 45.5623C73.2811 43.455 73.9464 41.3803 74.7918 39.3707C75.3863 37.9369 76.0898 36.552 76.8316 35.1942C76.7552 35.0367 76.6734 34.8791 76.6025 34.7162C75.8662 33.1683 75.0699 31.6313 74.1919 30.1268C72.6757 27.5579 70.9959 25.0921 69.1852 22.7078C69.027 22.496 68.8689 22.2842 68.7052 22.0724C68.4816 21.7845 68.2471 21.5021 68.0235 21.2197C67.6254 20.72 67.2327 20.2149 66.8236 19.7261C65.4493 18.0913 63.9931 16.5163 62.4823 14.9684C60.9443 13.4585 59.3518 11.9758 57.6938 10.5474C56.0085 9.15697 54.3069 7.74486 52.5017 6.44137C51.6018 5.78963 50.7073 5.11073 49.7802 4.47528L49.0875 3.9919C48.853 3.8181 48.6239 3.6606 48.4767 3.53568C48.1822 3.29128 47.8604 2.99256 47.4732 2.67755C47.4732 2.69384 47.4623 2.71557 47.4623 2.73186L47.3641 3.12834L47.1623 3.9213L46.7642 5.50721L45.9952 8.66817C45.4661 10.7592 45.0244 12.8665 44.5444 14.9521C43.6827 19.0309 42.8592 23.0771 42.2647 27.1288C42.2483 27.2429 42.2265 27.3515 42.2101 27.4656C42.1229 28.0304 42.052 28.5952 41.9702 29.1601C41.8884 29.7575 41.8011 30.3495 41.7247 30.947C41.343 33.9395 41.0539 36.9267 40.8957 39.903C40.6994 44.0307 40.7649 48.115 41.0212 52.1667C41.0866 53.1226 41.1684 54.0784 41.2666 55.0343L41.2775 55.0289Z" fill="url(#paint2_linear_489_14654)"/>
<path d="M47.3281 2.55261C47.3827 2.59606 47.4263 2.63951 47.4808 2.68296C47.4972 2.62865 47.5081 2.57434 47.5026 2.56347C47.4699 2.59063 47.3881 2.60149 47.3281 2.55261Z" fill="white"/>
<path d="M128.779 30.4746L128.877 32.4244L129.008 35.1346L129.951 34.7055C131.408 34.0647 132.886 33.4727 134.358 32.8698C134.789 31.1916 135.242 29.5187 135.798 27.8677C136.442 26.0482 137.052 24.2125 137.674 22.355C138.181 20.4867 138.743 18.5966 138.901 16.6631C139.299 13.7085 139.098 10.7214 138.645 7.78851C137.778 8.39138 136.905 9.01053 136.049 9.61883C134.565 10.6725 133.087 11.7207 131.664 12.845C129.771 14.3277 127.95 15.8864 126.145 17.456C127.372 21.0569 128.168 24.7936 128.544 28.5303C128.621 29.182 128.719 29.8283 128.779 30.4801V30.4746Z" fill="#5EC0C6"/>
<path d="M171.112 86.1497C169.852 85.3948 168.494 84.8082 167.18 84.151C165.849 83.5264 164.567 82.8095 163.171 82.337L159.064 80.7619C157.652 80.3655 156.255 79.9147 154.854 79.491C154.079 79.2141 153.278 79.0294 152.47 78.8502C152.416 78.9045 152.367 78.9588 152.312 79.0131L149.596 81.5603C148.593 82.3533 147.584 83.1517 146.564 83.9175C145.571 84.7267 144.48 85.3948 143.395 86.0574C142.299 86.7091 141.257 87.4478 140.101 87.9691C135.618 90.3589 130.835 91.9882 126.014 93.1125C122.845 93.8566 119.638 94.3019 116.431 94.5355C115.771 95.5946 115.095 96.6211 114.32 97.6095C113.617 98.5111 112.842 99.3584 112.035 100.189C114.195 100.982 116.376 101.699 118.569 102.329C125.686 104.295 132.945 105.251 140.346 106.001C142.184 106.109 144.033 106.223 145.893 106.251L148.675 106.131L150.071 106.055L151.451 105.86L154.216 105.403C155.121 105.186 156.021 104.936 156.921 104.681C157.832 104.464 158.704 104.122 159.571 103.774C160.433 103.41 161.317 103.106 162.146 102.666C165.543 101.102 168.609 98.8967 171.325 96.4038C172.688 95.1601 173.926 93.7914 175.104 92.401C175.764 91.5809 176.413 90.7065 176.997 89.8429C175.061 88.5611 173.086 87.2902 171.096 86.1497H171.112Z" fill="url(#paint3_linear_489_14654)"/>
<path d="M79.4289 94.4756C78.6981 94.28 77.9673 94.0845 77.2365 93.851C75.1422 93.1829 73.0533 92.2651 71.0626 91.0702C69.8355 90.337 68.6575 89.4952 67.5449 88.5338C67.2067 88.2405 66.8686 87.9418 66.5414 87.6214C65.8869 86.9914 65.287 86.307 64.7198 85.5956C64.3871 85.1828 64.0707 84.7537 63.7708 84.3138C62.9963 84.1889 62.2164 84.0748 61.4365 83.9879C61.1311 83.9553 60.8202 83.939 60.5148 83.9065C59.3531 83.8033 58.1969 83.7218 57.0352 83.6838C56.2117 83.6566 55.3936 83.6403 54.57 83.6403C53.8228 83.6403 53.0757 83.6566 52.3285 83.6838C46.7273 83.9282 41.1043 84.8732 35.645 86.5895C35.1868 86.7307 34.7342 86.8719 34.276 87.024C33.5343 87.2792 32.8035 87.5725 32.0672 87.8441C30.9437 88.2623 29.8256 88.6968 28.7185 89.1584C27.6713 89.5929 26.6296 90.0274 25.5934 90.4999C23.1937 91.5699 20.7994 92.7973 18.5742 94.1606C22.3047 97.832 26.9351 100.868 31.909 102.726C37.4284 104.871 43.3786 105.316 48.9852 105.175C54.7555 105.018 60.4602 104.458 65.9632 102.932C71.2426 101.411 76.402 99.0595 80.7761 95.3554C80.9179 95.2359 81.0706 95.1219 81.2124 94.997C81.2233 94.9644 81.2233 94.9264 81.2342 94.8992C81.0706 94.8612 80.9124 94.8286 80.7488 94.7906C80.3125 94.6874 79.8762 94.5733 79.4344 94.4593L79.4289 94.4756Z" fill="url(#paint4_linear_489_14654)"/>
<path d="M19.5469 28.9817C19.6082 28.945 19.6695 28.9083 19.7308 28.8655C19.6757 28.8165 19.6143 28.7614 19.5591 28.7125L19.5469 28.9756V28.9817Z" fill="white"/>
<path d="M19.6328 27.0173C19.6819 26.9806 19.7309 26.9438 19.7861 26.9071C19.7432 26.8582 19.6941 26.8153 19.6451 26.7664L19.6328 27.0234V27.0173Z" fill="white"/>
<path d="M84.3405 30.719C83.4133 32.2561 82.5462 33.8202 81.7717 35.4116C81.1554 36.6771 80.6046 37.9588 80.0864 39.2623C79.8574 39.838 79.6229 40.4083 79.4102 40.9894C79.8683 40.7124 80.3319 40.4572 80.7954 40.191C81.5754 39.7457 82.3607 39.3166 83.157 38.8984C83.6206 38.654 84.0787 38.4042 84.5477 38.1706C85.4258 37.7198 86.3148 37.2853 87.2092 36.8671C87.9455 36.525 88.6927 36.1937 89.4399 35.8624C89.5817 35.8026 89.718 35.7375 89.8598 35.6723C90.9615 35.1998 92.036 34.7598 93.1595 34.3416C93.9121 34.0646 94.6866 33.7931 95.5156 33.5432L96.3282 33.2988L96.9663 33.6573L97.6426 34.0375C100.964 35.9004 104.182 37.7959 107.345 40.0498C108.905 41.1741 110.552 42.4178 112.085 44.1069C112.515 44.5686 112.941 45.0411 113.372 45.5136C114.664 44.221 115.962 42.9338 117.478 41.8856C117.5 41.8693 117.522 41.8476 117.549 41.8313C118.515 41.098 119.491 40.3811 120.478 39.6859C121.454 39.0125 122.529 38.4856 123.549 37.8882C123.685 34.9173 123.68 31.9573 123.429 29.0028C123.309 27.797 123.26 26.5805 123.123 25.3747L122.556 21.7956C122.491 21.448 122.403 21.1112 122.332 20.7691C122.103 19.6502 121.847 18.5423 121.547 17.4452C121.307 16.5653 121.067 15.68 120.773 14.8165C120.724 14.6264 120.658 14.4417 120.593 14.2571C120.271 13.3012 119.824 12.4104 119.469 11.4654C119.251 10.9006 118.929 10.4009 118.667 9.86321C118.384 9.34182 118.138 8.7824 117.795 8.29903C116.699 6.43069 115.21 4.66012 113.661 3.37836C111.861 4.04639 110.067 4.83935 108.392 5.87671C107.421 6.40897 106.516 7.06071 105.573 7.65271C104.673 8.30989 103.767 8.96163 102.889 9.64596C101.122 11.0146 99.426 12.4811 97.8171 14.0344C97.2008 14.5992 96.6118 15.2021 96.0228 15.7995C95.4283 16.4078 94.8393 17.0215 94.2612 17.6516C93.8903 18.0589 93.5085 18.4554 93.1431 18.8627C92.9031 19.1288 92.6795 19.4058 92.445 19.672C89.7399 22.7786 87.2692 26.0916 85.0604 29.497C84.8041 29.8989 84.5805 30.3063 84.335 30.7136L84.3405 30.719Z" fill="url(#paint5_linear_489_14654)"/>
<path d="M122.744 46.7518C122.575 46.9093 122.412 47.0831 122.237 47.2406C120.759 48.4952 119.526 50.0051 118.196 51.4063C119.286 52.9053 120.323 54.4858 121.223 56.1912C121.692 57.0765 122.133 57.9944 122.526 58.9448C122.821 59.6454 123.082 60.3678 123.322 61.101C123.999 63.154 124.451 65.3102 124.642 67.499C124.773 68.9762 124.789 70.459 124.669 71.9308C124.653 72.1155 124.626 72.2947 124.609 72.4794C124.549 73.0931 124.468 73.7068 124.369 74.3097C124.271 74.918 124.151 75.5263 124.02 76.1237C123.371 79.0023 122.33 81.7341 121.015 84.2216C120.492 85.1124 119.941 85.9759 119.39 86.8395C119.079 87.2848 118.894 87.6487 118.474 88.1593C118.332 88.3385 118.185 88.5068 118.043 88.6806L120.901 87.8008C121.975 87.4532 123.022 87.0567 124.08 86.6874C125.149 86.3452 126.158 85.8619 127.184 85.4274C128.209 84.9983 129.223 84.5529 130.2 84.037C131.176 83.5319 132.185 83.0811 133.134 82.538L135.932 80.838C136.881 80.3057 137.693 79.5725 138.593 78.9805C139.477 78.3614 140.366 77.7476 141.146 77.009C141.238 76.9221 141.342 76.8461 141.435 76.7646C142.149 76.1454 142.869 75.5317 143.589 74.9289L144.271 74.2391L145.923 72.5663C146.218 72.2676 146.518 71.9851 146.818 71.6919C147.314 71.2139 147.81 70.7305 148.269 70.2146C148.983 69.3727 149.714 68.5472 150.45 67.7271C151.197 66.9124 151.928 66.0869 152.572 65.1907L154.611 62.5892C157.148 58.9991 159.542 55.2625 161.358 51.2271C163.234 47.2243 164.739 43.0314 165.896 38.719L166.692 35.4603C166.91 34.3686 167.15 33.2661 167.335 32.1581C167.586 30.632 167.783 29.0352 167.892 27.5036C159.733 27.5579 151.497 29.0026 143.982 32.2668C142.302 32.9945 140.677 33.831 139.079 34.7108C138.004 35.3028 136.946 35.922 135.91 36.5737C134.896 37.2092 133.897 37.8663 132.91 38.5507C132.719 38.681 132.523 38.8059 132.338 38.9417L129.578 40.9132L128.924 41.4455L127.042 42.9771C126.693 43.2649 126.338 43.5311 125.984 43.8026C125.488 44.1828 124.991 44.5739 124.539 45.0084C124.217 45.3288 123.884 45.6384 123.557 45.9534C123.279 46.2195 123.006 46.4911 122.722 46.7572L122.744 46.7518Z" fill="url(#paint6_linear_489_14654)"/>
<path d="M170.284 27.5081L170.27 27.493C170.27 27.493 170.27 27.503 170.27 27.5081C170.274 27.5081 170.279 27.5081 170.284 27.5081Z" fill="white"/>
<path d="M82.0474 92.928C82.1292 92.7759 82.2165 92.6239 82.2983 92.4718C82.3692 92.3469 82.4347 92.2165 82.5056 92.097C82.5274 92.0645 82.5437 92.021 82.5656 91.9884C82.6037 91.9232 82.631 91.8526 82.6746 91.7929C82.6746 91.782 82.6855 91.7766 82.691 91.7712C82.7619 91.6571 82.8492 91.5539 82.9201 91.4399C83.0182 91.2932 83.1164 91.152 83.22 91.0054C83.4109 90.7338 83.5963 90.4514 83.8036 90.1907C83.9999 89.9409 84.2072 89.691 84.4144 89.4466C84.5453 89.2891 84.6708 89.1262 84.8071 88.9687C86.3669 87.1981 88.1667 85.6882 90.0756 84.363C91.9845 83.0324 94.0024 81.8864 96.1185 80.9685C96.3858 80.8599 96.6585 80.773 96.9257 80.6752C97.662 80.4037 98.4037 80.1593 99.1563 79.9366C99.2327 79.9149 99.3091 79.8877 99.3909 79.866C100.154 79.6542 100.929 79.4804 101.698 79.312C102.047 79.236 102.401 79.1545 102.745 79.073L103.71 78.8449L104.119 79.1654C105.177 79.9909 106.143 80.8056 107.119 81.6257C107.277 81.7615 107.441 81.8972 107.604 82.0276L109.819 83.8253L110.713 84.5531C110.817 84.2652 110.931 83.9883 111.051 83.7276C111.177 83.494 111.324 82.9781 111.46 82.625L112.06 81.0337L112.333 80.3168C112.698 79.2631 112.998 78.2203 113.26 77.1775C113.326 76.9223 113.391 76.667 113.451 76.4117C113.511 76.1456 113.582 75.8795 113.636 75.6133C113.931 74.1687 114.116 72.7348 114.155 71.3227C114.253 68.4007 113.8 65.5548 112.829 62.6708C112.497 61.6823 112.071 60.6938 111.608 59.7108C111.03 58.4725 110.37 57.2342 109.617 56.0067C109.224 55.3604 108.815 54.7141 108.384 54.0732C108.073 53.6007 107.735 53.1282 107.397 52.6557C106.726 51.7052 106.028 50.7547 105.303 49.7989C104.496 48.6311 103.318 47.4689 102.091 46.1762C99.8217 43.8788 97.4056 41.5217 94.9896 39.2189C94.0079 39.3221 93.0207 39.4578 92.0281 39.6425C91.0627 39.8163 90.1029 40.0281 89.1484 40.2834C88.9139 40.3486 88.6739 40.3974 88.4394 40.4626C87.9595 40.5984 87.485 40.7668 87.005 40.9243C86.0288 41.2447 85.0634 41.6086 84.1199 42.0105C83.6345 42.2169 83.16 42.4341 82.6855 42.6623C81.7529 43.113 80.853 43.6127 79.975 44.1504C79.2932 44.5686 78.6278 45.0085 77.9843 45.481C77.4716 45.8558 76.948 46.2306 76.4626 46.6433C75.8354 47.1701 75.2573 47.7404 74.6956 48.3324C74.0193 49.0439 73.3812 49.7826 72.7922 50.5484C72.3449 51.1675 71.9413 51.8138 71.5596 52.4601C71.0524 53.3183 70.5942 54.1981 70.207 55.0943C68.909 58.2933 68.3199 61.5791 68.249 64.8324C68.2163 65.6471 68.2 66.4563 68.2327 67.2765C68.2272 68.0857 68.2872 68.9112 68.3527 69.7422C68.4181 71.4096 68.6308 73.0118 68.8544 74.6031C68.9362 75.13 69.0453 75.6459 69.1435 76.1619C69.3726 77.3405 69.6507 78.5027 69.9997 79.6487C70.1252 80.0724 70.2724 80.4906 70.4197 80.9033C70.7142 81.7289 71.0414 82.5436 71.4287 83.3582C71.4287 83.3637 71.4341 83.3745 71.4396 83.38C71.4996 83.5049 71.5432 83.6352 71.6087 83.7656C71.6141 83.7819 71.625 83.7982 71.6359 83.8145C71.985 84.5205 72.3831 85.2211 72.8249 85.9055C73.0158 86.1988 73.2448 86.4758 73.4521 86.7582C73.7466 87.1655 74.0247 87.5837 74.352 87.9748C75.4809 89.3217 76.8062 90.5546 78.3333 91.5702C79.4132 92.2926 80.5694 92.9063 81.7802 93.4168C81.7911 93.3897 81.802 93.3625 81.8129 93.3354C81.8784 93.1887 81.9711 93.0584 82.042 92.9172L82.0474 92.928Z" fill="url(#paint7_linear_489_14654)"/>
<path d="M119.219 73.7342C119.219 73.7342 119.235 73.7342 119.241 73.7288C119.241 73.707 119.246 73.6799 119.251 73.6581C119.241 73.6853 119.23 73.707 119.219 73.7342Z" fill="white"/>
<path d="M113.41 92.3142C113.705 92.0535 113.983 91.7874 114.266 91.5267C114.004 90.9619 113.694 90.4024 113.339 89.8539C113.181 89.6149 113.023 89.3705 112.848 89.137C112.75 89.0012 112.625 88.8871 112.521 88.7568C112.341 88.5287 112.15 88.3114 111.954 88.0942C111.463 87.5456 110.939 87.0242 110.383 86.53C110.23 86.3942 110.094 86.253 109.941 86.1227C109.909 86.0955 109.865 86.0683 109.832 86.0412C109.434 85.7099 109.014 85.4057 108.589 85.1016C107.891 84.6128 107.176 84.1511 106.424 83.7438C106.205 83.6297 105.971 83.5265 105.742 83.4179C104.995 83.0486 104.237 82.7173 103.468 82.4186C102.671 82.902 101.88 83.3962 101.073 83.8361C100.681 84.086 100.277 84.2923 99.8789 84.5259C99.3389 84.8409 98.8044 85.1722 98.2591 85.4601C98.1554 85.5144 98.0518 85.5632 97.9482 85.623C97.4519 85.8945 96.9447 86.1498 96.4429 86.4051C95.1449 87.0677 93.8414 87.7086 92.5706 88.4146C90.6836 89.4031 88.8292 90.4405 87.0022 91.5539C86.9313 91.5973 86.8604 91.6462 86.7895 91.6896C86.6259 91.7874 86.4622 91.8906 86.3041 91.9938C86.1186 92.1133 85.9278 92.2273 85.7369 92.3468C85.6932 92.374 85.6551 92.4011 85.6114 92.4283C85.3987 92.5641 85.1915 92.7053 84.9842 92.8465C84.8206 92.9551 84.6515 93.0692 84.4879 93.1778C84.4225 93.2212 84.3625 93.2647 84.297 93.3081L83.6808 93.7481L83.479 93.8947L83.3644 93.9762L83.3153 94.0142L82.9663 94.264L82.6336 94.5247L82.6227 94.5356L82.3173 94.7746L82.0555 94.9864L81.99 95.0353L81.941 95.0787L81.8373 95.171L81.7773 95.2199C82.11 95.5241 82.3664 95.6924 82.6609 95.9803C82.9936 96.2844 83.3099 96.594 83.6535 96.8819C84.3025 97.4739 84.9951 98.0061 85.6769 98.5167C87.0567 99.5106 88.4747 100.347 89.9364 100.934C91.398 101.515 92.887 101.873 94.3704 102.009C95.1176 102.063 95.8648 102.074 96.612 102.047C96.9828 102.009 97.3755 101.993 97.7191 101.955L98.7063 101.781C100.381 101.384 102.164 100.64 103.931 99.6463C104.357 99.4074 104.776 99.1521 105.196 98.886C105.655 98.5981 106.107 98.294 106.554 97.9735C106.696 97.8703 106.844 97.7726 106.985 97.6694C108.229 96.7515 109.445 95.7576 110.65 94.7202C110.754 94.6333 110.858 94.5519 110.961 94.4596C111.468 94.0196 111.992 93.5743 112.51 93.1235C112.816 92.8574 113.105 92.5967 113.405 92.3251L113.41 92.3142Z" fill="url(#paint8_linear_489_14654)"/>
<defs>
<linearGradient id="paint0_linear_489_14654" x1="72.832" y1="14.268" x2="91.3971" y2="14.268" gradientUnits="userSpaceOnUse">
<stop stop-color="#ED6C9B"/>
<stop offset="1" stop-color="#EF7EA8"/>
</linearGradient>
<linearGradient id="paint1_linear_489_14654" x1="-0.0109078" y1="63.2193" x2="47.6672" y2="63.2193" gradientUnits="userSpaceOnUse">
<stop stop-color="#EF7FAA"/>
<stop offset="0.14" stop-color="#EE78A5"/>
<stop offset="0.61" stop-color="#EC6A9A"/>
<stop offset="1" stop-color="#EC6597"/>
</linearGradient>
<linearGradient id="paint2_linear_489_14654" x1="58.8118" y1="78.2636" x2="58.8118" y2="2.67755" gradientUnits="userSpaceOnUse">
<stop stop-color="#EF7FAA"/>
<stop offset="0.06" stop-color="#EF83AD"/>
<stop offset="0.41" stop-color="#F29CBD"/>
<stop offset="0.73" stop-color="#F4AAC7"/>
<stop offset="1" stop-color="#F5B0CB"/>
</linearGradient>
<linearGradient id="paint3_linear_489_14654" x1="112.041" y1="92.5422" x2="177.013" y2="92.5422" gradientUnits="userSpaceOnUse">
<stop stop-color="#2E8E95"/>
<stop offset="0.35" stop-color="#44A5AC"/>
<stop offset="0.74" stop-color="#57B9BF"/>
<stop offset="1" stop-color="#5EC0C6"/>
</linearGradient>
<linearGradient id="paint4_linear_489_14654" x1="18.5633" y1="94.4267" x2="81.2233" y2="94.4267" gradientUnits="userSpaceOnUse">
<stop stop-color="#5EC0C6"/>
<stop offset="0.26" stop-color="#57B9BF"/>
<stop offset="0.65" stop-color="#44A5AC"/>
<stop offset="1" stop-color="#2E8E95"/>
</linearGradient>
<linearGradient id="paint5_linear_489_14654" x1="101.526" y1="45.5136" x2="101.526" y2="3.38379" gradientUnits="userSpaceOnUse">
<stop stop-color="#EF7EA8"/>
<stop offset="0.04" stop-color="#EF83AB"/>
<stop offset="0.2" stop-color="#F297B9"/>
<stop offset="0.38" stop-color="#F3A5C3"/>
<stop offset="0.61" stop-color="#F4ADC9"/>
<stop offset="1" stop-color="#F5B0CB"/>
</linearGradient>
<linearGradient id="paint6_linear_489_14654" x1="118.059" y1="58.0867" x2="167.903" y2="58.0867" gradientUnits="userSpaceOnUse">
<stop stop-color="#ED6C9B"/>
<stop offset="1" stop-color="#EF7EA8"/>
</linearGradient>
<linearGradient id="paint7_linear_489_14654" x1="91.1991" y1="93.4223" x2="91.1991" y2="39.2189" gradientUnits="userSpaceOnUse">
<stop stop-color="#EF7EA8"/>
<stop offset="0.24" stop-color="#F298BA"/>
<stop offset="0.52" stop-color="#F4B1CB"/>
<stop offset="0.78" stop-color="#F6BFD6"/>
<stop offset="1" stop-color="#F7C5DA"/>
</linearGradient>
<linearGradient id="paint8_linear_489_14654" x1="81.7883" y1="92.2328" x2="114.266" y2="92.2328" gradientUnits="userSpaceOnUse">
<stop stop-color="#F29DBF"/>
<stop offset="0.34" stop-color="#F4B1CC"/>
<stop offset="0.7" stop-color="#F6BFD6"/>
<stop offset="1" stop-color="#F7C5DA"/>
</linearGradient>
</defs>
</svg>
