<svg width="14" height="14" viewBox="0 0 14 14" fill="none" xmlns="http://www.w3.org/2000/svg">
<path fill-rule="evenodd" clip-rule="evenodd" d="M6.41935 6.41935V1.58065C6.41935 1.25996 6.67932 1 7 1C7.32068 1 7.58065 1.25996 7.58065 1.58065V6.41935H12.4194C12.74 6.41935 13 6.67932 13 7C13 7.32068 12.74 7.58065 12.4194 7.58065H7.58065V12.4194C7.58065 12.74 7.32068 13 7 13C6.67932 13 6.41935 12.74 6.41935 12.4194V7.58065H1.58065C1.25996 7.58065 1 7.32068 1 7C1 6.67932 1.25996 6.41935 1.58065 6.41935H6.41935Z" fill="white" stroke="white"/>
</svg>
