<svg width="18" height="18" viewBox="0 0 18 18" fill="none" xmlns="http://www.w3.org/2000/svg">
<path fill-rule="evenodd" clip-rule="evenodd" d="M5.82381 2.75997L6.65114 1.1053C6.73245 0.942687 6.89865 0.839966 7.08046 0.839966H10.9205C11.1023 0.839966 11.2685 0.942687 11.3498 1.1053L12.1771 2.75997H16.6798C16.9449 2.75997 17.1598 2.97487 17.1598 3.23997C17.1598 3.50506 16.9449 3.71997 16.6798 3.71997H15.2419L14.4411 14.931C14.3514 16.1869 13.3064 17.16 12.0472 17.16H6.01445C4.75467 17.16 3.7093 16.1859 3.62043 14.9293L2.82773 3.71997H1.31984C1.05475 3.71997 0.839844 3.50506 0.839844 3.23997C0.839844 2.97487 1.05475 2.75997 1.31984 2.75997H5.82381ZM6.89712 2.75997H11.1038L10.6238 1.79997H7.37712L6.89712 2.75997ZM11.8815 7.04013L11.4015 12.8001C11.3795 13.0643 11.5758 13.2963 11.84 13.3183C12.1042 13.3403 12.3362 13.144 12.3582 12.8799L12.8382 7.11985C12.8602 6.85567 12.6639 6.62367 12.3997 6.60165C12.1356 6.57964 11.9035 6.77595 11.8815 7.04013ZM6.08001 6.60165C6.34419 6.57964 6.5762 6.77595 6.59821 7.04013L7.07821 12.8001C7.10023 13.0643 6.90391 13.2963 6.63973 13.3183C6.37555 13.3403 6.14354 13.144 6.12153 12.8799L5.64153 7.11985C5.61951 6.85567 5.81583 6.62367 6.08001 6.60165ZM8.51984 7.07997V12.84C8.51984 13.1051 8.73475 13.32 8.99984 13.32C9.26494 13.32 9.47984 13.1051 9.47984 12.84V7.07997C9.47984 6.81487 9.26494 6.59997 8.99984 6.59997C8.73475 6.59997 8.51984 6.81487 8.51984 7.07997Z" fill="#FF4B55"/>
</svg>
