<svg width="16" height="16" viewBox="0 0 16 16" fill="none" xmlns="http://www.w3.org/2000/svg">
<path fill-rule="evenodd" clip-rule="evenodd" d="M13.3076 12.2807L15.774 14.7463C16.4592 15.4313 15.4317 16.4592 14.7465 15.7741L12.2799 13.3083C9.31697 15.752 4.94592 15.5652 2.19933 12.8187C-0.733111 9.88621 -0.733111 5.13178 2.19933 2.19933C5.13178 -0.733111 9.88621 -0.733111 12.8187 2.19933C15.5655 4.94618 15.752 9.31775 13.3076 12.2807ZM11.7885 3.22449C9.42358 0.859612 5.58936 0.859612 3.22449 3.22449C0.859612 5.58936 0.859612 9.42358 3.22449 11.7885C5.58936 14.1533 9.42358 14.1533 11.7885 11.7885C14.1533 9.42358 14.1533 5.58936 11.7885 3.22449Z" fill="#B1BFCD"/>
</svg>
