<svg width="24" height="24" viewBox="0 0 24 24" fill="none" xmlns="http://www.w3.org/2000/svg">
<path fill-rule="evenodd" clip-rule="evenodd" d="M17.0253 16.0079L19.469 18.4509C20.1479 19.1296 19.1298 20.148 18.4509 19.4693L16.007 17.0261C13.0713 19.4473 8.74044 19.2623 6.01909 16.541C3.11359 13.6355 3.11359 8.92471 6.01909 6.01921C8.92459 3.11371 13.6353 3.11371 16.5408 6.01921C19.2624 8.74082 19.4472 13.0722 17.0253 16.0079ZM15.5226 7.03745C13.1795 4.6943 9.38047 4.6943 7.03733 7.03745C4.69418 9.38059 4.69418 13.1796 7.03733 15.5227C9.38047 17.8659 13.1795 17.8659 15.5226 15.5227C17.8658 13.1796 17.8658 9.38059 15.5226 7.03745Z" fill="white"/>
</svg>
