<svg width="16" height="16" viewBox="0 0 16 16" fill="none" xmlns="http://www.w3.org/2000/svg">
<path fill-rule="evenodd" clip-rule="evenodd" d="M12.836 5.27916C12.4615 4.90695 11.8568 4.90695 11.4824 5.27916L8.03597 8.67756L4.63757 5.27916C4.26313 4.90695 3.6584 4.90695 3.28397 5.27916C3.10223 5.45942 3 5.70479 3 5.96076C3 6.21673 3.10223 6.4621 3.28397 6.64236L7.35437 10.7128C7.53462 10.8945 7.77999 10.9967 8.03597 10.9967C8.29194 10.9967 8.53731 10.8945 8.71757 10.7128L12.836 6.64236C13.0177 6.4621 13.1199 6.21673 13.1199 5.96076C13.1199 5.70479 13.0177 5.45942 12.836 5.27916Z" fill="#5EBFC5"/>
</svg>
