<svg width="20" height="20" viewBox="0 0 20 20" fill="none" xmlns="http://www.w3.org/2000/svg">
<g clip-path="url(#clip0_15_3577)">
<path d="M17.7331 9.0652C18.0175 8.69754 18.2433 8.40254 18.41 8.17997C19.6109 6.58331 20.1315 5.56336 19.9719 5.11868L19.9093 5.01453C19.8678 4.95198 19.7599 4.89453 19.5865 4.84254C19.4129 4.79058 19.1908 4.78227 18.9202 4.81658L15.9213 4.83773C15.8519 4.83082 15.7819 4.83243 15.7129 4.84254C15.6435 4.85309 15.5985 4.86369 15.5775 4.87379C15.5566 4.88439 15.5393 4.89288 15.5255 4.89979L15.484 4.93105C15.4492 4.95175 15.4111 4.98831 15.3695 5.04053C15.3278 5.09272 15.2929 5.1532 15.2653 5.22286C14.939 6.06278 14.5677 6.84386 14.1511 7.56585C13.8942 7.99629 13.6581 8.3697 13.4431 8.68514C13.2279 9.00129 13.0474 9.23378 12.9016 9.38274C12.7559 9.53197 12.6238 9.65197 12.5059 9.74191C12.3878 9.8325 12.2976 9.87044 12.2353 9.85665C12.1761 9.84374 12.117 9.82979 12.0583 9.8148C11.961 9.75251 11.8828 9.66764 11.824 9.55981C11.7649 9.45247 11.7251 9.317 11.7042 9.15375C11.6835 8.99074 11.6711 8.85004 11.6678 8.73184C11.6642 8.61391 11.666 8.44743 11.6731 8.23197C11.68 8.01673 11.6835 7.87122 11.6835 7.79465C11.6835 7.53113 11.6888 7.24466 11.6992 6.93565C11.7095 6.62686 11.7183 6.38197 11.7251 6.20145C11.732 6.02119 11.7355 5.83011 11.7355 5.62869C11.7355 5.42773 11.7233 5.26952 11.6988 5.15482C11.6743 5.04022 11.6377 4.92854 11.5897 4.82165C11.5409 4.71427 11.4698 4.63079 11.376 4.57196C11.2823 4.51286 11.1661 4.4662 11.0273 4.43122C10.6591 4.34774 10.1905 4.30314 9.62146 4.29582C8.33017 4.28248 7.50059 4.3657 7.1327 4.54596C6.98693 4.62253 6.85494 4.72644 6.73701 4.85843C6.61194 5.01134 6.59469 5.09478 6.68505 5.10812C7.10167 5.17067 7.39648 5.32013 7.57005 5.55603L7.63261 5.68088C7.68111 5.77146 7.72965 5.93106 7.77838 6.16005C7.82692 6.38908 7.85818 6.64245 7.87219 6.92021C7.90691 7.42695 7.90691 7.86062 7.87219 8.22186C7.83748 8.58306 7.8046 8.86405 7.77335 9.06501C7.74205 9.26643 7.69516 9.42944 7.63283 9.55429C7.57028 9.67958 7.52869 9.75593 7.50776 9.78373C7.48684 9.81131 7.46959 9.82878 7.4558 9.83573C7.36607 9.87019 7.27075 9.8878 7.17463 9.88769C7.07736 9.88769 6.95939 9.83892 6.82053 9.74165C6.68163 9.64487 6.53748 9.51104 6.38847 9.34089C6.23902 9.171 6.07093 8.93303 5.8833 8.62743C5.6959 8.32232 5.50137 7.96109 5.30018 7.5447L5.1337 7.24256C5.02956 7.04851 4.88721 6.76545 4.70672 6.39411C4.52623 6.02277 4.36641 5.66363 4.22777 5.31622C4.17213 5.17067 4.08888 5.05962 3.97786 4.98305L3.9259 4.95179C3.89118 4.92418 3.83554 4.89453 3.7592 4.86346C3.6821 4.83204 3.60174 4.80929 3.51961 4.79565L0.66642 4.81635C0.374875 4.81635 0.177143 4.88259 0.0729989 5.01453L0.0313711 5.07686C0.0103318 5.1118 0 5.16744 0 5.24356C0 5.32013 0.0209266 5.41372 0.0625544 5.52455C0.47917 6.50359 0.932154 7.44769 1.42143 8.35681C1.91097 9.26643 2.33611 9.99897 2.69709 10.5543C3.05806 11.11 3.42595 11.6338 3.80098 12.1267C4.176 12.6197 4.42408 12.9353 4.54547 13.074C4.66686 13.2131 4.76228 13.3173 4.83175 13.3865L5.09204 13.6366C5.25851 13.8031 5.50339 14.0027 5.82623 14.2354C6.14904 14.4681 6.50637 14.6971 6.89886 14.9224C7.29091 15.1482 7.74754 15.3319 8.26807 15.4745C8.78864 15.617 9.29539 15.6742 9.78835 15.6462H10.9859C11.2289 15.6255 11.4128 15.5494 11.5377 15.4172L11.5793 15.3652C11.6069 15.3238 11.6331 15.2595 11.6574 15.1728C11.6816 15.0861 11.6941 14.9904 11.6941 14.8865C11.6869 14.5881 11.7097 14.3186 11.7616 14.0795C11.8136 13.8399 11.8727 13.6596 11.9387 13.5378C12.0047 13.4166 12.0792 13.314 12.1626 13.2306C12.2459 13.1471 12.3047 13.0972 12.3397 13.0797C12.3744 13.0627 12.4023 13.0505 12.423 13.0432C12.5894 12.9877 12.7855 13.0416 13.0113 13.2046C13.2369 13.3681 13.4487 13.569 13.6466 13.8086C13.8443 14.0482 14.0821 14.3169 14.3599 14.6156C14.6374 14.9141 14.8804 15.1362 15.0887 15.2819L15.297 15.4073C15.4359 15.4903 15.6162 15.5666 15.8385 15.6363C16.0606 15.7055 16.2552 15.723 16.4216 15.6883L19.0874 15.6464C19.3511 15.6464 19.556 15.6032 19.7018 15.5163C19.8475 15.43 19.9343 15.3339 19.9621 15.23C19.9897 15.1259 19.9915 15.0084 19.9674 14.8761C19.943 14.7444 19.9187 14.6524 19.8945 14.6005C19.8702 14.5485 19.8476 14.5048 19.8267 14.4703C19.4795 13.8456 18.8166 13.0783 17.8378 12.1689L17.8168 12.1482L17.8065 12.1377L17.7962 12.1275H17.7857C17.3413 11.704 17.0603 11.4193 16.9423 11.2733C16.7271 10.9961 16.6784 10.7149 16.7966 10.4302C16.8793 10.2144 17.1916 9.75961 17.7331 9.0652Z" fill="#2B69BC"/>
</g>
<defs>
<clipPath id="clip0_15_3577">
<rect width="20" height="20" fill="white"/>
</clipPath>
</defs>
</svg>
