<svg width="20" height="20" viewBox="0 0 20 20" fill="none" xmlns="http://www.w3.org/2000/svg">
<g clip-path="url(#clip0_15_3594)">
<path d="M3.93415 10.7341C3.42331 11.7382 4.00331 12.2182 5.32665 13.0382C6.45165 13.7332 8.00581 13.9874 9.00415 14.0891L5.06998 17.8732C3.92498 18.9707 5.76831 20.7316 6.91248 19.6574L10.01 16.6699C11.1958 17.8107 12.3325 18.9041 13.1075 19.6616C14.2525 20.7399 16.095 18.9941 14.9625 17.8774C14.8775 17.7966 10.765 13.8516 11.0158 14.0932C12.0266 13.9916 13.5575 13.7224 14.6691 13.0424L14.6683 13.0416C15.9916 12.2174 16.5716 11.7382 16.0683 10.7341C15.7641 10.1641 14.9441 9.68741 13.8525 10.5116C13.8525 10.5116 12.3783 11.6407 10.0008 11.6407C7.62248 11.6407 6.14915 10.5116 6.14915 10.5116C5.05831 9.68324 4.23498 10.1641 3.93415 10.7341Z" fill="#FF7410"/>
<path d="M9.99911 10.1183C12.8974 10.1183 15.2641 7.85333 15.2641 5.065C15.2641 2.265 12.8974 0 9.99911 0C7.09994 0 4.73328 2.265 4.73328 5.065C4.73328 7.85333 7.09994 10.1183 9.99911 10.1183ZM9.99911 2.56583C11.4233 2.56583 12.5849 3.68333 12.5849 5.065C12.5849 6.435 11.4233 7.5525 9.99911 7.5525C8.57494 7.5525 7.41328 6.435 7.41328 5.065C7.41244 3.6825 8.57411 2.56583 9.99911 2.56583Z" fill="#FF7410"/>
</g>
<defs>
<clipPath id="clip0_15_3594">
<rect width="20" height="20" fill="white"/>
</clipPath>
</defs>
</svg>
