<svg width="16" height="16" viewBox="0 0 16 16" fill="none" xmlns="http://www.w3.org/2000/svg">
<path fill-rule="evenodd" clip-rule="evenodd" d="M13.2001 7.59865L9.03588 3.96012C8.83625 3.78569 8.81582 3.48246 8.99025 3.28283C9.16468 3.0832 9.46791 3.06277 9.66754 3.2372L14.7875 7.71082C14.7889 7.71197 14.7902 7.71312 14.7915 7.71428C14.894 7.80231 14.959 7.9329 14.959 8.07865C14.959 8.25719 14.8615 8.41295 14.7169 8.49565L9.66805 12.9197C9.46866 13.0944 9.1654 13.0744 8.9907 12.875C8.81599 12.6756 8.83599 12.3724 9.03537 12.1976L13.1883 8.55865L1.84156 8.55865C1.57647 8.55865 1.36156 8.34375 1.36156 8.07865C1.36156 7.81356 1.57647 7.59865 1.84156 7.59865L13.2001 7.59865Z" fill="#919EAB"/>
</svg>
