<svg width="22" height="22" viewBox="0 0 22 22" fill="none" xmlns="http://www.w3.org/2000/svg">
<path fill-rule="evenodd" clip-rule="evenodd" d="M19.8565 5.48091C19.1909 5.7712 18.487 5.96309 17.7667 6.05063C18.5266 5.59425 19.0961 4.87628 19.3695 4.02991C18.6554 4.45725 17.8736 4.75834 17.0583 4.92009C15.9374 3.69812 14.1368 3.39188 12.6784 4.17518C11.2201 4.95848 10.4724 6.63345 10.8598 8.24939C7.93974 8.10091 5.21981 6.71271 3.37733 4.43049C3.05779 4.99146 2.88988 5.62674 2.8903 6.27318C2.888 7.49247 3.49299 8.63198 4.50191 9.30871C3.92455 9.29291 3.35952 9.13717 2.85488 8.85471V8.89922C2.86381 10.6333 4.08523 12.1216 5.77703 12.46C5.46114 12.5566 5.13317 12.6076 4.80298 12.6113C4.57443 12.6086 4.34644 12.5878 4.12115 12.549C4.60018 14.0322 5.96171 15.0471 7.51261 15.0771C6.23502 16.0877 4.65766 16.6393 3.03198 16.6438C2.73599 16.6448 2.44024 16.627 2.14648 16.5904C3.80629 17.6678 5.74056 18.2397 7.71628 18.2373C10.4704 18.266 13.1205 17.1807 15.0705 15.2253C17.0206 13.27 18.107 10.6087 18.0855 7.8399C18.0855 7.68857 18.0855 7.52834 18.0855 7.3681C18.7803 6.84718 19.3796 6.20857 19.8565 5.48091Z" fill="#919EAB"/>
</svg>
