<svg width="20" height="15" viewBox="0 0 20 15" fill="none" xmlns="http://www.w3.org/2000/svg">
<rect width="20" height="15" rx="2" fill="white"/>
<mask id="mask0_668_2923" style="mask-type:luminance" maskUnits="userSpaceOnUse" x="0" y="0" width="20" height="15">
<rect width="20" height="15" rx="2" fill="white"/>
</mask>
<g mask="url(#mask0_668_2923)">
<path fill-rule="evenodd" clip-rule="evenodd" d="M20 0H0V1H20V0ZM20 1.99993H0V2.99993H20V1.99993ZM0 4.00011H20V5.00011H0V4.00011ZM20 6.00004H0V7.00004H20V6.00004ZM0 7.99997H20V8.99997H0V7.99997ZM20 9.9999H0V10.9999H20V9.9999ZM0 12.0001H20V13.0001H0V12.0001ZM20 14H0V15H20V14Z" fill="#D02F44"/>
<rect width="8.57143" height="7" fill="#46467F"/>
<g filter="url(#filter0_d_668_2923)">
<path fill-rule="evenodd" clip-rule="evenodd" d="M1.42858 2C1.69158 2 1.90477 1.77614 1.90477 1.5C1.90477 1.22386 1.69158 1 1.42858 1C1.16559 1 0.952393 1.22386 0.952393 1.5C0.952393 1.77614 1.16559 2 1.42858 2ZM3.33334 2C3.59634 2 3.80954 1.77614 3.80954 1.5C3.80954 1.22386 3.59634 1 3.33334 1C3.07035 1 2.85715 1.22386 2.85715 1.5C2.85715 1.77614 3.07035 2 3.33334 2ZM5.7143 1.5C5.7143 1.77614 5.5011 2 5.23811 2C4.97511 2 4.76192 1.77614 4.76192 1.5C4.76192 1.22386 4.97511 1 5.23811 1C5.5011 1 5.7143 1.22386 5.7143 1.5ZM7.14287 2C7.40586 2 7.61906 1.77614 7.61906 1.5C7.61906 1.22386 7.40586 1 7.14287 1C6.87988 1 6.66668 1.22386 6.66668 1.5C6.66668 1.77614 6.87988 2 7.14287 2ZM2.85717 2.49993C2.85717 2.77607 2.64397 2.99993 2.38098 2.99993C2.11798 2.99993 1.90479 2.77607 1.90479 2.49993C1.90479 2.22379 2.11798 1.99993 2.38098 1.99993C2.64397 1.99993 2.85717 2.22379 2.85717 2.49993ZM4.28576 2.99993C4.54875 2.99993 4.76195 2.77607 4.76195 2.49993C4.76195 2.22379 4.54875 1.99993 4.28576 1.99993C4.02277 1.99993 3.80957 2.22379 3.80957 2.49993C3.80957 2.77607 4.02277 2.99993 4.28576 2.99993ZM6.66674 2.49993C6.66674 2.77607 6.45354 2.99993 6.19055 2.99993C5.92755 2.99993 5.71436 2.77607 5.71436 2.49993C5.71436 2.22379 5.92755 1.99993 6.19055 1.99993C6.45354 1.99993 6.66674 2.22379 6.66674 2.49993ZM7.14282 3.9999C7.40581 3.9999 7.61901 3.77604 7.61901 3.4999C7.61901 3.22375 7.40581 2.9999 7.14282 2.9999C6.87982 2.9999 6.66663 3.22375 6.66663 3.4999C6.66663 3.77604 6.87982 3.9999 7.14282 3.9999ZM5.71434 3.4999C5.71434 3.77604 5.50115 3.9999 5.23815 3.9999C4.97516 3.9999 4.76196 3.77604 4.76196 3.4999C4.76196 3.22375 4.97516 2.9999 5.23815 2.9999C5.50115 2.9999 5.71434 3.22375 5.71434 3.4999ZM3.33337 3.9999C3.59636 3.9999 3.80956 3.77604 3.80956 3.4999C3.80956 3.22375 3.59636 2.9999 3.33337 2.9999C3.07038 2.9999 2.85718 3.22375 2.85718 3.4999C2.85718 3.77604 3.07038 3.9999 3.33337 3.9999ZM1.90477 3.4999C1.90477 3.77604 1.69158 3.9999 1.42858 3.9999C1.16559 3.9999 0.952393 3.77604 0.952393 3.4999C0.952393 3.22375 1.16559 2.9999 1.42858 2.9999C1.69158 2.9999 1.90477 3.22375 1.90477 3.4999ZM2.38098 4.99986C2.64397 4.99986 2.85717 4.776 2.85717 4.49986C2.85717 4.22372 2.64397 3.99986 2.38098 3.99986C2.11798 3.99986 1.90479 4.22372 1.90479 4.49986C1.90479 4.776 2.11798 4.99986 2.38098 4.99986ZM4.76195 4.49986C4.76195 4.776 4.54875 4.99986 4.28576 4.99986C4.02277 4.99986 3.80957 4.776 3.80957 4.49986C3.80957 4.22372 4.02277 3.99986 4.28576 3.99986C4.54875 3.99986 4.76195 4.22372 4.76195 4.49986ZM6.19055 4.99986C6.45354 4.99986 6.66674 4.776 6.66674 4.49986C6.66674 4.22372 6.45354 3.99986 6.19055 3.99986C5.92755 3.99986 5.71436 4.22372 5.71436 4.49986C5.71436 4.776 5.92755 4.99986 6.19055 4.99986ZM7.61901 5.50007C7.61901 5.77622 7.40581 6.00007 7.14282 6.00007C6.87982 6.00007 6.66663 5.77622 6.66663 5.50007C6.66663 5.22393 6.87982 5.00007 7.14282 5.00007C7.40581 5.00007 7.61901 5.22393 7.61901 5.50007ZM5.23815 6.00007C5.50115 6.00007 5.71434 5.77622 5.71434 5.50007C5.71434 5.22393 5.50115 5.00007 5.23815 5.00007C4.97516 5.00007 4.76196 5.22393 4.76196 5.50007C4.76196 5.77622 4.97516 6.00007 5.23815 6.00007ZM3.80956 5.50007C3.80956 5.77622 3.59636 6.00007 3.33337 6.00007C3.07038 6.00007 2.85718 5.77622 2.85718 5.50007C2.85718 5.22393 3.07038 5.00007 3.33337 5.00007C3.59636 5.00007 3.80956 5.22393 3.80956 5.50007ZM1.42858 6.00007C1.69158 6.00007 1.90477 5.77622 1.90477 5.50007C1.90477 5.22393 1.69158 5.00007 1.42858 5.00007C1.16559 5.00007 0.952393 5.22393 0.952393 5.50007C0.952393 5.77622 1.16559 6.00007 1.42858 6.00007Z" fill="url(#paint0_linear_668_2923)"/>
</g>
</g>
<defs>
<filter id="filter0_d_668_2923" x="0.952393" y="1" width="6.66675" height="6" filterUnits="userSpaceOnUse" color-interpolation-filters="sRGB">
<feFlood flood-opacity="0" result="BackgroundImageFix"/>
<feColorMatrix in="SourceAlpha" type="matrix" values="0 0 0 0 0 0 0 0 0 0 0 0 0 0 0 0 0 0 127 0" result="hardAlpha"/>
<feOffset dy="1"/>
<feColorMatrix type="matrix" values="0 0 0 0 0 0 0 0 0 0 0 0 0 0 0 0 0 0 0.06 0"/>
<feBlend mode="normal" in2="BackgroundImageFix" result="effect1_dropShadow_668_2923"/>
<feBlend mode="normal" in="SourceGraphic" in2="effect1_dropShadow_668_2923" result="shape"/>
</filter>
<linearGradient id="paint0_linear_668_2923" x1="0.952393" y1="1" x2="0.952393" y2="6" gradientUnits="userSpaceOnUse">
<stop stop-color="white"/>
<stop offset="1" stop-color="#F0F0F0"/>
</linearGradient>
</defs>
</svg>
