<svg width="14" height="16" viewBox="0 0 14 16" fill="none" xmlns="http://www.w3.org/2000/svg">
<path d="M7.07348 7.70725C8.13229 7.70725 9.04916 7.32747 9.79831 6.57819C10.5475 5.82907 10.9272 4.91245 10.9272 3.85352C10.9272 2.7949 10.5475 1.87818 9.79819 1.12878C9.04891 0.379748 8.13216 0 7.07348 0C6.01451 0 5.09786 0.379749 4.34874 1.1289C3.59962 1.87806 3.21971 2.7948 3.21971 3.85352C3.21971 4.91245 3.59958 5.8292 4.34886 6.57835C5.09814 7.32738 6.01489 7.70725 7.07348 7.70725ZM13.8165 12.3032C13.7949 11.9914 13.7512 11.6513 13.6868 11.2922C13.6219 10.9304 13.5383 10.5883 13.4382 10.2757C13.3348 9.95259 13.1942 9.63352 13.0204 9.32771C12.8399 9.01034 12.628 8.73397 12.3902 8.50656C12.1416 8.26865 11.8371 8.07737 11.4851 7.93781C11.1342 7.79906 10.7454 7.72875 10.3296 7.72875C10.1662 7.72875 10.0083 7.79575 9.70322 7.99437C9.48637 8.13558 9.26888 8.27579 9.05075 8.415C8.84116 8.54856 8.55722 8.67368 8.2065 8.78697C7.86435 8.89768 7.51694 8.95384 7.17404 8.95384C6.83117 8.95384 6.48385 8.89768 6.14132 8.78697C5.79101 8.67378 5.50708 8.54869 5.2977 8.41512C5.05489 8.25997 4.8352 8.11837 4.64464 7.99422C4.33996 7.79563 4.18186 7.72859 4.01855 7.72859C3.60252 7.72859 3.21387 7.79903 2.86315 7.93797C2.51134 8.07725 2.20678 8.26853 1.95787 8.50669C1.72022 8.73422 1.50819 9.01043 1.328 9.32771C1.15431 9.63349 1.01369 9.95246 0.910158 10.2758C0.810158 10.5885 0.726565 10.9304 0.661627 11.2922C0.597284 11.6508 0.553596 11.991 0.531972 12.3035C0.51046 12.618 0.499797 12.9331 0.500003 13.2484C0.500003 14.0836 0.765502 14.7597 1.28906 15.2583C1.80615 15.7504 2.49034 16.0001 3.32237 16.0001H11.0265C11.8585 16.0001 12.5424 15.7506 13.0596 15.2584C13.5833 14.7601 13.8488 14.0838 13.8488 13.2482C13.8487 12.9259 13.8379 12.6079 13.8165 12.3032Z" fill="#B1BFCD"/>
</svg>
